<svg width="251" height="168" viewBox="0 0 251 168" fill="none" xmlns="http://www.w3.org/2000/svg">
<path d="M37.9996 113.759C37.9996 143.417 61.5045 167.459 90.4993 167.459C119.494 167.459 142.999 143.417 142.999 113.759C142.999 84.1011 119.494 60.0586 90.4993 60.0586C61.5045 60.0586 37.9996 84.1011 37.9996 113.759Z" fill="#A9B527" fill-opacity="0.1"/>
<path d="M-0.000247835 70.7986C-0.000251818 91.9828 16.789 109.156 37.4996 109.156C58.2101 109.156 74.9994 91.9828 74.9994 70.7986C74.9994 49.6144 58.2102 32.4412 37.4996 32.4412C16.789 32.4412 -0.000243853 49.6144 -0.000247835 70.7986Z" fill="#A9B527" fill-opacity="0.1"/>
<path d="M99.9993 62.1043C99.9993 95.9991 126.862 123.476 159.999 123.476C193.136 123.476 219.999 95.9991 219.999 62.1043C219.999 28.2096 193.136 0.732417 159.999 0.73241C126.862 0.732404 99.9993 28.2095 99.9993 62.1043Z" fill="#A9B527" fill-opacity="0.1"/>
<path d="M188.999 103.019C188.999 120.531 202.878 134.728 219.999 134.728C237.119 134.728 250.999 120.531 250.999 103.019C250.999 85.5068 237.119 71.3103 219.999 71.3103C202.878 71.3103 188.999 85.5068 188.999 103.019Z" fill="#A9B527" fill-opacity="0.1"/>
</svg>
