<svg width="220" height="163" viewBox="0 0 220 163" fill="none" xmlns="http://www.w3.org/2000/svg">
<path d="M-0.000238949 58.7736C-0.000241085 82.492 17.4606 101.72 38.9996 101.72C60.5386 101.72 77.9994 82.492 77.9994 58.7736C77.9994 35.0552 60.5386 15.8276 38.9996 15.8276C17.4606 15.8276 -0.000236812 35.0552 -0.000238949 58.7736Z" fill="#A9B527" fill-opacity="0.1"/>
<path d="M38.9994 95.1126C38.9994 132.211 66.3099 162.284 99.9991 162.284C133.688 162.284 160.999 132.211 160.999 95.1126C160.999 58.0146 133.688 27.9407 99.9991 27.9407C66.3099 27.9407 38.9994 58.0146 38.9994 95.1126Z" fill="#A9B527" fill-opacity="0.1"/>
<path d="M121.999 54.3689C121.999 84.1689 143.937 108.327 170.999 108.327C198.061 108.327 219.999 84.169 219.999 54.3689C219.999 24.5688 198.061 0.411131 170.999 0.411128C143.937 0.411126 121.999 24.5688 121.999 54.3689Z" fill="#A9B527" fill-opacity="0.1"/>
</svg>
