<?xml version="1.0" encoding="UTF-8"?>
<svg xmlns="http://www.w3.org/2000/svg" xmlns:xlink="http://www.w3.org/1999/xlink" version="1.1" viewBox="0 0 203 44">
  <defs>
    <style>
      .cls-1 {
        mask: url(#mask);
      }

      .cls-2 {
        fill: #a9b527;
      }

      .cls-3 {
        fill: #fff;
      }
    </style>
    <mask id="mask" x="21.2" y="3.4" width="160.3" height="38.3" maskUnits="userSpaceOnUse">
      <g id="path-1-outside-1_759_724">
        <rect class="cls-3" x="21.2" y="3.4" width="160.3" height="38.3"/>
        <path d="M26.2,38.7c-1.4,0-2.1-.7-2.1-2.2V8.7c0-1.4.7-2.2,2.2-2.2h12.2c3,0,5.4.7,7,2.1,1.7,1.4,2.5,3.7,2.5,6.7s-.8,5.4-2.5,6.8c-1.7,1.4-4,2.2-7,2.2h-10.2v12.2c0,1.5-.7,2.2-2.1,2.2ZM28.3,20.3h9.7c1.8,0,3.2-.4,4.2-1.2,1-.8,1.5-2.1,1.5-3.8s-.5-3-1.5-3.7c-1-.8-2.3-1.2-4.2-1.2h-9.7v9.8ZM65.1,39.2c-2,0-3.8-.5-5.4-1.4-1.6-1-2.8-2.3-3.7-4.1-.9-1.7-1.3-3.8-1.3-6.1s.4-4.3,1.3-6c.9-1.7,2.2-3.1,3.7-4,1.6-1,3.4-1.5,5.4-1.5s3.8.5,5.4,1.5c1.6,1,2.8,2.3,3.7,4,.9,1.7,1.4,3.7,1.4,6s-.5,4.3-1.4,6.1c-.9,1.7-2.1,3.1-3.7,4.1-1.6,1-3.4,1.4-5.4,1.4ZM65.1,35.5c1.9,0,3.4-.7,4.6-2.1,1.2-1.4,1.8-3.3,1.8-5.8s-.6-4.3-1.8-5.7c-1.2-1.4-2.7-2.1-4.6-2.1s-3.4.7-4.6,2.1c-1.2,1.4-1.7,3.3-1.7,5.7s.6,4.3,1.7,5.8c1.2,1.4,2.7,2.1,4.6,2.1ZM88,38.7c-1.4,0-2.1-.7-2.1-2.2v-17.7c0-1.4.7-2.2,2.1-2.2s2,.7,2,2.2v17.7c0,1.5-.7,2.2-2,2.2ZM87.9,12.5c-.8,0-1.4-.3-2-.8-.5-.6-.8-1.2-.8-2s.3-1.4.8-1.9c.6-.6,1.2-.8,2-.8s1.4.3,1.9.8c.6.5.8,1.2.8,1.9s-.3,1.4-.8,2c-.5.5-1.2.8-1.9.8ZM103.5,38.7c-1.4,0-2.1-.7-2.1-2.2v-17.7c0-1.4.6-2.2,1.9-2.2s1.9.4,2,1.1v1.7c.7-.9,1.6-1.7,2.7-2.4,1.1-.7,2.4-1,3.8-1,2.3,0,4.2.8,5.7,2.3,1.5,1.5,2.2,3.6,2.2,6.4v11.7c0,1.5-.7,2.2-2.1,2.2s-2-.7-2-2.2v-10.9c0-1.9-.4-3.4-1.3-4.3-.9-1-2-1.5-3.4-1.5s-2.8.5-3.8,1.6c-1,1-1.5,2.4-1.5,4.1v11c0,1.5-.7,2.2-2.1,2.2ZM138.4,39.2c-2.1,0-3.7-.4-4.7-1.2-1.1-.8-1.6-2.4-1.6-4.7v-13.1h-2.3c-1.4,0-2.2-.6-2.2-1.8s.2-1.1.5-1.3c.3-.3.9-.5,1.7-.5h2.3v-5.8c0-1.4.7-2.2,2.1-2.2s2,.7,2,2.2v5.8h4.2c1.4,0,2.2.6,2.2,1.8s-.7,1.8-2.2,1.8h-4.2v12.2c0,1.2.3,2,.8,2.4.6.4,1.4.6,2.4.6h.3c.8,0,1.5,0,2.1.2.6.1.8.6.8,1.4s-.4,1.5-1.3,1.7c-.8.2-1.8.4-2.9.4ZM176.5,38.7c-1.3,0-2-.7-2-2.2V11.5l-4.2,2.7c-1.3.8-2.2.7-2.9-.5-.7-1.1-.5-2.1.8-2.9l6-3.7c.8-.5,1.7-.8,2.7-.8s1.6.7,1.6,2.2v27.9c0,1.5-.6,2.2-1.9,2.2Z"/>
      </g>
    </mask>
  </defs>
  <!-- Generator: Adobe Illustrator 28.6.0, SVG Export Plug-In . SVG Version: 1.2.0 Build 709)  -->
  <g>
    <g id="_レイヤー_1" data-name="レイヤー_1">
      <path class="cls-3" d="M26.2,38.7c-1.4,0-2.1-.7-2.1-2.2V8.7c0-1.4.7-2.2,2.2-2.2h12.2c3,0,5.4.7,7,2.1,1.7,1.4,2.5,3.7,2.5,6.7s-.8,5.4-2.5,6.8c-1.7,1.4-4,2.2-7,2.2h-10.2v12.2c0,1.5-.7,2.2-2.1,2.2ZM28.3,20.3h9.7c1.8,0,3.2-.4,4.2-1.2,1-.8,1.5-2.1,1.5-3.8s-.5-3-1.5-3.7c-1-.8-2.3-1.2-4.2-1.2h-9.7v9.8ZM65.1,39.2c-2,0-3.8-.5-5.4-1.4-1.6-1-2.8-2.3-3.7-4.1-.9-1.7-1.3-3.8-1.3-6.1s.4-4.3,1.3-6c.9-1.7,2.2-3.1,3.7-4,1.6-1,3.4-1.5,5.4-1.5s3.8.5,5.4,1.5c1.6,1,2.8,2.3,3.7,4,.9,1.7,1.4,3.7,1.4,6s-.5,4.3-1.4,6.1c-.9,1.7-2.1,3.1-3.7,4.1-1.6,1-3.4,1.4-5.4,1.4ZM65.1,35.5c1.9,0,3.4-.7,4.6-2.1,1.2-1.4,1.8-3.3,1.8-5.8s-.6-4.3-1.8-5.7c-1.2-1.4-2.7-2.1-4.6-2.1s-3.4.7-4.6,2.1c-1.2,1.4-1.7,3.3-1.7,5.7s.6,4.3,1.7,5.8c1.2,1.4,2.7,2.1,4.6,2.1ZM88,38.7c-1.4,0-2.1-.7-2.1-2.2v-17.7c0-1.4.7-2.2,2.1-2.2s2,.7,2,2.2v17.7c0,1.5-.7,2.2-2,2.2ZM87.9,12.5c-.8,0-1.4-.3-2-.8-.5-.6-.8-1.2-.8-2s.3-1.4.8-1.9c.6-.6,1.2-.8,2-.8s1.4.3,1.9.8c.6.5.8,1.2.8,1.9s-.3,1.4-.8,2c-.5.5-1.2.8-1.9.8ZM103.5,38.7c-1.4,0-2.1-.7-2.1-2.2v-17.7c0-1.4.6-2.2,1.9-2.2s1.9.4,2,1.1v1.7c.7-.9,1.6-1.7,2.7-2.4,1.1-.7,2.4-1,3.8-1,2.3,0,4.2.8,5.7,2.3,1.5,1.5,2.2,3.6,2.2,6.4v11.7c0,1.5-.7,2.2-2.1,2.2s-2-.7-2-2.2v-10.9c0-1.9-.4-3.4-1.3-4.3-.9-1-2-1.5-3.4-1.5s-2.8.5-3.8,1.6c-1,1-1.5,2.4-1.5,4.1v11c0,1.5-.7,2.2-2.1,2.2ZM138.4,39.2c-2.1,0-3.7-.4-4.7-1.2-1.1-.8-1.6-2.4-1.6-4.7v-13.1h-2.3c-1.4,0-2.2-.6-2.2-1.8s.2-1.1.5-1.3c.3-.3.9-.5,1.7-.5h2.3v-5.8c0-1.4.7-2.2,2.1-2.2s2,.7,2,2.2v5.8h4.2c1.4,0,2.2.6,2.2,1.8s-.7,1.8-2.2,1.8h-4.2v12.2c0,1.2.3,2,.8,2.4.6.4,1.4.6,2.4.6h.3c.8,0,1.5,0,2.1.2.6.1.8.6.8,1.4s-.4,1.5-1.3,1.7c-.8.2-1.8.4-2.9.4ZM176.5,38.7c-1.3,0-2-.7-2-2.2V11.5l-4.2,2.7c-1.3.8-2.2.7-2.9-.5-.7-1.1-.5-2.1.8-2.9l6-3.7c.8-.5,1.7-.8,2.7-.8s1.6.7,1.6,2.2v27.9c0,1.5-.6,2.2-1.9,2.2Z"/>
      <g class="cls-1">
        <path class="cls-2" d="M45.5,8.6l-1.5,1.8h0s0,0,0,0l1.5-1.8ZM45.5,22.2l-1.5-1.7h0s0,0,0,0l1.5,1.7ZM28.3,24.3v-2.3h-2.3v2.3h2.3ZM28.3,20.3h-2.3v2.3h2.3v-2.3ZM42.2,19.2l1.4,1.8h0s-1.5-1.8-1.5-1.8ZM42.2,11.6l-1.4,1.8h0s0,0,0,0l1.4-1.8ZM28.3,10.5v-2.3h-2.3v2.3h2.3ZM26.2,36.4c-.1,0-.2,0-.1,0,0,0,0,0,.1,0,0,0,.1,0,.1.1,0,.1.1.2.1.2,0,0,0,0,0,0,0,0,0-.1,0-.2h-4.6c0,1.1.2,2.3,1.1,3.2.9,1,2.1,1.3,3.2,1.3v-4.6ZM26.4,36.5V8.7h-4.6v27.8h4.6ZM26.4,8.7c0-.2,0-.2,0-.2,0,0,0,0,0,0,0,0,0,0-.1.1s0,0-.1.1c0,0,0,0,0,0,0,0,0,0,.2,0v-4.6c-1.1,0-2.3.3-3.2,1.2-.9.9-1.2,2.2-1.2,3.2h4.6ZM26.2,8.8h12.2v-4.6h-12.2v4.6ZM38.5,8.8c2.7,0,4.4.6,5.5,1.6l3-3.5c-2.2-1.9-5.2-2.7-8.5-2.7v4.6ZM44,10.4c1,.8,1.7,2.3,1.7,5h4.6c0-3.5-1-6.5-3.4-8.5l-3,3.5ZM45.8,15.3c0,2.7-.7,4.2-1.7,5.1l3,3.5c2.4-2,3.3-5.1,3.3-8.6h-4.6ZM44,20.4c-1.1,1-2.8,1.6-5.5,1.6v4.6c3.4,0,6.3-.8,8.5-2.7l-3-3.5ZM38.5,22h-10.2v4.6h10.2v-4.6ZM26,24.3v12.2h4.6v-12.2h-4.6ZM26,36.5c0,.2,0,.3,0,.3,0,0,0,0,0,0,0,0,0,0,.1-.1,0,0,0,0,.1-.1,0,0,0,0,.1,0,0,0,0,0-.2,0v4.6c1.1,0,2.3-.3,3.2-1.3.9-1,1.2-2.2,1.2-3.2h-4.6ZM28.3,22.6h9.7v-4.6h-9.7v4.6ZM38,22.6c2.1,0,4.1-.4,5.6-1.7l-2.9-3.6c-.4.3-1.2.6-2.7.6v4.6ZM43.6,21c1.7-1.4,2.3-3.4,2.3-5.6h-4.6c0,1.3-.4,1.8-.6,2l2.9,3.6ZM45.9,15.3c0-2.1-.6-4.2-2.4-5.5l-2.8,3.6c.2.2.6.6.6,1.9h4.6ZM43.6,9.8c-1.5-1.2-3.5-1.7-5.6-1.7v4.6c1.6,0,2.4.3,2.7.6l2.9-3.6ZM38,8.2h-9.7v4.6h9.7v-4.6ZM26,10.5v9.8h4.6v-9.8h-4.6ZM59.7,37.8l-1.2,1.9h0s0,0,0,0l1.2-2ZM56,33.7l-2.1,1h0s0,0,0,0l2-1.1ZM56,21.6l-2-1.1h0s0,0,0,0l2,1.1ZM59.7,17.6l1.2,2h0s0,0,0,0l-1.2-2ZM70.5,17.6l-1.2,1.9h0s0,0,0,0l1.2-2ZM74.2,21.6l-2.1,1h0s0,0,0,0l2-1.1ZM74.2,33.7l-2-1.1h0s0,0,0,0l2.1,1ZM70.5,37.8l1.2,2h0s0,0,0,0l-1.2-2ZM69.7,33.4l-1.8-1.5h0s1.8,1.5,1.8,1.5ZM69.7,21.9l-1.8,1.5h0s0,0,0,0l1.7-1.5ZM60.5,21.9l-1.7-1.5h0s0,0,0,0l1.8,1.5ZM60.5,33.4l-1.8,1.5h0s0,0,0,0l1.7-1.5ZM65.1,36.9c-1.6,0-3-.4-4.3-1.1l-2.4,4c2,1.2,4.2,1.8,6.6,1.8v-4.6ZM60.9,35.9c-1.2-.8-2.2-1.8-2.9-3.2l-4.1,2.1c1.1,2.1,2.6,3.8,4.5,5l2.4-3.9ZM58,32.7c-.7-1.4-1.1-3-1.1-5h-4.6c0,2.6.5,5,1.6,7.1l4.1-2.1ZM56.9,27.6c0-2,.4-3.6,1.1-5l-4.1-2.1c-1.1,2.1-1.6,4.5-1.6,7.1h4.6ZM58,22.7c.7-1.4,1.7-2.4,2.9-3.2l-2.4-3.9c-1.9,1.2-3.5,2.9-4.6,4.9l4.1,2.1ZM60.9,19.5c1.2-.7,2.6-1.1,4.2-1.1v-4.6c-2.4,0-4.6.6-6.6,1.8l2.4,3.9ZM65.1,18.4c1.6,0,3,.4,4.2,1.1l2.4-3.9c-2-1.2-4.2-1.8-6.6-1.8v4.6ZM69.3,19.5c1.2.7,2.2,1.7,2.9,3.1l4.1-2.1c-1.1-2.1-2.6-3.8-4.6-5l-2.4,4ZM72.2,22.7c.7,1.3,1.1,3,1.1,4.9h4.6c0-2.6-.5-5-1.7-7.1l-4.1,2.2ZM73.3,27.6c0,2-.4,3.6-1.1,5l4.1,2.1c1.1-2.1,1.6-4.5,1.6-7.1h-4.6ZM72.2,32.7c-.7,1.4-1.7,2.4-2.9,3.2l2.4,3.9c2-1.2,3.5-2.9,4.6-5l-4.1-2.1ZM69.3,35.8c-1.2.7-2.5,1.1-4.2,1.1v4.6c2.4,0,4.6-.6,6.6-1.8l-2.4-3.9ZM65.1,37.8c2.5,0,4.7-1,6.3-2.9l-3.5-3c-.7.8-1.6,1.3-2.8,1.3v4.6ZM71.4,34.9c1.6-1.9,2.3-4.4,2.3-7.2h-4.6c0,2-.5,3.4-1.2,4.3l3.5,3ZM73.8,27.6c0-2.8-.7-5.3-2.4-7.2l-3.5,3c.7.8,1.2,2.1,1.2,4.2h4.6ZM71.4,20.4c-1.6-1.9-3.8-2.9-6.3-2.9v4.6c1.2,0,2.1.4,2.8,1.3l3.5-3ZM65.1,17.6c-2.5,0-4.7,1-6.3,2.9l3.5,3c.7-.9,1.6-1.3,2.9-1.3v-4.6ZM58.7,20.4c-1.6,1.9-2.3,4.4-2.3,7.2h4.6c0-2.1.5-3.4,1.2-4.2l-3.5-3ZM56.5,27.6c0,2.8.7,5.3,2.3,7.2l3.5-2.9c-.7-.9-1.2-2.2-1.2-4.3h-4.6ZM58.8,34.9c1.6,1.9,3.8,2.9,6.3,2.9v-4.6c-1.2,0-2.1-.4-2.9-1.3l-3.5,3ZM86,11.7l-1.7,1.6h0s0,0,0,0l1.6-1.7ZM86,7.8l-1.6-1.6,1.6,1.6ZM89.8,7.8l-1.7,1.6h0s0,0,0,0l1.6-1.7ZM89.8,11.7l1.6,1.6h0l-1.6-1.6ZM88,36.4c-.1,0-.2,0-.1,0,0,0,0,0,.1,0,0,0,.1,0,.1.1,0,.1.1.2.1.2,0,0,0,0,0,0,0,0,0-.1,0-.2h-4.6c0,1.1.2,2.3,1.1,3.2.9,1,2.1,1.3,3.2,1.3v-4.6ZM88.2,36.5v-17.7h-4.6v17.7h4.6ZM88.2,18.8c0-.2,0-.3,0-.2,0,0,0,.1-.1.2,0,0,0,0-.1.1,0,0,0,0-.1,0,0,0,0,0,.1,0v-4.6c-1.1,0-2.3.3-3.2,1.3-.9.9-1.2,2.2-1.2,3.2h4.6ZM88,18.9c.1,0,.2,0,.1,0,0,0,0,0-.1,0,0,0-.1,0-.2-.1-.1-.1-.1-.2-.1-.2,0,0,0,0,0,.3h4.6c0-1-.2-2.2-1.1-3.2-.9-1-2.1-1.3-3.2-1.3v4.6ZM87.7,18.8v17.7h4.6v-17.7h-4.6ZM87.7,36.5c0,.2,0,.3,0,.3,0,0,0,0,0,0,0,0,0,0,0-.1,0,0,0,0,.2-.1,0,0,0,0,.1,0,0,0,0,0,0,0v4.6c1.1,0,2.3-.3,3.2-1.3.9-1,1.1-2.2,1.1-3.2h-4.6ZM87.9,10.2c-.2,0-.3,0-.4-.2l-3.2,3.3c1,.9,2.2,1.4,3.6,1.4v-4.6ZM87.6,10.1c-.1-.1-.2-.2-.2-.4h-4.6c0,1.3.5,2.6,1.4,3.6l3.3-3.2ZM87.5,9.7c0-.2,0-.2.1-.3l-3.3-3.3c-1,1-1.5,2.2-1.5,3.6h4.6ZM87.6,9.4c.1-.1.2-.2.4-.2v-4.6c-1.4,0-2.6.5-3.6,1.5l3.3,3.3ZM87.9,9.3c0,0,0,0,0,0,0,0,0,0,.1,0l3.3-3.2c-.9-1-2.2-1.5-3.6-1.5v4.6ZM88.2,9.5c0,0,0,0,0,.1,0,0,0,0,0,.2h4.6c0-1.4-.5-2.6-1.5-3.6l-3.2,3.3ZM88.3,9.7c0,.1,0,.2-.2.4l3.3,3.3c1-1,1.5-2.2,1.5-3.6h-4.6ZM88.2,10.1c0,0-.1,0-.1,0,0,0,0,0-.1,0v4.6c1.3,0,2.6-.5,3.5-1.5l-3.3-3.3ZM105.3,17.7h-2.3c0,0,0,.1,0,.1h0s2.3-.1,2.3-.1ZM105.4,19.5h-2.3c0,.1.4,6.8.4,6.8l3.8-5.5-1.9-1.3ZM108,17.1l-1.2-2h0s0,0,0,0l1.2,1.9ZM117.4,18.3l-1.7,1.6h0s0,0,0,0l1.6-1.6ZM114.2,21.3l-1.7,1.5h0s0,0,0,0l1.7-1.5ZM107.1,21.4l1.7,1.6h0s0,0,0,0l-1.7-1.6ZM103.5,36.4c-.1,0-.2,0-.1,0,0,0,0,0,.1,0,0,0,.1,0,.1.1,0,.1.1.2.1.2,0,0,0,0,0,0,0,0,0-.1,0-.2h-4.6c0,1.1.2,2.3,1.1,3.2.9,1,2.1,1.3,3.2,1.3v-4.6ZM103.8,36.5v-17.7h-4.6v17.7h4.6ZM103.8,18.8c0-.2,0-.3,0-.3,0,0,0,0-.1.2-.1.1-.2.2-.3.2,0,0,0,0,0,0v-4.6c-1.1,0-2.3.3-3.1,1.3-.8.9-1,2.1-1,3.1h4.6ZM103.3,18.9c.2,0,.4,0,.4,0,0,0,0,0,0,0-.1,0-.3-.2-.5-.4-.2-.2-.2-.5-.2-.6l4.6-.2c0-1.2-.7-2.2-1.7-2.7-.8-.5-1.8-.6-2.6-.6v4.6ZM103,17.9v1.7c0,0,4.7-.2,4.7-.2v-1.7c0,0-4.7.2-4.7.2ZM107.3,20.8c.4-.6,1.1-1.2,1.9-1.8l-2.4-3.9c-1.3.8-2.4,1.8-3.2,3l3.8,2.6ZM109.2,19.1c.7-.4,1.5-.7,2.6-.7v-4.6c-1.8,0-3.5.4-5,1.3l2.4,3.9ZM111.8,18.4c1.8,0,3,.6,4,1.5l3.3-3.2c-1.9-2-4.4-3-7.3-3v4.6ZM115.8,20c.9.9,1.5,2.4,1.5,4.8h4.6c0-3.2-.8-6-2.9-8.1l-3.3,3.3ZM117.3,24.8v11.7h4.6v-11.7h-4.6ZM117.3,36.5c0,0,0,.2,0,.2,0,0,0,0,0,0,0,0,0,0,.1-.2,0,0,0,0,.1-.1,0,0,0,0,.1,0,0,0,0,0-.1,0v4.6c1.1,0,2.3-.3,3.2-1.3.9-1,1.1-2.2,1.1-3.2h-4.6ZM117.6,36.4c-.1,0-.2,0,0,0,0,0,0,0,.1,0,0,0,.1,0,.2.1,0,0,0,0,0,.1,0,0,0,0,0,0,0,0,0,0,0-.3h-4.6c0,1,.2,2.3,1.1,3.2.9,1,2.1,1.3,3.2,1.3v-4.6ZM117.8,36.5v-10.9h-4.6v10.9h4.6ZM117.8,25.7c0-2.2-.5-4.3-1.9-5.9l-3.4,3.1c.3.4.7,1.1.7,2.8h4.6ZM116,19.8c-1.3-1.5-3.1-2.3-5.1-2.3v4.6c.8,0,1.2.2,1.6.7l3.5-3ZM110.9,17.6c-2.1,0-4,.7-5.5,2.3l3.4,3.2c.5-.5,1.1-.8,2.1-.8v-4.6ZM105.4,19.8c-1.5,1.5-2.1,3.5-2.1,5.7h4.6c0-1.3.3-2,.8-2.5l-3.3-3.2ZM103.3,25.5v11h4.6v-11h-4.6ZM103.3,36.5c0,0,0,.2,0,.2,0,0,0,0,0,0,0,0,0,0,.1-.2,0,0,0,0,.1-.1,0,0,0,0,.1,0,0,0,0,0-.1,0v4.6c1.1,0,2.3-.3,3.2-1.3.9-1,1.1-2.2,1.1-3.2h-4.6ZM133.6,38l-1.4,1.8h0s0,0,0,0l1.4-1.8ZM132,20.2h2.3v-2.3h-2.3v2.3ZM128,17.1l1.5,1.7h0s0,0,0,0l-1.5-1.7ZM132,16.6v2.3h2.3v-2.3h-2.3ZM136.1,16.6h-2.3v2.3h2.3v-2.3ZM136.1,20.2v-2.3h-2.3v2.3h2.3ZM136.9,34.9l-1.5,1.8h0s0,0,0,0l1.3-1.9ZM141.7,35.7l-.6,2.2h0s0,0,0,0l.5-2.2ZM141.2,38.9l-.6-2.2h0s0,0,0,0l.7,2.2ZM138.4,36.9c-1.9,0-2.9-.4-3.4-.7l-2.7,3.7c1.6,1.2,3.8,1.7,6.1,1.7v-4.6ZM135.1,36.2c-.2-.2-.7-.8-.7-2.9h-4.6c0,2.5.6,5,2.5,6.5l2.8-3.6ZM134.3,33.3v-13.1h-4.6v13.1h4.6ZM132,17.9h-2.3v4.6h2.3v-4.6ZM129.7,17.9c-.2,0-.3,0-.3,0,0,0,0,0,.2.1.1.1.2.2.3.4,0,.1,0,.1,0,0h-4.6c0,1.1.3,2.3,1.4,3.1.9.8,2.1,1,3.1,1v-4.6ZM129.9,18.4c0-.1,0-.1,0,0,0,0-.1.3-.3.4l-3.1-3.4c-1,.9-1.2,2.1-1.2,3h4.6ZM129.6,18.8c-.2.2-.3.2-.3.2,0,0,0,0,.1,0,0,0,.2,0,.3,0v-4.6c-1,0-2.3.2-3.2,1.1l3.1,3.4ZM129.7,18.9h2.3v-4.6h-2.3v4.6ZM134.3,16.6v-5.8h-4.6v5.8h4.6ZM134.3,10.9c0-.2,0-.3,0-.2,0,0,0,.1-.1.2,0,0,0,0-.1.1,0,0,0,0-.1,0,0,0,0,0,.1,0v-4.6c-1.1,0-2.3.3-3.2,1.3-.9.9-1.2,2.2-1.2,3.2h4.6ZM134.1,11c.1,0,.2,0,.1,0,0,0,0,0-.1,0,0,0-.1,0-.2-.1-.1-.1-.1-.2-.1-.2,0,0,0,0,0,.3h4.6c0-1-.2-2.2-1.1-3.2-.9-1-2.1-1.3-3.2-1.3v4.6ZM133.8,10.9v5.8h4.6v-5.8h-4.6ZM136.1,18.9h4.2v-4.6h-4.2v4.6ZM140.4,18.9c.2,0,.3,0,.3,0,0,0,0,0-.2-.1-.1-.1-.2-.2-.3-.4,0-.1,0-.1,0,0h4.6c0-1.1-.3-2.3-1.4-3.1-.9-.8-2.1-1-3.1-1v4.6ZM140.2,18.4c0,0,0,0,0,0,0-.1.1-.2.3-.4.1,0,.2-.1.2-.1,0,0-.1,0-.3,0v4.6c1,0,2.1-.2,3.1-1,1-.9,1.4-2,1.4-3.1h-4.6ZM140.4,17.9h-4.2v4.6h4.2v-4.6ZM133.8,20.2v12.2h4.6v-12.2h-4.6ZM133.8,32.5c0,1.4.3,3.1,1.6,4.2l2.9-3.6c.2.1.2.2.1.1,0-.1,0-.4,0-.8h-4.6ZM135.6,36.8c1.1.8,2.5,1,3.8,1v-4.6c-.4,0-.7,0-.9,0-.2,0-.2,0-.2,0l-2.7,3.7ZM139.4,37.8h.3v-4.6h-.3v4.6ZM139.6,37.8c.7,0,1.2,0,1.5.1l1.2-4.4c-.8-.2-1.7-.3-2.7-.3v4.6ZM141.2,38c-.1,0-.3,0-.5-.2-.2-.1-.3-.3-.4-.4-.1-.2-.1-.4-.1-.2h4.6c0-.6,0-1.4-.5-2.1-.5-.8-1.2-1.3-2.1-1.5l-1,4.5ZM140.2,37.2c0,.1,0,0,.1-.3.2-.2.4-.3.3-.3l1.1,4.5c.8-.2,1.6-.6,2.2-1.4.6-.8.8-1.7.8-2.5h-4.6ZM140.6,36.7c-.6.2-1.3.3-2.2.3v4.6c1.2,0,2.4-.1,3.5-.5l-1.3-4.4ZM174.5,11.5h2.3v-4.2l-3.5,2.2,1.2,1.9ZM170.3,14.2l-1.2-1.9h0s0,0,0,0l1.3,1.9ZM167.4,13.7l2-1.1h0c0,0,0-.1,0-.1l-1.9,1.3ZM168.2,10.9l1.2,2h0s-1.2-2-1.2-2ZM174.2,7.2l1.2,2h0s0,0,0,0l-1.2-1.9ZM176.5,36.4c-.1,0-.1,0,0,0,0,0,0,0,.1,0,0,0,.1,0,.2.1,0,.1.1.2.1.2,0,0,0-.1,0-.3h-4.6c0,1,.2,2.2,1.1,3.2.9,1,2.1,1.3,3.2,1.3v-4.6ZM176.8,36.5V11.5h-4.6v25h4.6ZM173.3,9.6l-4.2,2.7,2.5,3.9,4.2-2.7-2.5-3.9ZM169,12.3c-.2.1-.3.2-.3.2,0,0,0,0,.3,0,.2,0,.3.1.4.2,0,0,0,0,0,0l-4,2.3c.5.9,1.4,1.9,2.8,2.1,1.3.2,2.4-.3,3.3-.9l-2.5-3.8ZM169.4,12.5c0-.1,0-.1,0,0,0,0,0,0,0,.2,0,0,0,.1,0,.2,0,.2-.1.2-.1.2,0,0,0,0,0,0,0,0,0,0,.2-.1l-2.4-3.9c-.9.5-1.8,1.4-2.2,2.6-.4,1.3,0,2.5.6,3.4l3.9-2.5ZM169.4,12.8l6-3.7-2.4-3.9-6,3.7,2.4,3.9ZM175.4,9.2c.5-.3.9-.4,1.4-.4v-4.6c-1.4,0-2.7.4-3.9,1.1l2.5,3.9ZM176.9,8.7s-.1,0-.3,0c-.2,0-.3-.2-.4-.3,0-.1,0-.2,0-.1,0,0,0,.2,0,.4h4.6c0-.9-.2-2.1-.8-3-.8-1.1-1.9-1.5-3.1-1.5v4.6ZM176.1,8.6v27.9h4.6V8.6h-4.6ZM176.1,36.5c0,.2,0,.3,0,.3,0,0,0,0,.1-.2,0,0,.1-.1.2-.1,0,0,.1,0,.2,0,0,0,0,0,0,0v4.6c1.1,0,2.3-.3,3.2-1.3.8-1,1.1-2.2,1.1-3.2h-4.6Z"/>
      </g>
    </g>
  </g>
</svg>