<?xml version="1.0" encoding="UTF-8"?>
<svg xmlns="http://www.w3.org/2000/svg" xmlns:xlink="http://www.w3.org/1999/xlink" version="1.1" viewBox="0 0 219 52">
  <defs>
    <style>
      .cls-1 {
        mask: url(#mask);
      }

      .cls-2 {
        fill: #a9b527;
      }

      .cls-3 {
        fill: #fff;
      }
    </style>
    <mask id="mask" x="17.3" y="7.1" width="180" height="41.5" maskUnits="userSpaceOnUse">
      <g id="path-1-outside-1_759_726">
        <rect class="cls-3" x="17.3" y="7.1" width="180" height="41.5"/>
        <path d="M22.7,45.3c-1.5,0-2.2-.8-2.2-2.4V12.8c0-1.6.8-2.3,2.3-2.3h13.2c3.3,0,5.8.8,7.6,2.3,1.8,1.5,2.7,3.9,2.7,7.3s-.9,5.8-2.7,7.4c-1.8,1.6-4.3,2.3-7.6,2.3h-11v13.2c0,1.6-.8,2.4-2.3,2.4ZM25,25.4h10.5c2,0,3.5-.4,4.5-1.2,1.1-.9,1.6-2.2,1.6-4.1s-.5-3.2-1.6-4c-1-.8-2.5-1.2-4.5-1.2h-10.5v10.6ZM64.9,45.8c-2.2,0-4.1-.5-5.9-1.5-1.7-1.1-3-2.5-4-4.4-1-1.9-1.4-4.1-1.4-6.6s.5-4.7,1.4-6.5c1-1.9,2.3-3.4,4-4.4,1.7-1.1,3.7-1.6,5.9-1.6s4.1.5,5.8,1.6c1.7,1,3.1,2.5,4,4.4,1,1.9,1.5,4,1.5,6.5s-.5,4.7-1.5,6.6c-1,1.9-2.3,3.4-4,4.4-1.7,1-3.6,1.5-5.8,1.5ZM64.9,41.7c2,0,3.7-.7,4.9-2.2,1.3-1.5,1.9-3.6,1.9-6.2s-.6-4.7-1.9-6.2c-1.3-1.5-2.9-2.2-4.9-2.2s-3.7.7-5,2.2c-1.3,1.5-1.9,3.5-1.9,6.2s.6,4.7,1.9,6.2c1.3,1.5,3,2.2,5,2.2ZM89.6,45.3c-1.5,0-2.2-.8-2.2-2.4v-19.2c0-1.6.7-2.3,2.2-2.3s2.2.8,2.2,2.3v19.2c0,1.6-.7,2.4-2.2,2.4ZM89.5,16.9c-.8,0-1.5-.3-2.1-.8-.6-.6-.8-1.3-.8-2.1s.3-1.5.8-2.1c.6-.6,1.3-.9,2.1-.9s1.5.3,2,.9c.6.6.9,1.3.9,2.1s-.3,1.5-.9,2.1c-.6.6-1.2.8-2,.8ZM106.4,45.3c-1.5,0-2.2-.8-2.2-2.4v-19.2c0-1.6.7-2.3,2-2.3s2.1.4,2.1,1.2v1.9c.8-1,1.7-1.9,2.9-2.6,1.2-.7,2.6-1.1,4.1-1.1,2.5,0,4.6.8,6.1,2.4,1.6,1.6,2.4,3.9,2.4,7v12.7c0,1.6-.7,2.4-2.2,2.4s-2.2-.8-2.2-2.4v-11.7c0-2.1-.5-3.6-1.4-4.7-.9-1.1-2.1-1.6-3.6-1.6s-3.1.6-4.1,1.7c-1.1,1.1-1.6,2.6-1.6,4.4v11.9c0,1.6-.7,2.4-2.2,2.4ZM144.1,45.8c-2.3,0-4-.4-5.1-1.3-1.2-.9-1.7-2.6-1.7-5.1v-14.2h-2.5c-1.6,0-2.3-.6-2.3-1.9s.2-1.1.5-1.4c.4-.3,1-.5,1.8-.5h2.5v-6.2c0-1.6.7-2.3,2.2-2.3s2.2.8,2.2,2.3v6.2h4.6c1.6,0,2.3.6,2.3,1.9s-.8,1.9-2.3,1.9h-4.6v13.2c0,1.3.3,2.2.8,2.6.6.4,1.5.6,2.6.6h.3c.9,0,1.6,0,2.2.2.6.1.9.6.9,1.5s-.5,1.6-1.4,1.8c-.9.3-1.9.4-3.1.4ZM178,45.3c-1.6,0-2.4-.5-2.4-1.4,0-2.5.7-4.8,2.1-7.1,1.4-2.3,3.5-4.7,6.2-7.2,1.1-1.1,2.2-2.2,3.1-3.2,1-1.1,1.8-2.2,2.4-3.2.6-1.1,1-2.1,1-3.1,0-2-.4-3.4-1.3-4.4-1-1-2.3-1.4-4.1-1.4s-2.3.4-3.1,1.1c-.8.7-1.4,1.7-1.6,3-.2.7-.5,1.3-.8,1.7-.3.4-.8.6-1.5.6s-1.2-.2-1.6-.6c-.4-.5-.5-1.1-.3-1.9.4-2.5,1.4-4.4,3-5.8,1.6-1.4,3.6-2.1,6-2.1s3.6.4,5.1,1.2c1.5.8,2.6,1.9,3.4,3.4.8,1.5,1.2,3.3,1.1,5.4,0,1.6-.4,3-1.1,4.4-.7,1.3-1.7,2.6-2.8,3.9-1.2,1.3-2.5,2.6-3.9,4-1.6,1.6-3.1,3.2-4.4,4.7-1.3,1.5-2.1,2.9-2.3,4.2h11.6c1.6,0,2.4.6,2.4,1.9s-.8,2-2.4,2h-13.8Z"/>
      </g>
    </mask>
  </defs>
  <!-- Generator: Adobe Illustrator 28.6.0, SVG Export Plug-In . SVG Version: 1.2.0 Build 709)  -->
  <g>
    <g id="_レイヤー_1" data-name="レイヤー_1">
      <g>
        <path class="cls-3" d="M22.7,45.3c-1.5,0-2.2-.8-2.2-2.4V12.8c0-1.6.8-2.3,2.3-2.3h13.2c3.3,0,5.8.8,7.6,2.3,1.8,1.5,2.7,3.9,2.7,7.3s-.9,5.8-2.7,7.4c-1.8,1.6-4.3,2.3-7.6,2.3h-11v13.2c0,1.6-.8,2.4-2.3,2.4ZM25,25.4h10.5c2,0,3.5-.4,4.5-1.2,1.1-.9,1.6-2.2,1.6-4.1s-.5-3.2-1.6-4c-1-.8-2.5-1.2-4.5-1.2h-10.5v10.6ZM64.9,45.8c-2.2,0-4.1-.5-5.9-1.5-1.7-1.1-3-2.5-4-4.4-1-1.9-1.4-4.1-1.4-6.6s.5-4.7,1.4-6.5c1-1.9,2.3-3.4,4-4.4,1.7-1.1,3.7-1.6,5.9-1.6s4.1.5,5.8,1.6c1.7,1,3.1,2.5,4,4.4,1,1.9,1.5,4,1.5,6.5s-.5,4.7-1.5,6.6c-1,1.9-2.3,3.4-4,4.4-1.7,1-3.6,1.5-5.8,1.5ZM64.9,41.7c2,0,3.7-.7,4.9-2.2,1.3-1.5,1.9-3.6,1.9-6.2s-.6-4.7-1.9-6.2c-1.3-1.5-2.9-2.2-4.9-2.2s-3.7.7-5,2.2c-1.3,1.5-1.9,3.5-1.9,6.2s.6,4.7,1.9,6.2c1.3,1.5,3,2.2,5,2.2ZM89.6,45.3c-1.5,0-2.2-.8-2.2-2.4v-19.2c0-1.6.7-2.3,2.2-2.3s2.2.8,2.2,2.3v19.2c0,1.6-.7,2.4-2.2,2.4ZM89.5,16.9c-.8,0-1.5-.3-2.1-.8-.6-.6-.8-1.3-.8-2.1s.3-1.5.8-2.1c.6-.6,1.3-.9,2.1-.9s1.5.3,2,.9c.6.6.9,1.3.9,2.1s-.3,1.5-.9,2.1c-.6.6-1.2.8-2,.8ZM106.4,45.3c-1.5,0-2.2-.8-2.2-2.4v-19.2c0-1.6.7-2.3,2-2.3s2.1.4,2.1,1.2v1.9c.8-1,1.7-1.9,2.9-2.6,1.2-.7,2.6-1.1,4.1-1.1,2.5,0,4.6.8,6.1,2.4,1.6,1.6,2.4,3.9,2.4,7v12.7c0,1.6-.7,2.4-2.2,2.4s-2.2-.8-2.2-2.4v-11.7c0-2.1-.5-3.6-1.4-4.7-.9-1.1-2.1-1.6-3.6-1.6s-3.1.6-4.1,1.7c-1.1,1.1-1.6,2.6-1.6,4.4v11.9c0,1.6-.7,2.4-2.2,2.4ZM144.1,45.8c-2.3,0-4-.4-5.1-1.3-1.2-.9-1.7-2.6-1.7-5.1v-14.2h-2.5c-1.6,0-2.3-.6-2.3-1.9s.2-1.1.5-1.4c.4-.3,1-.5,1.8-.5h2.5v-6.2c0-1.6.7-2.3,2.2-2.3s2.2.8,2.2,2.3v6.2h4.6c1.6,0,2.3.6,2.3,1.9s-.8,1.9-2.3,1.9h-4.6v13.2c0,1.3.3,2.2.8,2.6.6.4,1.5.6,2.6.6h.3c.9,0,1.6,0,2.2.2.6.1.9.6.9,1.5s-.5,1.6-1.4,1.8c-.9.3-1.9.4-3.1.4ZM178,45.3c-1.6,0-2.4-.5-2.4-1.4,0-2.5.7-4.8,2.1-7.1,1.4-2.3,3.5-4.7,6.2-7.2,1.1-1.1,2.2-2.2,3.1-3.2,1-1.1,1.8-2.2,2.4-3.2.6-1.1,1-2.1,1-3.1,0-2-.4-3.4-1.3-4.4-1-1-2.3-1.4-4.1-1.4s-2.3.4-3.1,1.1c-.8.7-1.4,1.7-1.6,3-.2.7-.5,1.3-.8,1.7-.3.4-.8.6-1.5.6s-1.2-.2-1.6-.6c-.4-.5-.5-1.1-.3-1.9.4-2.5,1.4-4.4,3-5.8,1.6-1.4,3.6-2.1,6-2.1s3.6.4,5.1,1.2c1.5.8,2.6,1.9,3.4,3.4.8,1.5,1.2,3.3,1.1,5.4,0,1.6-.4,3-1.1,4.4-.7,1.3-1.7,2.6-2.8,3.9-1.2,1.3-2.5,2.6-3.9,4-1.6,1.6-3.1,3.2-4.4,4.7-1.3,1.5-2.1,2.9-2.3,4.2h11.6c1.6,0,2.4.6,2.4,1.9s-.8,2-2.4,2h-13.8Z"/>
        <g class="cls-1">
          <path class="cls-2" d="M43.7,12.7l-1.6,1.9h0s0,0,0,0l1.6-1.9ZM43.7,27.4l-1.6-1.9h0s0,0,0,0l1.6,1.9ZM25,29.7v-2.5h-2.5v2.5h2.5ZM25,25.4h-2.5v2.5h2.5v-2.5ZM40,24.1l1.6,1.9h0s-1.6-1.9-1.6-1.9ZM40,16l-1.6,1.9h0s0,0,0,0l1.5-2ZM25,14.7v-2.5h-2.5v2.5h2.5ZM22.7,42.8c-.2,0-.2,0-.1,0,0,0,0,0,.1,0,0,0,.1,0,.2.1.1.1.1.2.1.2,0,0,0,0,0,0,0,0,0-.1,0-.2h-5c0,1.1.3,2.5,1.2,3.5,1,1.1,2.3,1.4,3.5,1.4v-5ZM23,42.9V12.8h-5v30.1h5ZM23,12.8c0-.2,0-.3,0-.2,0,0,0,0,0,0,0,0,0,0-.1.2,0,0-.1,0-.2.1,0,0,0,0,0,0,0,0,0,0,.2,0v-5c-1.2,0-2.5.3-3.5,1.3-1,1-1.3,2.4-1.3,3.5h5ZM22.8,12.9h13.2v-5h-13.2v5ZM36.1,12.9c2.9,0,4.8.7,6,1.7l3.2-3.8c-2.4-2-5.6-2.9-9.2-2.9v5ZM42.1,14.6c1.1.9,1.8,2.5,1.8,5.4h5c0-3.7-1-7-3.6-9.2l-3.2,3.8ZM43.9,20c0,2.9-.8,4.6-1.9,5.5l3.2,3.8c2.6-2.2,3.6-5.5,3.6-9.3h-5ZM42,25.5c-1.2,1-3.1,1.7-6,1.7v5c3.7,0,6.9-.9,9.2-2.9l-3.3-3.8ZM36.1,27.2h-11v5h11v-5ZM22.5,29.7v13.2h5v-13.2h-5ZM22.5,42.9c0,.2,0,.3,0,.3,0,0,0,0,0,0,0,0,0,0,.1-.1,0,0,.1,0,.2-.1,0,0,0,0,.1,0,0,0,0,0-.2,0v5c1.2,0,2.5-.3,3.5-1.4,1-1,1.3-2.4,1.3-3.5h-5ZM25,27.8h10.5v-5h-10.5v5ZM35.5,27.8c2.3,0,4.4-.5,6.1-1.8l-3.1-3.9c-.4.3-1.3.7-3,.7v5ZM41.6,26c1.8-1.5,2.5-3.7,2.5-6.1h-5c0,1.4-.4,2-.7,2.2l3.1,3.9ZM44.1,20c0-2.3-.7-4.5-2.5-6l-3.1,3.9c.3.2.6.7.6,2.1h5ZM41.6,14c-1.6-1.3-3.8-1.8-6.1-1.8v5c1.7,0,2.6.4,3,.7l3.1-3.9ZM35.5,12.2h-10.5v5h10.5v-5ZM22.5,14.7v10.6h5v-10.6h-5ZM59,44.3l-1.3,2.1h0s0,0,0,0l1.3-2.1ZM55,39.8l-2.2,1.1h0s0,0,0,0l2.2-1.2ZM55,26.8l-2.2-1.2h0s0,0,0,0l2.2,1.1ZM59,22.4l1.3,2.1h0s0,0,0,0l-1.3-2.1ZM70.7,22.4l-1.3,2.1h0s0,0,0,0l1.3-2.1ZM74.7,26.8l-2.2,1.1h0s0,0,0,0l2.2-1.2ZM74.7,39.8l-2.2-1.2h0s0,0,0,0l2.2,1.1ZM70.7,44.3l1.3,2.1h0s0,0,0,0l-1.3-2.1ZM69.8,39.5l-1.9-1.6h0s1.9,1.6,1.9,1.6ZM69.8,27.1l-1.9,1.6h0s0,0,0,0l1.9-1.6ZM59.9,27.1l-1.9-1.6h0s0,0,0,0l1.9,1.6ZM59.9,39.5l-1.9,1.6h0s0,0,0,0l1.9-1.6ZM64.9,43.3c-1.8,0-3.3-.4-4.6-1.2l-2.5,4.3c2.1,1.3,4.5,1.9,7.1,1.9v-5ZM60.3,42.2c-1.3-.8-2.3-1.9-3.2-3.5l-4.4,2.3c1.2,2.3,2.8,4.1,4.9,5.4l2.6-4.2ZM57.2,38.7c-.8-1.5-1.2-3.3-1.2-5.4h-5c0,2.8.5,5.4,1.7,7.7l4.4-2.3ZM56,33.3c0-2.2.4-3.9,1.2-5.4l-4.4-2.3c-1.2,2.3-1.7,4.9-1.7,7.7h5ZM57.2,27.9c.8-1.5,1.8-2.6,3.1-3.4l-2.6-4.3c-2.1,1.3-3.8,3.1-4.9,5.3l4.4,2.3ZM60.3,24.5c1.3-.8,2.8-1.2,4.6-1.2v-5c-2.6,0-5,.6-7.2,2l2.6,4.2ZM64.9,23.3c1.8,0,3.2.4,4.5,1.2l2.6-4.2c-2.1-1.3-4.5-2-7.1-2v5ZM69.4,24.5c1.3.8,2.3,1.9,3.1,3.4l4.4-2.3c-1.2-2.3-2.8-4.1-5-5.4l-2.5,4.3ZM72.5,27.9c.8,1.4,1.2,3.2,1.2,5.3h5c0-2.8-.6-5.4-1.8-7.7l-4.4,2.3ZM73.7,33.3c0,2.2-.4,3.9-1.2,5.4l4.4,2.3c1.2-2.3,1.8-4.9,1.8-7.7h-5ZM72.5,38.7c-.8,1.5-1.8,2.6-3.1,3.4l2.6,4.2c2.1-1.3,3.8-3.1,4.9-5.4l-4.4-2.3ZM69.4,42.1c-1.3.8-2.7,1.2-4.5,1.2v5c2.6,0,5-.6,7.1-1.9l-2.6-4.3ZM64.9,44.2c2.7,0,5.1-1,6.8-3.1l-3.8-3.2c-.8.9-1.7,1.4-3,1.4v5ZM71.7,41.1c1.8-2.1,2.5-4.8,2.5-7.8h-5c0,2.2-.5,3.7-1.4,4.6l3.8,3.2ZM74.2,33.3c0-3-.7-5.7-2.5-7.8l-3.8,3.3c.8.9,1.3,2.3,1.3,4.5h5ZM71.7,25.5c-1.8-2.1-4.1-3.1-6.8-3.1v5c1.3,0,2.3.4,3,1.4l3.8-3.2ZM64.9,22.4c-2.7,0-5.1,1-6.9,3.1l3.8,3.3c.8-.9,1.8-1.4,3.1-1.4v-5ZM58,25.5c-1.8,2.1-2.5,4.8-2.5,7.8h5c0-2.2.5-3.7,1.3-4.6l-3.8-3.2ZM55.5,33.3c0,3,.7,5.7,2.5,7.8l3.8-3.2c-.8-1-1.3-2.4-1.3-4.6h-5ZM58,41.1c1.8,2.1,4.1,3.1,6.9,3.1v-5c-1.3,0-2.3-.4-3.1-1.4l-3.8,3.3ZM87.4,16.1l-1.8,1.7h0c0,0,0,.1,0,.1l1.7-1.8ZM87.4,11.8l-1.8-1.8,1.8,1.8ZM91.6,11.8l-1.8,1.7h0c0,0,0,.1,0,.1l1.7-1.8ZM91.6,16.1l1.8,1.8h0s-1.8-1.8-1.8-1.8ZM89.6,42.8c-.2,0-.2,0-.1,0,0,0,0,0,.1,0,0,0,.1,0,.2.1.1.1.1.2.1.2,0,0,0,0,0,0,0,0,0-.1,0-.2h-5c0,1.1.3,2.5,1.2,3.5,1,1.1,2.3,1.4,3.5,1.4v-5ZM89.8,42.9v-19.2h-5v19.2h5ZM89.8,23.7c0-.2,0-.3,0-.3,0,0,0,.1-.2.2,0,0-.1,0-.2.1,0,0,0,0-.1,0,0,0,0,0,.2,0v-5c-1.2,0-2.5.3-3.5,1.4-1,1-1.3,2.3-1.3,3.5h5ZM89.6,23.9c.2,0,.2,0,.1,0,0,0,0,0-.1,0,0,0-.1,0-.2-.1-.1-.1-.1-.2-.1-.2,0,0,0,0,0,.3h5c0-1.1-.3-2.4-1.2-3.5-1-1.1-2.3-1.4-3.5-1.4v5ZM89.3,23.7v19.2h5v-19.2h-5ZM89.3,42.9c0,.2,0,.3,0,.3,0,0,0,0,0,0,0,0,0,0,.1-.1,0,0,.1-.1.2-.1,0,0,.1,0,.1,0,0,0,0,0-.1,0v5c1.2,0,2.5-.3,3.5-1.4.9-1,1.2-2.3,1.2-3.5h-5ZM89.5,14.4c-.2,0-.3,0-.4-.2l-3.4,3.6c1.1,1,2.4,1.5,3.8,1.5v-5ZM89.2,14.3c-.1-.1-.2-.2-.2-.4h-5c0,1.5.5,2.8,1.5,3.8l3.6-3.4ZM89,13.9c0-.2,0-.3.1-.3l-3.5-3.5c-1.1,1.1-1.6,2.4-1.6,3.8h5ZM89.2,13.6c.1-.1.2-.2.4-.2v-5c-1.5,0-2.8.6-3.9,1.6l3.5,3.5ZM89.5,13.4c0,0,.1,0,.1,0,0,0,0,0,.1.1l3.6-3.4c-1-1.1-2.3-1.7-3.8-1.7v5ZM89.9,13.6c0,0,0,.1,0,.1,0,0,0,0,0,.2h5c0-1.5-.6-2.9-1.7-3.9l-3.4,3.6ZM90,13.9c0,.2,0,.2-.2.4l3.5,3.5c1.1-1.1,1.6-2.4,1.6-3.9h-5ZM89.8,14.3c0,0-.1,0-.1,0,0,0,0,0-.2,0v5c1.5,0,2.8-.5,3.8-1.6l-3.5-3.5ZM108.3,22.6h-2.5c0,.1,0,.1,0,.1h0s2.5-.1,2.5-.1ZM108.4,24.5h-2.5c0,.1.4,7.3.4,7.3l4.1-5.9-2-1.4ZM111.2,21.9l-1.3-2.1h0s0,0,0,0l1.3,2.1ZM121.4,23.2l-1.8,1.7h0s0,0,0,0l1.8-1.8ZM118,26.5l-1.9,1.6h0s0,0,0,0l1.8-1.7ZM110.2,26.6l1.8,1.7h0s0,0,0,0l-1.8-1.7ZM106.4,42.8c-.2,0-.2,0-.1,0,0,0,0,0,.1,0,0,0,.1,0,.2.1.1.1.1.2.1.2,0,0,0,0,0,0,0,0,0-.1,0-.2h-5c0,1.1.3,2.5,1.2,3.5,1,1.1,2.3,1.4,3.5,1.4v-5ZM106.7,42.9v-19.2h-5v19.2h5ZM106.7,23.7c0-.2,0-.3,0-.3,0,0,0,0-.1.2-.1.1-.2.2-.3.3,0,0-.1,0,0,0v-5c-1.2,0-2.5.3-3.4,1.4-.9,1-1.1,2.3-1.1,3.4h5ZM106.2,23.9c.2,0,.4,0,.5,0,0,0,0,0,0,0-.1,0-.3-.2-.5-.5-.2-.3-.2-.5-.2-.7l5-.2c0-1.3-.7-2.4-1.8-3-.9-.5-1.9-.6-2.8-.6v5ZM105.9,22.7v1.9c0,0,5.1-.3,5.1-.3v-1.9c0,0-5.1.3-5.1.3ZM110.5,25.9c.5-.7,1.2-1.3,2.1-1.9l-2.6-4.2c-1.4.9-2.6,2-3.5,3.3l4.1,2.9ZM112.5,24c.8-.5,1.7-.7,2.8-.7v-5c-1.9,0-3.8.5-5.4,1.5l2.6,4.2ZM115.3,23.3c1.9,0,3.3.6,4.3,1.7l3.6-3.4c-2.1-2.2-4.8-3.2-7.9-3.2v5ZM119.7,25c1,1,1.7,2.6,1.7,5.2h5c0-3.5-.9-6.5-3.1-8.7l-3.5,3.5ZM121.3,30.2v12.7h5v-12.7h-5ZM121.3,42.9c0,.1,0,.2,0,.2,0,0,0,0,0,0,0,0,0-.1.1-.2,0,0,.1,0,.2-.1,0,0,0,0,.1,0,0,0,0,0-.1,0v5c1.2,0,2.5-.3,3.5-1.4,1-1,1.2-2.4,1.2-3.5h-5ZM121.6,42.8c-.1,0-.2,0-.1,0,0,0,0,0,.1,0,0,0,.1,0,.2.1,0,0,0,.1.1.1,0,0,0,0,0,0,0,0,0-.1,0-.3h-5c0,1.1.3,2.4,1.2,3.5,1,1.1,2.3,1.4,3.5,1.4v-5ZM121.9,42.9v-11.7h-5v11.7h5ZM121.9,31.1c0-2.4-.5-4.7-2-6.3l-3.7,3.3c.3.4.8,1.2.8,3h5ZM119.9,24.8c-1.4-1.6-3.3-2.4-5.5-2.4v5c.8,0,1.3.3,1.8.7l3.7-3.3ZM114.4,22.4c-2.3,0-4.4.8-5.9,2.5l3.6,3.4c.5-.6,1.2-.9,2.3-.9v-5ZM108.4,24.8c-1.6,1.7-2.3,3.8-2.3,6.2h5c0-1.4.4-2.2.9-2.7l-3.6-3.5ZM106.2,31v11.9h5v-11.9h-5ZM106.2,42.9c0,.1,0,.2,0,.2,0,0,0,0,0,0,0,0,0-.1.1-.2,0,0,.1,0,.2-.1,0,0,0,0,.1,0,0,0,0,0-.1,0v5c1.2,0,2.5-.3,3.5-1.4,1-1,1.2-2.4,1.2-3.5h-5ZM139,44.5l-1.5,2h0s0,0,0,0l1.5-2ZM137.2,25.3h2.5v-2.5h-2.5v2.5ZM132.9,21.9l1.7,1.8h0s0,0,0,0l-1.7-1.8ZM137.2,21.4v2.5h2.5v-2.5h-2.5ZM141.7,21.4h-2.5v2.5h2.5v-2.5ZM141.7,25.3v-2.5h-2.5v2.5h2.5ZM142.5,41.1l-1.6,1.9h0c0,0,0,0,0,0l1.5-2ZM147.7,42l-.7,2.4h0s0,0,0,0l.5-2.4ZM147.2,45.4l-.6-2.4h0s0,0,0,0l.7,2.4ZM144.1,43.3c-2,0-3.1-.4-3.6-.8l-3,4c1.8,1.3,4.1,1.8,6.6,1.8v-5ZM140.5,42.5c-.2-.2-.8-.9-.8-3.1h-5c0,2.7.6,5.4,2.7,7l3-3.9ZM139.7,39.4v-14.2h-5v14.2h5ZM137.2,22.8h-2.5v5h2.5v-5ZM134.7,22.8c-.2,0-.3,0-.4,0,0,0,0,0,.2.1.1.1.2.3.3.4,0,.1,0,.2,0,0h-5c0,1.2.4,2.4,1.5,3.4,1,.8,2.3,1.1,3.3,1.1v-5ZM134.9,23.3c0-.1,0-.1,0,0,0,.1-.1.3-.3.5l-3.3-3.7c-1.1,1-1.3,2.3-1.3,3.3h5ZM134.6,23.7c-.2.2-.3.2-.3.2,0,0,0,0,.1,0,0,0,.2,0,.3,0v-5c-1.1,0-2.5.2-3.5,1.1l3.3,3.7ZM134.7,23.9h2.5v-5h-2.5v5ZM139.7,21.4v-6.2h-5v6.2h5ZM139.7,15.2c0-.2,0-.3,0-.3,0,0,0,.1-.2.2,0,0-.1,0-.2.1,0,0,0,0-.1,0,0,0,0,0,.2,0v-5c-1.2,0-2.5.3-3.5,1.4-1,1-1.3,2.3-1.3,3.5h5ZM139.5,15.3c.2,0,.2,0,.1,0,0,0,0,0-.1,0,0,0-.1,0-.2-.1-.1-.1-.1-.2-.1-.2,0,0,0,0,0,.3h5c0-1.1-.3-2.4-1.2-3.5-1-1.1-2.3-1.4-3.5-1.4v5ZM139.2,15.2v6.2h5v-6.2h-5ZM141.7,23.9h4.6v-5h-4.6v5ZM146.2,23.9c.2,0,.3,0,.4,0,0,0,0,0-.2-.1-.1-.1-.2-.3-.3-.4,0-.1,0-.2,0,0h5c0-1.2-.4-2.4-1.5-3.4-1-.8-2.3-1.1-3.3-1.1v5ZM146.1,23.3c0,0,0,0,0,0,0-.1.1-.3.3-.4.1-.1.2-.1.2-.1,0,0-.1,0-.4,0v5c1.1,0,2.3-.2,3.3-1.1,1.1-.9,1.5-2.2,1.5-3.4h-5ZM146.2,22.8h-4.6v5h4.6v-5ZM139.2,25.3v13.2h5v-13.2h-5ZM139.2,38.5c0,1.5.3,3.4,1.8,4.6l3.2-3.8c.2.1.2.3.2.2,0-.1,0-.4,0-.9h-5ZM141.1,43.1c1.2.9,2.7,1.1,4.1,1.1v-5c-.4,0-.7,0-.9,0-.2,0-.3,0-.2,0l-2.9,4ZM145.1,44.3h.3v-5h-.3v5ZM145.4,44.3c.8,0,1.3,0,1.6.2l1.3-4.8c-.9-.2-1.9-.3-2.9-.3v5ZM147.1,44.5c-.1,0-.3-.1-.5-.2-.2-.1-.3-.3-.4-.5-.2-.3-.1-.4-.1-.2h5c0-.7-.1-1.5-.6-2.3-.5-.9-1.3-1.5-2.3-1.7l-1.1,4.9ZM146.1,43.6c0,.1,0,0,.2-.3.2-.2.4-.3.3-.3l1.2,4.8c.9-.2,1.8-.7,2.4-1.5.6-.9.9-1.8.9-2.7h-5ZM146.5,43c-.6.2-1.4.3-2.4.3v5c1.3,0,2.6-.2,3.8-.5l-1.4-4.8ZM177.7,36.8l-2.1-1.3h0s0,0,0,0l2.1,1.3ZM183.9,29.6l1.7,1.8h0s0,0,0,0l-1.7-1.8ZM187.1,26.4l-1.8-1.7h0s1.8,1.7,1.8,1.7ZM189.5,23.1l-2.1-1.3,2.1,1.3ZM190.5,20h-2.5c0,0,0,0,0,0h2.5ZM189.1,15.7l-1.8,1.8,1.8-1.8ZM182,15.3l1.6,1.9h0s0,0,0,0l-1.6-1.9ZM180.3,18.3l2.4.7h0c0,0,0-.2,0-.2l-2.4-.5ZM179.5,20l1.9,1.6h0l-1.9-1.6ZM176.4,20l-2,1.5h0c0,0,0,.2,0,.2l1.8-1.7ZM176.1,18.1l-2.4-.4h0s0,0,0,0l2.5.4ZM179.1,12.3l-1.6-1.9h0s0,0,0,0l1.7,1.9ZM190.1,11.3l-1.2,2.2h0s0,0,0,0l1.1-2.2ZM193.6,14.7l-2.2,1.2h0s0,0,0,0l2.2-1.2ZM194.7,20.1h-2.5c0,0,0,0,0,0h0s2.5,0,2.5,0ZM193.6,24.5l2.2,1.2h0s0,0,0,0l-2.2-1.2ZM186.9,32.4l-1.7-1.8h0s0,0,0,0l1.8,1.7ZM182.5,37.1l-1.9-1.6h0s1.9,1.6,1.9,1.6ZM180.2,41.3l-2.5-.4-.5,2.9h3v-2.5ZM178,42.8c-.3,0-.5,0-.6,0-.1,0,0,0,0,0,.1,0,.3.2.5.5.1.3.2.5.2.6h-5c0,1.3.7,2.5,1.8,3.2,1,.6,2.1.7,3,.7v-5ZM178.1,43.9c0-2,.5-3.9,1.7-5.8l-4.2-2.6c-1.6,2.6-2.5,5.4-2.5,8.4h5ZM179.8,38.1c1.3-2,3.2-4.3,5.8-6.7l-3.4-3.6c-2.8,2.6-5,5.2-6.6,7.7l4.2,2.7ZM185.6,31.4c1.2-1.1,2.2-2.2,3.2-3.3l-3.7-3.3c-.9,1-1.9,2.1-3,3.1l3.5,3.6ZM188.9,28c1.1-1.2,2-2.4,2.7-3.6l-4.3-2.5c-.5.9-1.2,1.8-2.1,2.8l3.7,3.3ZM191.6,24.4c.8-1.3,1.3-2.8,1.3-4.3l-5-.2c0,.5-.2,1.1-.6,1.9l4.3,2.5ZM193,20.1c0-2.3-.4-4.6-2.1-6.2l-3.5,3.5c.3.3.7,1,.6,2.5l5,.2ZM190.9,13.9c-1.6-1.6-3.6-2.2-5.8-2.2v5c1.3,0,2,.3,2.3.7l3.5-3.5ZM185.1,11.7c-1.8,0-3.4.5-4.7,1.7l3.3,3.7c.3-.3.7-.5,1.4-.5v-5ZM180.4,13.4c-1.4,1.1-2.1,2.7-2.5,4.5l4.9,1c.2-.9.5-1.4.8-1.6l-3.2-3.8ZM177.9,17.7c-.1.5-.3.7-.3.8l3.8,3.2c.6-.8,1-1.7,1.3-2.6l-4.8-1.3ZM177.6,18.4c0,0,.1-.1.2-.2,0,0,.1,0,.2-.1,0,0,.1,0,0,0v5c1.2,0,2.5-.3,3.5-1.5l-3.8-3.2ZM178,18.1c0,0,0,0,0,0,0,0,0,0,.1,0,0,0,0,0,0,0l-3.7,3.4c.9,1,2.2,1.4,3.4,1.4v-5ZM178.4,18.4c0,0,0,.1,0,.2,0,0,0,0,0,.1,0,0,0,0,0-.2l-4.9-.8c-.2,1.2,0,2.6.8,3.8l3.9-3.1ZM178.5,18.5c.4-2,1.1-3.4,2.2-4.4l-3.3-3.7c-2.1,1.9-3.3,4.3-3.8,7.2l4.9.9ZM180.7,14.1c1.1-1,2.5-1.5,4.3-1.5v-5c-2.9,0-5.5.9-7.6,2.8l3.3,3.7ZM185.1,12.6c1.6,0,2.8.3,3.9.9l2.4-4.4c-1.9-1-4-1.5-6.3-1.5v5ZM189,13.5c1,.5,1.8,1.3,2.4,2.3l4.4-2.3c-1-1.9-2.5-3.4-4.5-4.4l-2.3,4.4ZM191.4,15.9c.6,1,.9,2.4.8,4.1l5,.2c0-2.5-.4-4.7-1.5-6.7l-4.3,2.4ZM192.2,20.1c0,1.2-.3,2.2-.8,3.3l4.4,2.4c.9-1.7,1.4-3.6,1.4-5.5h-5ZM191.4,23.3c-.6,1.1-1.4,2.3-2.5,3.4l3.7,3.4c1.3-1.4,2.3-2.8,3.2-4.4l-4.4-2.4ZM188.9,26.7c-1.1,1.2-2.4,2.5-3.8,3.9l3.5,3.6c1.5-1.4,2.8-2.8,4-4.1l-3.7-3.4ZM185.1,30.6c-1.6,1.7-3.1,3.3-4.5,4.8l3.8,3.3c1.3-1.5,2.7-3,4.3-4.6l-3.6-3.5ZM180.6,35.5c-1.5,1.7-2.5,3.5-2.9,5.4l4.9.9c.1-.7.6-1.7,1.7-3l-3.8-3.3ZM180.2,43.8h11.6v-5h-11.6v5ZM191.8,43.8c.2,0,.4,0,.4,0,0,0,0,0-.2-.1-.1-.1-.2-.2-.3-.4,0-.1,0-.2,0,0h5c0-1.2-.4-2.5-1.5-3.4-1-.8-2.3-1-3.4-1v5ZM191.7,43.3c0,0,0,0,0,0,0-.1.1-.3.3-.4.1,0,.2-.1.2-.1,0,0-.1,0-.4,0v5c1.1,0,2.4-.2,3.4-1.1,1.1-.9,1.5-2.2,1.5-3.4h-5ZM191.8,42.8h-13.8v5h13.8v-5Z"/>
        </g>
      </g>
    </g>
  </g>
</svg>