<?xml version="1.0" encoding="UTF-8"?>
<svg xmlns="http://www.w3.org/2000/svg" xmlns:xlink="http://www.w3.org/1999/xlink" version="1.1" viewBox="0 0 212 45">
  <defs>
    <style>
      .cls-1 {
        mask: url(#mask);
      }

      .cls-2 {
        fill: #a9b527;
      }

      .cls-3 {
        fill: #fff;
      }
    </style>
    <mask id="mask" x="19.3" y="3.6" width="167.4" height="38.4" maskUnits="userSpaceOnUse">
      <g id="path-1-outside-1_759_728">
        <rect class="cls-3" x="19.3" y="3.6" width="167.4" height="38.4"/>
        <path d="M24.2,38.9c-1.4,0-2.1-.7-2.1-2.2V8.8c0-1.4.7-2.2,2.2-2.2h12.3c3,0,5.4.7,7,2.1,1.7,1.4,2.5,3.7,2.5,6.7s-.8,5.4-2.5,6.8c-1.7,1.4-4,2.2-7,2.2h-10.2v12.2c0,1.5-.7,2.2-2.1,2.2ZM26.3,20.5h9.7c1.8,0,3.2-.4,4.2-1.2,1-.8,1.5-2.1,1.5-3.8s-.5-3-1.5-3.7c-1-.8-2.3-1.2-4.2-1.2h-9.7v9.9ZM63.2,39.4c-2,0-3.8-.5-5.4-1.4-1.6-1-2.8-2.3-3.7-4.1-.9-1.8-1.3-3.8-1.3-6.1s.4-4.3,1.3-6c.9-1.8,2.2-3.1,3.7-4.1,1.6-1,3.4-1.5,5.4-1.5s3.8.5,5.4,1.5c1.6,1,2.8,2.3,3.7,4.1.9,1.7,1.4,3.7,1.4,6s-.5,4.3-1.4,6.1c-.9,1.8-2.1,3.1-3.7,4.1-1.6,1-3.4,1.4-5.4,1.4ZM63.2,35.7c1.9,0,3.4-.7,4.6-2.1,1.2-1.4,1.8-3.3,1.8-5.8s-.6-4.3-1.8-5.7c-1.2-1.4-2.7-2.1-4.6-2.1s-3.4.7-4.6,2.1c-1.2,1.4-1.8,3.3-1.8,5.7s.6,4.3,1.8,5.8c1.2,1.4,2.7,2.1,4.6,2.1ZM86.1,38.9c-1.4,0-2.1-.7-2.1-2.2v-17.7c0-1.4.7-2.2,2.1-2.2s2,.7,2,2.2v17.7c0,1.5-.7,2.2-2,2.2ZM86.1,12.7c-.8,0-1.4-.3-2-.8-.5-.6-.8-1.2-.8-2s.3-1.4.8-1.9c.6-.6,1.2-.8,2-.8s1.4.3,1.9.8c.6.5.8,1.2.8,1.9s-.3,1.4-.8,2c-.5.5-1.2.8-1.9.8ZM101.7,38.9c-1.4,0-2.1-.7-2.1-2.2v-17.7c0-1.4.6-2.2,1.9-2.2s2,.4,2,1.1v1.8c.7-.9,1.6-1.7,2.7-2.4,1.1-.7,2.4-1,3.8-1,2.3,0,4.2.8,5.7,2.3,1.5,1.5,2.2,3.6,2.2,6.5v11.7c0,1.5-.7,2.2-2.1,2.2s-2-.7-2-2.2v-10.9c0-1.9-.4-3.4-1.3-4.3-.9-1-2-1.5-3.4-1.5s-2.8.5-3.8,1.6c-1,1-1.5,2.4-1.5,4.1v11c0,1.5-.7,2.2-2.1,2.2ZM136.6,39.4c-2.1,0-3.7-.4-4.7-1.2-1.1-.8-1.6-2.4-1.6-4.7v-13.1h-2.3c-1.4,0-2.2-.6-2.2-1.8s.2-1.1.5-1.3c.3-.3.9-.5,1.7-.5h2.3v-5.8c0-1.4.7-2.2,2.1-2.2s2,.7,2,2.2v5.8h4.2c1.4,0,2.2.6,2.2,1.8s-.7,1.8-2.2,1.8h-4.2v12.3c0,1.2.3,2,.8,2.4.6.4,1.4.6,2.4.6h.3c.8,0,1.5,0,2.1.2.6.1.8.6.8,1.4s-.4,1.5-1.3,1.7c-.8.2-1.8.4-2.9.4ZM174.4,39.4c-1.8,0-3.4-.4-4.8-1.2-1.4-.9-2.4-2-3.2-3.5-.4-.7-.5-1.2-.3-1.7.2-.5.6-.8,1.2-1.1.6-.2,1.1-.2,1.5,0s.8.6,1.2,1.1c.4.7,1,1.4,1.7,1.8.7.5,1.6.7,2.6.7,1.8,0,3.3-.5,4.3-1.4,1-1,1.6-2.4,1.6-4.4s-.6-3.3-1.7-4.4c-1.1-1.1-2.6-1.7-4.5-1.7s-1.9-.6-1.9-1.8.6-1.8,1.9-1.8,3.1-.5,4-1.5c.9-1,1.4-2.3,1.4-3.9s-.5-3-1.6-3.7c-1-.7-2.2-1.1-3.5-1.1s-1.7.2-2.3.7c-.6.5-1.2,1.1-1.6,1.8-.4.5-.8.9-1.2,1.1-.4.2-.9.2-1.5,0-.6-.2-1-.6-1.1-1.1s0-1,.4-1.7c.9-1.5,2-2.6,3.3-3.4,1.3-.8,2.7-1.2,4.2-1.2,2.7,0,4.9.8,6.5,2.3,1.7,1.5,2.5,3.6,2.5,6.2s-.4,3.1-1.3,4.4c-.9,1.3-2,2.2-3.4,2.9,1.6.6,2.9,1.6,4,3,1,1.4,1.5,3.1,1.5,5,0,2.8-.8,5.1-2.5,6.8-1.7,1.8-4.1,2.6-7.3,2.6Z"/>
      </g>
    </mask>
  </defs>
  <!-- Generator: Adobe Illustrator 28.6.0, SVG Export Plug-In . SVG Version: 1.2.0 Build 709)  -->
  <g>
    <g id="_レイヤー_1" data-name="レイヤー_1">
      <path class="cls-3" d="M24.2,38.9c-1.4,0-2.1-.7-2.1-2.2V8.8c0-1.4.7-2.2,2.2-2.2h12.3c3,0,5.4.7,7,2.1,1.7,1.4,2.5,3.7,2.5,6.7s-.8,5.4-2.5,6.8c-1.7,1.4-4,2.2-7,2.2h-10.2v12.2c0,1.5-.7,2.2-2.1,2.2ZM26.3,20.5h9.7c1.8,0,3.2-.4,4.2-1.2,1-.8,1.5-2.1,1.5-3.8s-.5-3-1.5-3.7c-1-.8-2.3-1.2-4.2-1.2h-9.7v9.9ZM63.2,39.4c-2,0-3.8-.5-5.4-1.4-1.6-1-2.8-2.3-3.7-4.1-.9-1.8-1.3-3.8-1.3-6.1s.4-4.3,1.3-6c.9-1.8,2.2-3.1,3.7-4.1,1.6-1,3.4-1.5,5.4-1.5s3.8.5,5.4,1.5c1.6,1,2.8,2.3,3.7,4.1.9,1.7,1.4,3.7,1.4,6s-.5,4.3-1.4,6.1c-.9,1.8-2.1,3.1-3.7,4.1-1.6,1-3.4,1.4-5.4,1.4ZM63.2,35.7c1.9,0,3.4-.7,4.6-2.1,1.2-1.4,1.8-3.3,1.8-5.8s-.6-4.3-1.8-5.7c-1.2-1.4-2.7-2.1-4.6-2.1s-3.4.7-4.6,2.1c-1.2,1.4-1.8,3.3-1.8,5.7s.6,4.3,1.8,5.8c1.2,1.4,2.7,2.1,4.6,2.1ZM86.1,38.9c-1.4,0-2.1-.7-2.1-2.2v-17.7c0-1.4.7-2.2,2.1-2.2s2,.7,2,2.2v17.7c0,1.5-.7,2.2-2,2.2ZM86.1,12.7c-.8,0-1.4-.3-2-.8-.5-.6-.8-1.2-.8-2s.3-1.4.8-1.9c.6-.6,1.2-.8,2-.8s1.4.3,1.9.8c.6.5.8,1.2.8,1.9s-.3,1.4-.8,2c-.5.5-1.2.8-1.9.8ZM101.7,38.9c-1.4,0-2.1-.7-2.1-2.2v-17.7c0-1.4.6-2.2,1.9-2.2s2,.4,2,1.1v1.8c.7-.9,1.6-1.7,2.7-2.4,1.1-.7,2.4-1,3.8-1,2.3,0,4.2.8,5.7,2.3,1.5,1.5,2.2,3.6,2.2,6.5v11.7c0,1.5-.7,2.2-2.1,2.2s-2-.7-2-2.2v-10.9c0-1.9-.4-3.4-1.3-4.3-.9-1-2-1.5-3.4-1.5s-2.8.5-3.8,1.6c-1,1-1.5,2.4-1.5,4.1v11c0,1.5-.7,2.2-2.1,2.2ZM136.6,39.4c-2.1,0-3.7-.4-4.7-1.2-1.1-.8-1.6-2.4-1.6-4.7v-13.1h-2.3c-1.4,0-2.2-.6-2.2-1.8s.2-1.1.5-1.3c.3-.3.9-.5,1.7-.5h2.3v-5.8c0-1.4.7-2.2,2.1-2.2s2,.7,2,2.2v5.8h4.2c1.4,0,2.2.6,2.2,1.8s-.7,1.8-2.2,1.8h-4.2v12.3c0,1.2.3,2,.8,2.4.6.4,1.4.6,2.4.6h.3c.8,0,1.5,0,2.1.2.6.1.8.6.8,1.4s-.4,1.5-1.3,1.7c-.8.2-1.8.4-2.9.4ZM174.4,39.4c-1.8,0-3.4-.4-4.8-1.2-1.4-.9-2.4-2-3.2-3.5-.4-.7-.5-1.2-.3-1.7.2-.5.6-.8,1.2-1.1.6-.2,1.1-.2,1.5,0s.8.6,1.2,1.1c.4.7,1,1.4,1.7,1.8.7.5,1.6.7,2.6.7,1.8,0,3.3-.5,4.3-1.4,1-1,1.6-2.4,1.6-4.4s-.6-3.3-1.7-4.4c-1.1-1.1-2.6-1.7-4.5-1.7s-1.9-.6-1.9-1.8.6-1.8,1.9-1.8,3.1-.5,4-1.5c.9-1,1.4-2.3,1.4-3.9s-.5-3-1.6-3.7c-1-.7-2.2-1.1-3.5-1.1s-1.7.2-2.3.7c-.6.5-1.2,1.1-1.6,1.8-.4.5-.8.9-1.2,1.1-.4.2-.9.2-1.5,0-.6-.2-1-.6-1.1-1.1s0-1,.4-1.7c.9-1.5,2-2.6,3.3-3.4,1.3-.8,2.7-1.2,4.2-1.2,2.7,0,4.9.8,6.5,2.3,1.7,1.5,2.5,3.6,2.5,6.2s-.4,3.1-1.3,4.4c-.9,1.3-2,2.2-3.4,2.9,1.6.6,2.9,1.6,4,3,1,1.4,1.5,3.1,1.5,5,0,2.8-.8,5.1-2.5,6.8-1.7,1.8-4.1,2.6-7.3,2.6Z"/>
      <g class="cls-1">
        <path class="cls-2" d="M43.6,8.8l-1.5,1.8h0s0,0,0,0l1.5-1.8ZM43.6,22.3l-1.5-1.8h0s0,0,0,0l1.5,1.7ZM26.3,24.5v-2.3h-2.3v2.3h2.3ZM26.3,20.5h-2.3v2.3h2.3v-2.3ZM40.3,19.3l1.4,1.8h0s-1.5-1.8-1.5-1.8ZM40.3,11.8l-1.4,1.8h0s0,0,0,0l1.4-1.8ZM26.3,10.6v-2.3h-2.3v2.3h2.3ZM24.2,36.6c-.1,0-.2,0-.1,0,0,0,0,0,.1,0,0,0,.1,0,.1.1,0,.1.1.2.1.2,0,0,0,0,0,0,0,0,0-.1,0-.2h-4.6c0,1.1.2,2.3,1.1,3.2.9,1,2.2,1.3,3.2,1.3v-4.6ZM24.5,36.7V8.8h-4.6v27.9h4.6ZM24.5,8.8c0-.2,0-.2,0-.2,0,0,0,0,0,0,0,0,0,0-.1.1,0,0,0,0-.1.1,0,0,0,0,0,0,0,0,0,0,.2,0v-4.6c-1.1,0-2.3.3-3.3,1.2-.9.9-1.2,2.2-1.2,3.3h4.6ZM24.3,9h12.3v-4.6h-12.3v4.6ZM36.6,9c2.7,0,4.5.6,5.6,1.6l3-3.5c-2.2-1.9-5.2-2.7-8.5-2.7v4.6ZM42.1,10.6c1,.8,1.7,2.3,1.7,5h4.6c0-3.5-1-6.5-3.4-8.5l-3,3.5ZM43.9,15.5c0,2.7-.7,4.2-1.7,5.1l3,3.5c2.4-2,3.3-5.1,3.3-8.6h-4.6ZM42.1,20.6c-1.1,1-2.8,1.6-5.5,1.6v4.6c3.4,0,6.3-.8,8.6-2.7l-3-3.5ZM36.6,22.2h-10.2v4.6h10.2v-4.6ZM24,24.5v12.2h4.6v-12.2h-4.6ZM24,36.7c0,.2,0,.3,0,.3,0,0,0,0,0,0,0,0,0,0,.1-.1,0,0,0,0,.1-.1,0,0,0,0,.1,0,0,0,0,0-.2,0v4.6c1.1,0,2.3-.3,3.3-1.3.9-1,1.2-2.2,1.2-3.3h-4.6ZM26.3,22.8h9.7v-4.6h-9.7v4.6ZM36.1,22.8c2.1,0,4.1-.4,5.6-1.7l-2.9-3.6c-.4.3-1.2.6-2.7.6v4.6ZM41.7,21.1c1.7-1.4,2.3-3.4,2.3-5.6h-4.6c0,1.3-.4,1.8-.6,2l2.9,3.6ZM44,15.5c0-2.1-.6-4.2-2.4-5.5l-2.8,3.6c.2.2.6.6.6,1.9h4.6ZM41.7,10c-1.5-1.2-3.5-1.7-5.6-1.7v4.6c1.6,0,2.4.3,2.7.6l2.9-3.6ZM36.1,8.3h-9.7v4.6h9.7v-4.6ZM24,10.6v9.9h4.6v-9.9h-4.6ZM57.8,38l-1.2,2h0s0,0,0,0l1.2-2ZM54.1,33.9l-2.1,1h0s0,0,0,0l2-1.1ZM54.1,21.8l-2-1.1h0s0,0,0,0l2,1.1ZM57.8,17.7l1.2,2h0s0,0,0,0l-1.2-2ZM68.6,17.7l-1.2,2h0s0,0,0,0l1.2-2ZM72.4,21.8l-2.1,1h0s0,0,0,0l2-1.1ZM72.4,33.9l-2-1.1h0s0,0,0,0l2.1,1ZM68.6,38l1.2,2h0s0,0,0,0l-1.2-2ZM67.8,33.6l-1.8-1.5h0s1.8,1.5,1.8,1.5ZM67.8,22.1l-1.8,1.5h0s0,0,0,0l1.7-1.5ZM58.6,22.1l-1.7-1.5h0s0,0,0,0l1.8,1.5ZM58.6,33.6l-1.8,1.5h0s0,0,0,0l1.7-1.5ZM63.2,37.1c-1.7,0-3-.4-4.3-1.1l-2.4,4c2,1.2,4.2,1.8,6.6,1.8v-4.6ZM59,36.1c-1.2-.8-2.2-1.8-2.9-3.2l-4.1,2.1c1.1,2.1,2.6,3.8,4.5,5l2.4-3.9ZM56.1,32.9c-.7-1.4-1.1-3-1.1-5h-4.6c0,2.6.5,5,1.6,7.1l4.1-2.1ZM55,27.8c0-2,.4-3.6,1.1-5l-4.1-2.1c-1.1,2.1-1.6,4.5-1.6,7.1h4.6ZM56.1,22.9c.7-1.4,1.7-2.4,2.9-3.2l-2.4-3.9c-2,1.2-3.5,2.9-4.6,5l4.1,2.1ZM59,19.7c1.2-.7,2.6-1.1,4.2-1.1v-4.6c-2.4,0-4.7.6-6.6,1.8l2.4,3.9ZM63.2,18.6c1.6,0,3,.4,4.2,1.1l2.4-3.9c-2-1.2-4.2-1.8-6.6-1.8v4.6ZM67.4,19.7c1.2.7,2.2,1.7,2.9,3.1l4.1-2.1c-1.1-2.1-2.6-3.8-4.6-5l-2.4,4ZM70.3,22.9c.7,1.3,1.1,3,1.1,4.9h4.6c0-2.6-.5-5-1.7-7.1l-4.1,2.2ZM71.4,27.8c0,2-.4,3.6-1.1,5l4.1,2.1c1.1-2.1,1.6-4.5,1.6-7.2h-4.6ZM70.3,32.9c-.7,1.4-1.7,2.4-2.9,3.2l2.4,3.9c2-1.2,3.5-2.9,4.6-5l-4.1-2.1ZM67.4,36c-1.2.7-2.5,1.1-4.2,1.1v4.6c2.4,0,4.6-.6,6.6-1.8l-2.4-3.9ZM63.2,38c2.5,0,4.7-1,6.3-2.9l-3.5-3c-.7.8-1.6,1.3-2.8,1.3v4.6ZM69.6,35.1c1.6-1.9,2.3-4.4,2.3-7.2h-4.6c0,2.1-.5,3.4-1.3,4.3l3.5,3ZM71.9,27.8c0-2.8-.7-5.3-2.4-7.2l-3.5,3c.7.8,1.2,2.1,1.2,4.2h4.6ZM69.6,20.6c-1.6-1.9-3.8-2.9-6.3-2.9v4.6c1.2,0,2.1.4,2.8,1.3l3.5-3ZM63.2,17.7c-2.5,0-4.7,1-6.3,2.9l3.5,3c.7-.9,1.6-1.3,2.9-1.3v-4.6ZM56.9,20.6c-1.6,1.9-2.3,4.4-2.3,7.2h4.6c0-2.1.5-3.4,1.2-4.2l-3.5-3ZM54.6,27.8c0,2.8.7,5.3,2.3,7.2l3.6-2.9c-.7-.9-1.2-2.2-1.2-4.3h-4.6ZM56.9,35.1c1.6,1.9,3.8,2.9,6.3,2.9v-4.6c-1.2,0-2.1-.4-2.9-1.3l-3.5,3ZM84.1,11.9l-1.7,1.6h0s0,0,0,0l1.6-1.7ZM84.1,8l-1.6-1.6,1.6,1.6ZM88,8l-1.7,1.6h0s0,0,0,0l1.6-1.7ZM88,11.9l1.6,1.6h0l-1.6-1.6ZM86.1,36.6c-.1,0-.2,0-.1,0,0,0,0,0,.1,0,0,0,.1,0,.1.1,0,.1.1.2.1.2,0,0,0,0,0,0,0,0,0-.1,0-.2h-4.6c0,1.1.2,2.3,1.1,3.2.9,1,2.2,1.3,3.2,1.3v-4.6ZM86.4,36.7v-17.7h-4.6v17.7h4.6ZM86.4,19c0-.2,0-.3,0-.2,0,0,0,.1-.1.2,0,0,0,0-.1.1,0,0,0,0-.1,0,0,0,0,0,.1,0v-4.6c-1.1,0-2.3.3-3.2,1.3-.9.9-1.2,2.2-1.2,3.2h4.6ZM86.1,19.1c.1,0,.2,0,.1,0,0,0,0,0-.1,0,0,0-.1,0-.2-.1-.1-.1-.1-.2-.1-.2,0,0,0,0,0,.3h4.6c0-1-.2-2.2-1.1-3.2-.9-1-2.1-1.3-3.2-1.3v4.6ZM85.9,19v17.7h4.6v-17.7h-4.6ZM85.9,36.7c0,.2,0,.3,0,.3,0,0,0,0,0,0,0,0,0,0,0-.1,0,0,0,0,.2-.1,0,0,0,0,.1,0,0,0,0,0,0,0v4.6c1.1,0,2.3-.3,3.2-1.3.9-1,1.1-2.2,1.1-3.2h-4.6ZM86.1,10.4c-.2,0-.3,0-.4-.2l-3.2,3.3c1,.9,2.2,1.4,3.6,1.4v-4.6ZM85.8,10.3c-.1-.1-.2-.2-.2-.4h-4.6c0,1.3.5,2.6,1.4,3.6l3.3-3.2ZM85.6,9.9c0-.2,0-.2.1-.3l-3.3-3.3c-1,1-1.5,2.2-1.5,3.6h4.6ZM85.7,9.6c.1-.1.2-.2.4-.2v-4.6c-1.4,0-2.6.5-3.6,1.5l3.3,3.3ZM86.1,9.4c0,0,0,0,0,0,0,0,0,0,.1,0l3.3-3.2c-.9-1-2.2-1.6-3.6-1.6v4.6ZM86.4,9.6c0,0,0,0,0,.1,0,0,0,0,0,.2h4.6c0-1.4-.5-2.6-1.6-3.6l-3.2,3.3ZM86.5,9.9c0,.1,0,.2-.2.4l3.3,3.3c1-1,1.5-2.2,1.5-3.6h-4.6ZM86.4,10.3c0,0-.1,0-.1,0,0,0,0,0-.1,0v4.6c1.3,0,2.6-.5,3.5-1.5l-3.3-3.3ZM103.5,17.9h-2.3c0,0,0,.1,0,.1h0s2.3-.1,2.3-.1ZM103.6,19.7h-2.3c0,.1.4,6.8.4,6.8l3.8-5.5-1.9-1.3ZM106.2,17.3l-1.2-2h0s0,0,0,0l1.2,2ZM115.6,18.5l-1.7,1.6h0s0,0,0,0l1.6-1.6ZM112.4,21.5l-1.7,1.5h0s0,0,0,0l1.7-1.5ZM105.3,21.6l1.7,1.6h0s0,0,0,0l-1.7-1.6ZM101.7,36.6c-.1,0-.2,0-.1,0,0,0,0,0,.1,0,0,0,.1,0,.1.1,0,.1.1.2.1.2,0,0,0,0,0,0,0,0,0-.1,0-.2h-4.6c0,1.1.2,2.3,1.1,3.2.9,1,2.2,1.3,3.2,1.3v-4.6ZM101.9,36.7v-17.7h-4.6v17.7h4.6ZM101.9,19c0-.2,0-.3,0-.3,0,0,0,0-.1.2-.1.1-.2.2-.3.2,0,0,0,0,0,0v-4.6c-1.1,0-2.3.3-3.2,1.3-.8.9-1,2.1-1,3.1h4.6ZM101.5,19.1c.2,0,.4,0,.4,0,0,0,0,0,0,0-.1,0-.3-.2-.5-.4-.2-.2-.2-.5-.2-.6l4.6-.2c0-1.2-.7-2.2-1.7-2.7-.8-.5-1.8-.6-2.6-.6v4.6ZM101.2,18v1.8c0,0,4.7-.2,4.7-.2v-1.8c0,0-4.7.2-4.7.2ZM105.5,21c.4-.6,1.1-1.2,1.9-1.8l-2.5-3.9c-1.3.8-2.4,1.8-3.2,3l3.8,2.6ZM107.4,19.2c.7-.4,1.5-.7,2.6-.7v-4.6c-1.8,0-3.5.4-5,1.4l2.4,3.9ZM110,18.6c1.8,0,3,.6,4,1.5l3.3-3.2c-1.9-2-4.5-3-7.3-3v4.6ZM114,20.1c.9.9,1.5,2.4,1.5,4.8h4.6c0-3.2-.8-6-2.9-8.1l-3.3,3.3ZM115.5,25v11.7h4.6v-11.7h-4.6ZM115.5,36.7c0,0,0,.2,0,.2,0,0,0,0,0,0,0,0,0,0,.1-.2,0,0,0,0,.1-.1,0,0,0,0,.1,0,0,0,0,0-.1,0v4.6c1.1,0,2.3-.3,3.2-1.3.9-1,1.1-2.2,1.1-3.2h-4.6ZM115.8,36.6c-.1,0-.2,0,0,0,0,0,0,0,.1,0,0,0,.1,0,.2.1,0,0,0,0,0,.1,0,0,0,0,0,0,0,0,0,0,0-.3h-4.6c0,1,.2,2.3,1.1,3.2.9,1,2.1,1.3,3.2,1.3v-4.6ZM116,36.7v-10.9h-4.6v10.9h4.6ZM116,25.8c0-2.2-.5-4.3-1.9-5.9l-3.4,3.1c.3.4.7,1.1.7,2.8h4.6ZM114.2,20c-1.3-1.5-3.1-2.3-5.1-2.3v4.6c.8,0,1.2.2,1.6.7l3.5-3ZM109.1,17.7c-2.1,0-4,.7-5.5,2.3l3.4,3.2c.5-.5,1.2-.8,2.1-.8v-4.6ZM103.6,20c-1.5,1.5-2.1,3.5-2.1,5.7h4.6c0-1.3.3-2,.8-2.5l-3.3-3.2ZM101.5,25.7v11h4.6v-11h-4.6ZM101.5,36.7c0,0,0,.2,0,.2,0,0,0,0,0,0,0,0,0,0,.1-.2,0,0,0,0,.1-.1,0,0,0,0,.1,0,0,0,0,0-.1,0v4.6c1.1,0,2.3-.3,3.2-1.3.9-1,1.1-2.2,1.1-3.2h-4.6ZM131.9,38.2l-1.4,1.8h0s0,0,0,0l1.4-1.8ZM130.3,20.4h2.3v-2.3h-2.3v2.3ZM126.3,17.3l1.5,1.7h0s0,0,0,0l-1.5-1.7ZM130.3,16.8v2.3h2.3v-2.3h-2.3ZM134.4,16.8h-2.3v2.3h2.3v-2.3ZM134.4,20.4v-2.3h-2.3v2.3h2.3ZM135.1,35.1l-1.5,1.8h0s0,0,0,0l1.3-1.9ZM139.9,35.9l-.6,2.2h0s0,0,0,0l.5-2.2ZM139.5,39.1l-.6-2.2h0s0,0,0,0l.7,2.2ZM136.6,37.1c-1.9,0-2.9-.4-3.4-.7l-2.7,3.7c1.6,1.2,3.8,1.7,6.1,1.7v-4.6ZM133.3,36.4c-.2-.2-.7-.8-.7-2.9h-4.6c0,2.5.6,5,2.5,6.5l2.8-3.6ZM132.6,33.5v-13.1h-4.6v13.1h4.6ZM130.3,18.1h-2.3v4.6h2.3v-4.6ZM128,18.1c-.2,0-.3,0-.3,0,0,0,0,0,.2.1.1.1.2.2.3.4,0,.1,0,.1,0,0h-4.6c0,1.1.3,2.3,1.4,3.1.9.8,2.1,1,3.1,1v-4.6ZM128.1,18.6c0-.1,0-.1,0,0,0,0-.1.3-.3.4l-3.1-3.4c-1,.9-1.2,2.1-1.2,3h4.6ZM127.8,19c-.2.2-.3.2-.3.2,0,0,0,0,.1,0,0,0,.2,0,.3,0v-4.6c-1,0-2.3.2-3.3,1.1l3.1,3.4ZM128,19.1h2.3v-4.6h-2.3v4.6ZM132.6,16.8v-5.8h-4.6v5.8h4.6ZM132.6,11.1c0-.2,0-.3,0-.2,0,0,0,.1-.1.2,0,0,0,0-.1.1,0,0,0,0-.1,0,0,0,0,0,.1,0v-4.6c-1.1,0-2.3.3-3.2,1.3-.9.9-1.2,2.2-1.2,3.2h4.6ZM132.3,11.2c.1,0,.2,0,.1,0,0,0,0,0-.1,0,0,0-.1,0-.2-.1-.1-.1-.1-.2-.1-.2,0,0,0,0,0,.3h4.6c0-1-.2-2.2-1.1-3.2-.9-1-2.1-1.3-3.2-1.3v4.6ZM132.1,11.1v5.8h4.6v-5.8h-4.6ZM134.4,19.1h4.2v-4.6h-4.2v4.6ZM138.6,19.1c.2,0,.3,0,.3,0,0,0,0,0-.2-.1-.1-.1-.2-.2-.3-.4,0-.1,0-.1,0,0h4.6c0-1.1-.3-2.3-1.4-3.1-.9-.8-2.1-1-3.1-1v4.6ZM138.5,18.6c0,0,0,0,0,0,0-.1.1-.2.3-.4.1,0,.2-.1.2-.1,0,0-.1,0-.3,0v4.6c1,0,2.1-.2,3.1-1,1-.9,1.4-2,1.4-3.1h-4.6ZM138.6,18.1h-4.2v4.6h4.2v-4.6ZM132.1,20.4v12.3h4.6v-12.3h-4.6ZM132.1,32.7c0,1.4.3,3.1,1.6,4.2l2.9-3.6c.2.1.2.2.1.1,0-.1,0-.4,0-.8h-4.6ZM133.8,37c1.1.8,2.5,1,3.8,1v-4.6c-.4,0-.7,0-.9,0-.2,0-.2,0-.2,0l-2.7,3.7ZM137.6,38h.3v-4.6h-.3v4.6ZM137.9,38c.7,0,1.2,0,1.5.1l1.2-4.4c-.8-.2-1.7-.3-2.7-.3v4.6ZM139.4,38.2c-.1,0-.3,0-.5-.2-.2-.1-.3-.3-.4-.4-.1-.2-.1-.4-.1-.2h4.6c0-.6,0-1.4-.5-2.1-.5-.8-1.2-1.3-2.1-1.5l-1,4.5ZM138.5,37.4c0,.1,0,0,.1-.3.2-.2.4-.3.3-.3l1.1,4.5c.8-.2,1.6-.6,2.2-1.4.6-.8.8-1.7.8-2.5h-4.6ZM138.8,36.9c-.6.2-1.3.3-2.2.3v4.6c1.2,0,2.4-.1,3.5-.5l-1.3-4.4ZM169.6,38.2l-1.2,1.9h0s0,0,0,0l1.2-2ZM166.4,34.7l2-1.1h0s0,0,0,0l-2,1.2ZM166.1,33l2.1,1h0s0,0,0,0l-2.1-.9ZM167.3,31.9l-.7-2.2h0s0,0,0,0l.8,2.2ZM168.8,32l-1.1,2,1.1-2ZM170,33.1l2-1.2h0c0-.1,0-.2,0-.2l-1.8,1.4ZM171.7,34.9l-1.3,1.9h0s0,0,0,0l1.3-1.9ZM178.6,34.3l1.5,1.7h0s0,0,0,0l-1.6-1.7ZM178.5,25.5l-1.6,1.6h0s0,0,0,0l1.6-1.7ZM178,18.7l-1.7-1.5h0s0,0,0,0l1.7,1.5ZM177.8,11.1l-1.4,1.9h0s0,0,0,0l1.3-1.9ZM172,10.7l-1.4-1.8h0l1.4,1.8ZM170.4,12.5l1.8,1.4h0c0,0,0-.2,0-.2l-2-1.2ZM169.2,13.6l1,2.1h0s0,0,0,0l-1-2.1ZM167.6,13.5l-.9,2.1h0s0,0,0,0l.9-2.1ZM166.5,12.4l2.2-.7h0l-2.2.7ZM166.9,10.7l1.9,1.3h0s0,0,0,0l-2-1.2ZM170.2,7.3l-1.2-2h0s0,0,0,0l1.2,2ZM181,8.5l-1.6,1.7h0s0,0,0,0l1.5-1.7ZM178.8,21.9l-.9-2.1-5.3,2.3,5.5,2,.8-2.2ZM182.8,25l-1.9,1.3,1.9-1.3ZM181.7,36.8l-1.7-1.6h0s0,0,0,0l1.7,1.6ZM174.4,37.1c-1.4,0-2.6-.3-3.6-.9l-2.4,4c1.8,1.1,3.8,1.6,6,1.6v-4.6ZM170.9,36.3c-1-.6-1.8-1.5-2.4-2.7l-4.1,2.2c1,1.8,2.3,3.3,4,4.3l2.5-3.9ZM168.4,33.5c-.1-.2,0-.2,0-.1,0,0,0,.1,0,.2,0,.1,0,.2,0,.3l-4.2-1.9c-.7,1.5-.2,2.9.4,3.9l4-2.3ZM168.2,33.9s0,0,0,0c0,0,0,0,0,0,0,0,0,0,0,0l-1.6-4.3c-1.1.4-2,1.1-2.5,2.3l4.2,1.8ZM168,34.1c.1,0,.2,0,.1,0,0,0,0,0-.1,0,0,0-.1,0-.2,0l2.2-4.1c-1.1-.6-2.3-.5-3.3-.2l1.3,4.4ZM167.7,34s0,0,.1.1c0,0,.2.2.3.4l3.7-2.8c-.5-.7-1.1-1.3-1.9-1.7l-2.2,4.1ZM168,34.2c.6,1,1.4,1.9,2.4,2.6l2.6-3.8c-.4-.3-.8-.7-1-1.1l-4,2.3ZM170.5,36.8c1.2.8,2.5,1.1,3.9,1.1v-4.6c-.6,0-1-.1-1.3-.4l-2.6,3.8ZM174.3,38c2.2,0,4.3-.6,5.9-2l-3-3.5c-.5.4-1.3.8-2.8.8v4.6ZM180.2,36c1.7-1.5,2.3-3.8,2.3-6.1h-4.6c0,1.6-.4,2.4-.8,2.7l3.1,3.4ZM182.5,29.9c0-2.3-.8-4.4-2.4-6l-3.2,3.3c.6.6,1,1.4,1,2.7h4.6ZM180.1,23.8c-1.6-1.6-3.7-2.3-6.1-2.3v4.6c1.4,0,2.3.4,2.8,1l3.3-3.3ZM174,21.5c-.3,0,0,0,.2.2.1.1.2.3.2.3,0,0,0,0,0,0h-4.6c0,1,.3,2.1,1.2,3,.9.9,2.1,1.1,3,1.1v-4.6ZM174.5,22c0-.1,0,0,0,0,0,0,0,.2-.2.3-.3.3-.5.2-.2.2v-4.6c-1,0-2.1.2-3,1.1-.9.9-1.2,2-1.2,3h4.6ZM174,22.5c2.2,0,4.2-.7,5.7-2.3l-3.5-3c-.3.4-.9.7-2.2.7v4.6ZM179.7,20.2c1.4-1.5,2-3.4,2-5.4h-4.6c0,1.1-.3,1.8-.8,2.3l3.4,3.1ZM181.7,14.8c0-2.2-.7-4.3-2.5-5.6l-2.7,3.8c.2.2.6.5.6,1.9h4.6ZM179.2,9.2c-1.4-1-3.1-1.5-4.9-1.5v4.6c.9,0,1.5.2,2.1.7l2.7-3.7ZM174.3,7.6c-1.3,0-2.6.4-3.7,1.2l2.8,3.7c.2-.2.5-.3.9-.3v-4.6ZM170.6,8.9c-.9.7-1.6,1.5-2.2,2.4l3.9,2.4c.3-.5.6-.8,1-1.2l-2.8-3.7ZM168.6,11.1c-.3.3-.4.4-.4.4l2.1,4.1c.8-.4,1.5-1.1,2-1.8l-3.7-2.8ZM168.2,11.5c.2,0,.4,0,.4,0,0,0,0,0-.1,0l-1.7,4.3c.9.4,2.1.6,3.3,0l-1.9-4.2ZM168.5,11.4c0,0,0,0,0,0,0,0,0,0,.1.1,0,0,0,.1,0,.2l-4.4,1.4c.4,1.3,1.4,2.1,2.4,2.5l1.8-4.2ZM168.7,11.7c0,0,0,.2,0,.2,0,0,0,.1,0,.2,0,0,0,0,0-.1l-3.9-2.5c-.6.9-1.1,2.2-.6,3.6l4.4-1.4ZM168.9,11.9c.7-1.2,1.6-2.1,2.5-2.6l-2.4-4c-1.7,1-3,2.4-4.1,4.2l4,2.3ZM171.3,9.3c1-.6,2-.8,3.1-.8V3.9c-1.9,0-3.7.5-5.4,1.5l2.3,4ZM174.4,8.5c2.2,0,3.8.6,5,1.7l3.1-3.4c-2.2-2-4.9-2.9-8.1-2.9v4.6ZM179.4,10.2c1.1,1,1.8,2.4,1.8,4.5h4.6c0-3.2-1-5.9-3.3-7.9l-3.1,3.4ZM181.2,14.6c0,1.2-.3,2.3-.9,3.1l3.8,2.6c1.1-1.7,1.7-3.6,1.7-5.7h-4.6ZM180.3,17.8c-.6.9-1.4,1.6-2.4,2l1.8,4.2c1.8-.8,3.3-2,4.4-3.7l-3.8-2.6ZM178,24.1c1.2.4,2.1,1.1,2.9,2.2l3.8-2.6c-1.3-1.8-3-3.1-5.1-3.9l-1.6,4.3ZM180.9,26.3c.7,1,1.1,2.2,1.1,3.7h4.6c0-2.3-.6-4.5-1.9-6.3l-3.8,2.6ZM182,30c0,2.3-.7,4-1.9,5.2l3.3,3.2c2.2-2.2,3.2-5.1,3.2-8.4h-4.6ZM180.1,35.2c-1.1,1.2-2.8,1.9-5.7,1.9v4.6c3.6,0,6.8-1,9-3.3l-3.3-3.2Z"/>
      </g>
    </g>
  </g>
</svg>