<?xml version="1.0" encoding="UTF-8"?>
<svg xmlns="http://www.w3.org/2000/svg" xmlns:xlink="http://www.w3.org/1999/xlink" version="1.1" viewBox="0 0 183 57">
  <defs>
    <style>
      .cls-1 {
        mask: url(#mask);
      }

      .cls-2 {
        fill: #a9b527;
      }

      .cls-3 {
        fill: #fff;
      }
    </style>
    <mask id="mask" x="17.5" y="7.9" width="143.3" height="47.8" maskUnits="userSpaceOnUse">
      <g id="path-1-outside-1_759_152">
        <rect class="cls-3" x="17.5" y="7.9" width="143.3" height="47.8"/>
        <path d="M31.5,44.1c-2.2,0-4.3-.4-6.2-1.1-1.9-.7-3.5-1.9-4.9-3.5-.4-.6-.6-1.1-.5-1.6.1-.5.5-.9,1-1.3.5-.3,1-.4,1.5-.3.5,0,1,.4,1.5.9.9.9,2,1.7,3.3,2.2,1.3.5,2.7.7,4.4.7s3.8-.4,5-1.3,1.8-2.1,1.8-3.7-.2-1.8-.6-2.5c-.4-.7-1.3-1.4-2.5-2s-3.2-1.1-5.8-1.6c-5.9-1.3-8.8-4.3-8.8-9s.4-3.4,1.3-4.8c.9-1.4,2.1-2.4,3.7-3.2,1.6-.8,3.4-1.2,5.5-1.2s3.9.4,5.5,1.1c1.6.7,3.1,1.6,4.3,2.8.5.5.7,1,.6,1.5,0,.5-.3,1-.9,1.4-.5.4-1.1.6-1.5.5-.5,0-.9-.3-1.5-.8-.9-.8-1.9-1.3-3-1.8-1.1-.5-2.3-.7-3.7-.7s-3.2.4-4.4,1.3c-1.2.8-1.7,2-1.7,3.6s.2,1.6.5,2.3c.4.7,1.1,1.3,2.1,1.8,1,.5,2.5,1,4.5,1.4,3.8.8,6.5,2,8.1,3.5,1.7,1.6,2.5,3.6,2.5,6.1s-.5,3.6-1.5,5c-.9,1.3-2.3,2.3-4,3-1.7.7-3.6,1-5.8,1ZM61.4,44c-2.1,0-3.6-.4-4.7-1.2-1.1-.8-1.6-2.4-1.6-4.6v-13h-2.3c-1.4,0-2.1-.6-2.1-1.8s.2-1,.5-1.3c.3-.3.9-.5,1.7-.5h2.3v-5.7c0-1.4.7-2.1,2-2.1s2,.7,2,2.1v5.7h4.2c1.4,0,2.1.6,2.1,1.8s-.7,1.8-2.1,1.8h-4.2v12.1c0,1.2.3,2,.8,2.4.5.4,1.3.6,2.4.6h.3c.8,0,1.5,0,2,.2.5.1.8.6.8,1.4s-.4,1.5-1.3,1.7c-.8.2-1.8.4-2.8.4ZM83.8,44c-2.1,0-3.9-.4-5.5-1.3-1.6-.9-2.8-2.2-3.7-3.9-.9-1.7-1.3-3.8-1.3-6.2s.4-4.4,1.3-6c.9-1.7,2.1-3.1,3.6-4,1.5-.9,3.3-1.4,5.3-1.4s3.7.5,5.1,1.5c1.4.9,2.5,2.2,3.2,3.6.8,1.5,1.1,3,1.1,4.6s-.2,1.5-.5,1.8c-.4.3-.9.4-1.6.4h-13.6c0,2.4.7,4.3,1.8,5.5,1.2,1.2,2.7,1.9,4.7,1.9s4-.9,5.2-2.8c.5-.5.9-.8,1.4-1,.4-.2.9-.1,1.4.2.5.3.8.8.9,1.3,0,.5-.1,1.1-.6,1.7-1,1.4-2.2,2.5-3.6,3.2-1.4.7-2.9,1-4.7,1ZM77.6,29.7h11.5c-.2-1.6-.8-2.9-1.8-3.8-1-1-2.2-1.5-3.7-1.5s-2.9.5-3.9,1.4c-1,.9-1.7,2.2-2,3.9ZM104.9,52.7c-1.4,0-2-.7-2-2.2v-26.7c0-1.4.6-2.1,1.8-2.1s1.8.3,1.9,1v2.1c.9-1.2,1.8-2,3-2.7,1.2-.6,2.4-1,3.9-1s3.8.5,5.3,1.4c1.5.9,2.8,2.2,3.6,4,.9,1.7,1.4,3.7,1.4,6s-.5,4.4-1.4,6.1c-.9,1.7-2.1,3.1-3.6,4-1.5.9-3.3,1.4-5.3,1.4s-2.6-.3-3.7-.9c-1.1-.6-2-1.4-2.8-2.5v9.8c0,1.5-.7,2.2-2,2.2ZM113.3,40.3c1.8,0,3.4-.7,4.6-2,1.2-1.4,1.8-3.3,1.8-5.7s-.6-4.3-1.8-5.6c-1.2-1.4-2.7-2-4.6-2s-3.4.7-4.6,2c-1.2,1.4-1.8,3.2-1.8,5.6s.6,4.3,1.8,5.7c1.2,1.4,2.7,2,4.6,2ZM135.9,44c-.8,0-1.6-.3-2.2-.9-.6-.6-.9-1.3-.9-2.1s.3-1.6.9-2.1c.6-.6,1.3-.9,2.2-.9s1.5.3,2.1.9c.6.6.9,1.3.9,2.1s-.3,1.5-.9,2.1c-.6.6-1.3.9-2.1.9ZM156.4,43.5c-1.3,0-2-.7-2-2.2v-24.7l-4.2,2.6c-1.2.8-2.2.7-2.8-.5-.7-1.1-.5-2.1.8-2.8l5.9-3.6c.8-.5,1.7-.8,2.6-.8s1.5.7,1.5,2.2v27.6c0,1.5-.6,2.2-1.9,2.2Z"/>
      </g>
    </mask>
  </defs>
  <!-- Generator: Adobe Illustrator 28.6.0, SVG Export Plug-In . SVG Version: 1.2.0 Build 709)  -->
  <g>
    <g id="_レイヤー_1" data-name="レイヤー_1">
      <path class="cls-3" d="M31.5,44.1c-2.2,0-4.3-.4-6.2-1.1-1.9-.7-3.5-1.9-4.9-3.5-.4-.6-.6-1.1-.5-1.6.1-.5.5-.9,1-1.3.5-.3,1-.4,1.5-.3.5,0,1,.4,1.5.9.9.9,2,1.7,3.3,2.2,1.3.5,2.7.7,4.4.7s3.8-.4,5-1.3,1.8-2.1,1.8-3.7-.2-1.8-.6-2.5c-.4-.7-1.3-1.4-2.5-2s-3.2-1.1-5.8-1.6c-5.9-1.3-8.8-4.3-8.8-9s.4-3.4,1.3-4.8c.9-1.4,2.1-2.4,3.7-3.2,1.6-.8,3.4-1.2,5.5-1.2s3.9.4,5.5,1.1c1.6.7,3.1,1.6,4.3,2.8.5.5.7,1,.6,1.5,0,.5-.3,1-.9,1.4-.5.4-1.1.6-1.5.5-.5,0-.9-.3-1.5-.8-.9-.8-1.9-1.3-3-1.8-1.1-.5-2.3-.7-3.7-.7s-3.2.4-4.4,1.3c-1.2.8-1.7,2-1.7,3.6s.2,1.6.5,2.3c.4.7,1.1,1.3,2.1,1.8,1,.5,2.5,1,4.5,1.4,3.8.8,6.5,2,8.1,3.5,1.7,1.6,2.5,3.6,2.5,6.1s-.5,3.6-1.5,5c-.9,1.3-2.3,2.3-4,3-1.7.7-3.6,1-5.8,1ZM61.4,44c-2.1,0-3.6-.4-4.7-1.2-1.1-.8-1.6-2.4-1.6-4.6v-13h-2.3c-1.4,0-2.1-.6-2.1-1.8s.2-1,.5-1.3c.3-.3.9-.5,1.7-.5h2.3v-5.7c0-1.4.7-2.1,2-2.1s2,.7,2,2.1v5.7h4.2c1.4,0,2.1.6,2.1,1.8s-.7,1.8-2.1,1.8h-4.2v12.1c0,1.2.3,2,.8,2.4.5.4,1.3.6,2.4.6h.3c.8,0,1.5,0,2,.2.5.1.8.6.8,1.4s-.4,1.5-1.3,1.7c-.8.2-1.8.4-2.8.4ZM83.8,44c-2.1,0-3.9-.4-5.5-1.3-1.6-.9-2.8-2.2-3.7-3.9-.9-1.7-1.3-3.8-1.3-6.2s.4-4.4,1.3-6c.9-1.7,2.1-3.1,3.6-4,1.5-.9,3.3-1.4,5.3-1.4s3.7.5,5.1,1.5c1.4.9,2.5,2.2,3.2,3.6.8,1.5,1.1,3,1.1,4.6s-.2,1.5-.5,1.8c-.4.3-.9.4-1.6.4h-13.6c0,2.4.7,4.3,1.8,5.5,1.2,1.2,2.7,1.9,4.7,1.9s4-.9,5.2-2.8c.5-.5.9-.8,1.4-1,.4-.2.9-.1,1.4.2.5.3.8.8.9,1.3,0,.5-.1,1.1-.6,1.7-1,1.4-2.2,2.5-3.6,3.2-1.4.7-2.9,1-4.7,1ZM77.6,29.7h11.5c-.2-1.6-.8-2.9-1.8-3.8-1-1-2.2-1.5-3.7-1.5s-2.9.5-3.9,1.4c-1,.9-1.7,2.2-2,3.9ZM104.9,52.7c-1.4,0-2-.7-2-2.2v-26.7c0-1.4.6-2.1,1.8-2.1s1.8.3,1.9,1v2.1c.9-1.2,1.8-2,3-2.7,1.2-.6,2.4-1,3.9-1s3.8.5,5.3,1.4c1.5.9,2.8,2.2,3.6,4,.9,1.7,1.4,3.7,1.4,6s-.5,4.4-1.4,6.1c-.9,1.7-2.1,3.1-3.6,4-1.5.9-3.3,1.4-5.3,1.4s-2.6-.3-3.7-.9c-1.1-.6-2-1.4-2.8-2.5v9.8c0,1.5-.7,2.2-2,2.2ZM113.3,40.3c1.8,0,3.4-.7,4.6-2,1.2-1.4,1.8-3.3,1.8-5.7s-.6-4.3-1.8-5.6c-1.2-1.4-2.7-2-4.6-2s-3.4.7-4.6,2c-1.2,1.4-1.8,3.2-1.8,5.6s.6,4.3,1.8,5.7c1.2,1.4,2.7,2,4.6,2ZM135.9,44c-.8,0-1.6-.3-2.2-.9-.6-.6-.9-1.3-.9-2.1s.3-1.6.9-2.1c.6-.6,1.3-.9,2.2-.9s1.5.3,2.1.9c.6.6.9,1.3.9,2.1s-.3,1.5-.9,2.1c-.6.6-1.3.9-2.1.9ZM156.4,43.5c-1.3,0-2-.7-2-2.2v-24.7l-4.2,2.6c-1.2.8-2.2.7-2.8-.5-.7-1.1-.5-2.1.8-2.8l5.9-3.6c.8-.5,1.7-.8,2.6-.8s1.5.7,1.5,2.2v27.6c0,1.5-.6,2.2-1.9,2.2Z"/>
      <g class="cls-1">
        <path class="cls-2" d="M25.3,43l-.8,2.1h0s0,0,0,0l.8-2.1ZM20.5,39.5l-1.8,1.3h0c0,0,0,.1,0,.1l1.7-1.5ZM20,37.9l-2.2-.5h0c0,0,0,.1,0,.1l2.2.4ZM21,36.6l1.1,2h0s0,0,0,0l-1.2-1.9ZM22.5,36.3l-.6,2.2h0s0,0,0,0l.4-2.2ZM24,37.2l-1.7,1.6h0s0,0,0,0l1.6-1.6ZM27.2,39.4l-.9,2.1h0s0,0,0,0l.8-2.1ZM37.7,32.6l-2,1.1h0s0,0,0,0l1.9-1.2ZM35.2,30.7l.9-2.1h0l-.9,2.1ZM29.4,29l-.5,2.2h0s0,0,0,0l.4-2.2ZM22,15.3l-1.9-1.2h0l1.9,1.2ZM25.6,12.1l1,2h0s0,0,0,0l-1-2ZM36.7,12l-.9,2.1h0s0,0,0,0l.9-2.1ZM41,14.8l1.7-1.6h0c0,0,0-.1,0-.1l-1.5,1.7ZM41.6,16.3l-2.3-.3h0s2.3.3,2.3.3ZM40.7,17.7l1.4,1.8h0s0,0,0,0l-1.4-1.8ZM39.2,18.2l-.3,2.3h0s0,0,0,0l.3-2.3ZM37.7,17.4l1.6-1.7h0s0,0,0,0l-1.5,1.7ZM34.8,15.6l-.9,2.1h0s0,0,0,0l.8-2.1ZM26.7,16.2l1.3,1.9h0s0,0,0,0l-1.3-1.8ZM25.5,22.2l-2,1.1h0c0,0,0,.1,0,.1l2-1.2ZM27.6,24l-1,2h0l1-2ZM32.2,25.4l-.5,2.2h0s0,0,0,0l.5-2.2ZM40.2,28.9l-1.6,1.6h0s0,0,0,0l1.6-1.7ZM41.3,40l-1.9-1.3h0s1.9,1.3,1.9,1.3ZM37.3,43.1l-.9-2.1h0s0,0,0,0l.9,2.1ZM31.5,41.8c-2,0-3.7-.3-5.4-.9l-1.6,4.3c2.2.8,4.5,1.2,7,1.2v-4.5ZM26.1,40.9c-1.5-.6-2.8-1.5-3.9-2.9l-3.5,2.9c1.6,1.9,3.5,3.3,5.8,4.2l1.6-4.2ZM22.3,38.1c-.1-.1-.1-.2-.1-.2,0,0,0,0,0,.1,0,0,0,.1,0,.2l-4.5-.8c-.3,1.3.3,2.5.9,3.4l3.7-2.7ZM22.2,38.4s0,0,0,.1c0,0,0,0,0,0,0,0,0,0,0,0l-2.3-3.9c-1,.6-1.8,1.4-2.1,2.7l4.4,1ZM22.2,38.6c.1,0,.1,0,0,0,0,0,0,0-.1,0,0,0-.1,0-.2,0l1.2-4.4c-1.2-.3-2.4,0-3.3.6l2.4,3.9ZM22.1,38.5c0,0,0,0,0,0,0,0,.1,0,.3.2l3.3-3.1c-.7-.7-1.6-1.4-2.7-1.6l-.8,4.5ZM22.3,38.8c1.1,1.2,2.5,2.1,4.1,2.7l1.7-4.2c-1-.4-1.8-1-2.5-1.7l-3.3,3.2ZM26.4,41.5c1.6.6,3.3.9,5.2.9v-4.5c-1.5,0-2.6-.2-3.6-.6l-1.6,4.3ZM31.7,42.4c2.4,0,4.6-.5,6.3-1.7l-2.7-3.7c-.7.5-1.8.8-3.6.8v4.5ZM37.9,40.7c1.9-1.3,2.7-3.3,2.7-5.6h-4.5c0,1-.3,1.5-.8,1.9l2.7,3.7ZM40.7,35.1c0-1.3-.3-2.6-1-3.7l-3.9,2.4c.2.3.3.7.3,1.3h4.5ZM39.7,31.5c-.8-1.3-2.1-2.2-3.6-2.9l-1.9,4.1c1.1.5,1.4.9,1.5,1l3.9-2.3ZM36.1,28.6c-1.5-.7-3.6-1.3-6.3-1.8l-.9,4.5c2.5.5,4.3,1,5.3,1.5l1.9-4.1ZM29.9,26.8c-2.7-.6-4.4-1.5-5.4-2.6-1-1-1.5-2.3-1.5-4.2h-4.5c0,2.9.9,5.4,2.8,7.4,1.9,1.9,4.5,3.1,7.7,3.8l1-4.4ZM22.9,20.1c0-1.4.3-2.6,1-3.5l-3.8-2.5c-1.1,1.8-1.7,3.8-1.7,6h4.5ZM23.9,16.5c.6-1,1.5-1.8,2.8-2.4l-2-4.1c-1.9.9-3.5,2.3-4.6,4l3.8,2.5ZM26.7,14.1c1.2-.6,2.7-.9,4.5-.9v-4.5c-2.4,0-4.6.4-6.5,1.4l2,4.1ZM31.1,13.2c1.8,0,3.3.3,4.6.9l1.8-4.2c-2-.9-4.1-1.3-6.5-1.3v4.5ZM35.8,14.1c1.4.6,2.6,1.4,3.7,2.4l3.1-3.3c-1.4-1.3-3.1-2.4-5-3.2l-1.8,4.2ZM39.4,16.3c0,0,0,0,0,0,0,0,0,0,0-.2,0,0,0-.1,0-.2l4.5.5c.2-1.4-.4-2.5-1.2-3.3l-3.3,3.1ZM39.4,16s0,0,0-.1c0,0,0,0,0,0,0,0,0,0-.1.1l2.9,3.5c.8-.7,1.5-1.6,1.7-2.9l-4.5-.5ZM39.4,15.9c-.1.1-.2.1-.2.1,0,0,0,0,.1,0,0,0,.1,0,.2,0l-.6,4.5c1.3.2,2.4-.4,3.2-1l-2.8-3.6ZM39.5,16c.1,0,.2,0,.1,0,0,0-.1,0-.3-.2l-3.1,3.3c.7.6,1.6,1.3,2.7,1.4l.6-4.5ZM39.2,15.7c-1.1-.9-2.3-1.6-3.6-2.1l-1.7,4.2c.8.3,1.6.8,2.3,1.4l2.9-3.5ZM35.7,13.6c-1.4-.6-2.9-.9-4.6-.9v4.5c1.1,0,2.1.2,2.8.5l1.8-4.2ZM31.1,12.7c-2.1,0-4.1.5-5.7,1.7l2.7,3.7c.7-.5,1.7-.8,3.1-.8v-4.5ZM25.4,14.4c-1.8,1.3-2.7,3.3-2.7,5.5h4.5c0-1,.3-1.5.8-1.8l-2.6-3.7ZM22.7,19.9c0,1.2.3,2.3.8,3.4l4-2.1c-.2-.3-.3-.8-.3-1.3h-4.5ZM23.6,23.4c.7,1.2,1.8,2,3.1,2.7l2-4.1c-.8-.4-1.1-.7-1.2-.9l-3.9,2.3ZM26.6,26c1.3.6,3,1.2,5,1.6l1-4.4c-1.9-.4-3.2-.8-4-1.2l-2,4.1ZM31.7,27.6c3.6.8,5.8,1.8,7,3l3.2-3.3c-2.1-2-5.3-3.3-9.2-4.1l-.9,4.5ZM38.7,30.6c1.2,1.1,1.8,2.5,1.8,4.5h4.5c0-3.1-1-5.7-3.2-7.8l-3.1,3.3ZM40.5,35.1c0,1.5-.4,2.7-1,3.6l3.7,2.6c1.3-1.8,1.9-3.9,1.9-6.3h-4.5ZM39.4,38.7c-.7.9-1.6,1.7-3,2.3l1.7,4.2c2-.8,3.7-2.1,5-3.8l-3.7-2.6ZM36.5,41c-1.3.6-3,.9-4.9.9v4.5c2.4,0,4.7-.4,6.7-1.2l-1.8-4.2ZM56.7,42.8l-1.4,1.8h0s0,0,0,0l1.4-1.8ZM55.1,25.2h2.3v-2.3h-2.3v2.3ZM51.2,22.1l1.5,1.7h0s0,0,0,0l-1.5-1.7ZM55.1,21.7v2.3h2.3v-2.3h-2.3ZM59.2,21.7h-2.3v2.3h2.3v-2.3ZM59.2,25.2v-2.3h-2.3v2.3h2.3ZM59.9,39.7l-1.4,1.8h0s0,0,0,0l1.3-1.8ZM64.7,40.6l-.6,2.2h0s0,0,0,0l.5-2.2ZM64.2,43.7l-.6-2.2h0s0,0,0,0l.6,2.2ZM61.4,41.8c-1.8,0-2.8-.4-3.3-.7l-2.7,3.7c1.6,1.2,3.7,1.6,6,1.6v-4.5ZM58.1,41c-.2-.2-.7-.8-.7-2.8h-4.5c0,2.5.6,5,2.5,6.4l2.8-3.6ZM57.4,38.2v-13h-4.5v13h4.5ZM55.1,23h-2.3v4.5h2.3v-4.5ZM52.9,23c-.2,0-.3,0-.3,0,0,0,0,0,.2.1.1.1.2.2.3.3,0,.1,0,.1,0,0h-4.5c0,1.1.3,2.2,1.4,3.1.9.8,2.1,1,3.1,1v-4.5ZM53,23.5c0-.1,0-.1,0,0,0,0-.1.3-.3.4l-3-3.4c-1,.9-1.2,2.1-1.2,3h4.5ZM52.7,23.8c-.2.2-.3.2-.3.2,0,0,0,0,.1,0,0,0,.2,0,.3,0v-4.5c-1,0-2.2.2-3.2,1l3.1,3.4ZM52.9,24h2.3v-4.5h-2.3v4.5ZM57.4,21.7v-5.7h-4.5v5.7h4.5ZM57.4,16c0-.2,0-.3,0-.2,0,0,0,.1-.1.2,0,0,0,0-.1.1,0,0,0,0-.1,0,0,0,0,0,.1,0v-4.5c-1.1,0-2.3.3-3.2,1.2-.9.9-1.1,2.1-1.1,3.2h4.5ZM57.2,16.1c.1,0,.2,0,.1,0,0,0,0,0-.1,0,0,0-.1,0-.2-.1,0-.1-.1-.2-.1-.2,0,0,0,0,0,.3h4.5c0-1-.2-2.2-1.1-3.2-.9-1-2.1-1.3-3.2-1.3v4.5ZM56.9,16v5.7h4.5v-5.7h-4.5ZM59.2,24h4.2v-4.5h-4.2v4.5ZM63.4,24c.2,0,.3,0,.3,0,0,0,0,0-.2-.1-.1-.1-.2-.2-.3-.3,0-.1,0-.1,0,0h4.5c0-1.1-.3-2.2-1.4-3.1-.9-.8-2.1-1-3.1-1v4.5ZM63.2,23.5c0,0,0,0,0,0,0-.1.1-.2.3-.3.1,0,.2-.1.2-.1,0,0-.1,0-.3,0v4.5c1,0,2.1-.2,3.1-1,1-.8,1.4-2,1.4-3.1h-4.5ZM63.4,23h-4.2v4.5h4.2v-4.5ZM56.9,25.2v12.1h4.5v-12.1h-4.5ZM56.9,37.3c0,1.4.3,3.1,1.6,4.2l2.9-3.5c.2.1.2.2.1.1,0-.1,0-.4,0-.8h-4.5ZM58.6,41.6c1.1.8,2.5,1,3.7,1v-4.5c-.4,0-.7,0-.9,0-.2,0-.2,0-.2,0l-2.7,3.7ZM62.4,42.6h.3v-4.5h-.3v4.5ZM62.6,42.6c.7,0,1.2,0,1.4.1l1.2-4.4c-.8-.2-1.7-.3-2.7-.3v4.5ZM64.2,42.8c-.1,0-.3,0-.5-.2-.2-.1-.3-.3-.4-.4-.1-.2-.1-.4-.1-.2h4.5c0-.6,0-1.4-.5-2.1-.5-.8-1.2-1.3-2.1-1.5l-1,4.4ZM63.2,42c0,.1,0,0,.1-.3.2-.2.4-.3.3-.3l1.1,4.4c.8-.2,1.6-.6,2.2-1.4.6-.8.8-1.7.8-2.5h-4.5ZM63.6,41.5c-.6.2-1.3.3-2.2.3v4.5c1.2,0,2.4-.1,3.5-.5l-1.3-4.4ZM78.4,42.7l1.1-2-1.1,2ZM74.7,38.8l-2,1h0s0,0,0,0l2-1ZM74.7,26.6l2,1h0s0,0,0,0l-2-1ZM78.3,22.6l-1.2-1.9h0s0,0,0,0l1.2,1.9ZM88.7,22.6l-1.3,1.9h0s0,0,0,0l1.3-1.9ZM91.9,26.2l-2,1h0s0,0,0,0l2-1ZM92.5,32.6l1.4,1.8h0s0,0,0,0l-1.5-1.7ZM77.4,33v-2.3h-2.3v2.3c0,0,2.3,0,2.3,0ZM79.2,38.6l-1.7,1.5h0s0,0,0,0l1.6-1.6ZM89.1,37.7l-1.7-1.6v.2c-.1,0-.3.2-.3.2l1.9,1.2ZM90.5,36.7l.8,2.1h0s0,0,0,0l-.9-2.1ZM91.8,36.9l-1.3,1.9h0s0,0,0,0l1.2-1.9ZM92.7,38.2l-2.3.3h0c0,0,0,.1,0,.1l2.2-.4ZM92.1,39.8l-1.8-1.4h0c0,0,0,.1,0,.1l1.9,1.3ZM88.5,43l1,2h0s0,0,0,0l-1-2ZM77.6,29.7l-2.2-.4-.5,2.7h2.8v-2.3ZM89.1,29.7v2.3h2.7l-.4-2.6-2.2.3ZM79.6,25.8l1.5,1.7h0s0,0,0,0l-1.5-1.7ZM83.8,41.8c-1.7,0-3.2-.4-4.4-1l-2.2,4c2,1.1,4.2,1.6,6.6,1.6v-4.5ZM79.5,40.7c-1.2-.6-2.1-1.6-2.8-2.9l-4,2.1c1.1,2.1,2.6,3.7,4.6,4.8l2.2-4ZM76.7,37.8c-.7-1.3-1.1-3-1.1-5.2h-4.5c0,2.7.5,5.1,1.6,7.3l4.1-2.1ZM75.6,32.6c0-2.1.4-3.7,1.1-5l-4-2.1c-1.1,2.1-1.6,4.5-1.6,7.1h4.5ZM76.7,27.6c.7-1.4,1.6-2.4,2.8-3.1l-2.4-3.9c-1.9,1.2-3.4,2.8-4.4,4.9l4.1,2.1ZM79.5,24.5c1.2-.7,2.5-1.1,4.1-1.1v-4.5c-2.4,0-4.6.6-6.5,1.7l2.4,3.9ZM83.6,23.4c1.6,0,2.8.4,3.8,1l2.6-3.7c-1.8-1.3-4-1.9-6.4-1.9v4.5ZM87.4,24.5c1.1.7,1.9,1.6,2.4,2.7l4.1-2c-.9-1.9-2.3-3.4-4-4.5l-2.5,3.8ZM89.9,27.3c.6,1.2.9,2.4.9,3.6h4.5c0-2-.5-3.8-1.4-5.6l-4.1,2.1ZM90.8,30.8c0,.1,0,.3,0,.3,0,0,0,.1,0,.1,0,0,0,0,0-.1,0,0,.1-.2.2-.3l2.9,3.5c1.2-1,1.4-2.5,1.4-3.5h-4.5ZM91.1,30.8c0,0,.2,0,.1,0,0,0-.1,0-.4,0v4.5c.9,0,2-.2,3-.9l-2.7-3.6ZM90.9,30.7h-13.6v4.5h13.6v-4.5ZM75.1,33.1c0,2.7.8,5.2,2.4,7l3.4-3.1c-.7-.7-1.2-2-1.2-4.1h-4.5ZM77.5,40.1c1.7,1.8,3.9,2.6,6.3,2.6v-4.5c-1.4,0-2.3-.4-3-1.2l-3.3,3.1ZM83.9,42.7c3,0,5.5-1.3,7.1-3.8l-3.8-2.4c-.7,1.2-1.7,1.7-3.3,1.7v4.5ZM90.8,39.2c.2-.2.3-.3.4-.4,0,0,.1,0,0,0l-1.5-4.3c-.9.3-1.7.9-2.3,1.6l3.3,3.1ZM91.4,38.7c-.2,0-.4.1-.6,0-.2,0-.3,0-.2,0l2.6-3.7c-.9-.6-2.2-1-3.5-.4l1.8,4.2ZM90.6,38.8c0,0,0,0,0,0,0,0-.1-.2-.1-.3l4.5-.5c-.2-1.3-.9-2.3-1.9-2.9l-2.5,3.8ZM90.4,38.6c0,0,0-.2,0-.2,0,0,0-.1,0-.1,0,0,0,0,0,0,0,0,0,0-.1.2l3.6,2.8c.7-.9,1.3-2.1,1.1-3.5l-4.5.8ZM90.2,38.5c-.8,1.2-1.7,1.9-2.7,2.5l2,4.1c1.8-.9,3.2-2.2,4.4-3.9l-3.7-2.6ZM87.5,41c-1,.5-2.2.8-3.7.8v4.5c2.1,0,4-.4,5.7-1.2l-2-4.1ZM77.6,32h11.5v-4.5h-11.5v4.5ZM91.3,29.4c-.3-2-1.1-3.7-2.5-5.1l-3.2,3.2c.6.6,1,1.4,1.2,2.6l4.5-.7ZM88.8,24.3c-1.4-1.4-3.3-2.1-5.3-2.1v4.5c.9,0,1.6.3,2.1.8l3.2-3.2ZM83.5,22.2c-2,0-3.9.6-5.4,1.9l3,3.4c.6-.5,1.3-.8,2.4-.8v-4.5ZM78.2,24.1c-1.5,1.3-2.4,3.1-2.8,5.2l4.5.9c.3-1.4.8-2.2,1.3-2.6l-3-3.5ZM106.5,22.6h2.3c0,0,0-.1,0-.1h0s-2.3.1-2.3.1ZM106.6,24.8h-2.3c0,0,.3,6.9.3,6.9l3.9-5.6-1.9-1.3ZM109.5,22.1l1.1,2-1.1-2ZM118.7,22.6l-1.2,1.9h0s0,0,0,0l1.2-2ZM122.4,26.5l-2,1h0s0,0,0,0l2-1.1ZM122.4,38.7l-2-1.1h0s0,0,0,0l2,1ZM118.7,42.7l1.2,2h0s0,0,0,0l-1.2-1.9ZM109.7,43.2l-1.1,2h0s0,0,0,0l1.1-2ZM106.9,40.7l1.8-1.3-4.1-5.6v6.9h2.3ZM117.9,38.2l1.7,1.5h0s0,0,0,0l-1.7-1.5ZM117.9,26.9l-1.7,1.5,1.7-1.5ZM108.7,26.9l-1.7-1.5h0s0,0,0,0l1.7,1.5ZM108.7,38.2l-1.7,1.5h0s0,0,0,0l1.7-1.5ZM104.9,50.4c-.1,0-.2,0-.1,0,0,0,0,0,.1,0,0,0,.1,0,.1.1,0,.1.1.2.1.2,0,0,0,0,0,0,0,0,0-.1,0-.2h-4.5c0,1,.2,2.2,1.1,3.2.9,1,2.1,1.3,3.2,1.3v-4.5ZM105.1,50.5v-26.7h-4.5v26.7h4.5ZM105.1,23.8c0-.2,0-.3,0-.3,0,0,0,0-.1.2-.1.1-.2.2-.3.2,0,0-.1,0,0,0v-4.5c-1.1,0-2.2.3-3.1,1.3-.8.9-1,2.1-1,3.1h4.5ZM104.7,24c.2,0,.3,0,.4,0,0,0,0,0,0,0-.1,0-.3-.2-.5-.4-.2-.3-.2-.5-.3-.8l4.5-.2c0-1.2-.8-2.1-1.7-2.6-.8-.4-1.7-.5-2.4-.5v4.5ZM104.3,22.7v2.1c0,0,4.6-.2,4.6-.2v-2.1c0,0-4.6.2-4.6.2ZM108.5,26.1c.6-.9,1.3-1.5,2.1-2l-2.2-4c-1.5.8-2.7,2-3.7,3.4l3.8,2.6ZM110.6,24.1c.8-.4,1.7-.7,2.8-.7v-4.5c-1.8,0-3.4.4-5,1.2l2.2,4ZM113.4,23.4c1.6,0,3,.4,4.1,1.1l2.4-3.9c-1.9-1.2-4.1-1.7-6.5-1.7v4.5ZM117.6,24.5c1.1.7,2.1,1.7,2.8,3l4.1-2.1c-1.1-2.1-2.6-3.7-4.5-4.9l-2.3,3.9ZM120.4,27.6c.7,1.3,1.1,2.9,1.1,5h4.5c0-2.6-.5-5-1.6-7.1l-4,2.1ZM121.5,32.6c0,2-.4,3.7-1.1,5l4,2.1c1.1-2.1,1.6-4.5,1.6-7.2h-4.5ZM120.3,37.6c-.7,1.4-1.6,2.4-2.8,3.1l2.4,3.9c1.9-1.2,3.4-2.8,4.5-4.9l-4.1-2.1ZM117.6,40.7c-1.2.7-2.5,1.1-4.2,1.1v4.5c2.4,0,4.5-.5,6.5-1.7l-2.3-3.9ZM113.4,41.8c-1,0-1.9-.2-2.6-.6l-2.1,4c1.5.8,3.1,1.1,4.7,1.1v-4.5ZM110.8,41.2c-.8-.4-1.5-1-2-1.8l-3.7,2.7c.9,1.3,2.1,2.3,3.5,3.1l2.2-4ZM104.7,40.7v9.8h4.5v-9.8h-4.5ZM104.7,50.5c0,0,0,.2,0,.2,0,0,0,0,0,0,0,0,0,0,.1-.2,0,0,0,0,.1-.1,0,0,0,0,.1,0,0,0,0,0-.1,0v4.5c1.1,0,2.3-.3,3.2-1.3.9-.9,1.1-2.1,1.1-3.2h-4.5ZM113.3,42.6c2.5,0,4.6-1,6.3-2.8l-3.4-3c-.8.9-1.7,1.3-2.9,1.3v4.5ZM119.6,39.7c1.7-1.9,2.4-4.4,2.4-7.2h-4.5c0,2-.5,3.3-1.3,4.2l3.4,3ZM122,32.6c0-2.8-.7-5.3-2.4-7.2l-3.4,3c.7.8,1.2,2.1,1.2,4.1h4.5ZM119.6,25.4c-1.7-1.9-3.8-2.8-6.3-2.8v4.5c1.2,0,2.1.4,2.9,1.3l3.4-3ZM113.3,22.6c-2.5,0-4.6,1-6.3,2.8l3.4,3c.8-.9,1.7-1.3,2.9-1.3v-4.5ZM107,25.4c-1.6,1.9-2.3,4.4-2.3,7.1h4.5c0-2,.5-3.3,1.2-4.2l-3.4-3ZM104.6,32.6c0,2.8.7,5.2,2.3,7.2l3.5-2.9c-.7-.9-1.2-2.2-1.2-4.2h-4.5ZM107,39.8c1.7,1.9,3.8,2.8,6.3,2.8v-4.5c-1.2,0-2.1-.4-2.9-1.3l-3.4,3ZM133.7,43.2l-1.6,1.6h0s0,0,0,0l1.6-1.6ZM133.7,38.9l-1.6-1.6,1.6,1.6ZM138,38.9l-1.6,1.6h0s0,0,0,0l1.6-1.6ZM138,43.2l-1.6-1.6,1.6,1.6ZM135.9,41.8c-.3,0-.4,0-.6-.2l-3.1,3.3c1,1,2.3,1.5,3.7,1.5v-4.5ZM135.4,41.6c-.2-.2-.2-.3-.2-.6h-4.5c0,1.4.5,2.7,1.5,3.7l3.3-3.1ZM135.1,41c0-.3,0-.4.2-.5l-3.2-3.2c-1,1-1.5,2.3-1.5,3.7h4.5ZM135.3,40.5c.2-.2.3-.2.6-.2v-4.5c-1.5,0-2.8.5-3.8,1.6l3.2,3.2ZM135.9,40.2c.2,0,.3,0,.4.2l3.3-3.1c-1-1-2.3-1.6-3.7-1.6v4.5ZM136.4,40.5c.1.1.2.3.2.5h4.5c0-1.5-.6-2.8-1.6-3.8l-3.1,3.3ZM136.6,41c0,.2,0,.3-.2.5l3.2,3.2c1-1,1.6-2.3,1.6-3.7h-4.5ZM136.4,41.6c-.1.1-.3.2-.5.2v4.5c1.4,0,2.7-.5,3.7-1.5l-3.2-3.2ZM154.4,16.6h2.3v-4.1l-3.5,2.2,1.2,1.9ZM150.3,19.3l-1.2-1.9h0s0,0,0,0l1.3,1.9ZM147.4,18.8l2-1.1h0c0,0,0-.1,0-.1l-1.9,1.2ZM148.2,16l1.2,1.9h0s-1.2-1.9-1.2-1.9ZM154.1,12.4l1.2,1.9h0s0,0,0,0l-1.2-1.9ZM156.4,41.3c-.1,0-.1,0,0,0,0,0,0,0,.1,0,0,0,.1,0,.2.1,0,.1.1.2.1.2,0,0,0-.1,0-.3h-4.5c0,1,.2,2.2,1.1,3.2.9,1,2.1,1.3,3.2,1.3v-4.5ZM156.7,41.3v-24.7h-4.5v24.7h4.5ZM153.2,14.7l-4.2,2.6,2.4,3.8,4.2-2.6-2.4-3.8ZM149,17.4c-.2.1-.3.2-.3.2,0,0,0,0,.3,0,.2,0,.3.1.4.2,0,0,0,0,0,0l-4,2.2c.5.9,1.4,1.9,2.8,2.1,1.3.2,2.4-.3,3.3-.8l-2.5-3.8ZM149.3,17.6c0-.1,0-.1,0,0,0,0,0,0,0,.2,0,0,0,.1,0,.2,0,.2-.1.2-.1.2,0,0,0,0,0,0,0,0,0,0,.2-.1l-2.4-3.9c-.9.5-1.8,1.4-2.1,2.6-.4,1.3,0,2.5.6,3.4l3.8-2.5ZM149.4,17.9l5.9-3.6-2.4-3.9-5.9,3.6,2.4,3.9ZM155.3,14.3c.5-.3.9-.4,1.4-.4v-4.5c-1.4,0-2.7.4-3.9,1.1l2.4,3.8ZM156.8,13.9s-.1,0-.3,0c-.2,0-.3-.2-.4-.3,0-.1,0-.2,0-.1,0,0,0,.2,0,.4h4.5c0-.9-.2-2-.8-3-.8-1.1-1.9-1.5-3-1.5v4.5ZM156,13.8v27.6h4.5V13.8h-4.5ZM156,41.3c0,.2,0,.3,0,.3,0,0,0,0,.1-.2,0,0,0,0,.2-.1,0,0,.1,0,.1,0,0,0,0,0,0,0v4.5c1.1,0,2.3-.3,3.1-1.3.8-.9,1-2.1,1-3.1h-4.5Z"/>
      </g>
    </g>
  </g>
</svg>