<?xml version="1.0" encoding="UTF-8"?>
<svg xmlns="http://www.w3.org/2000/svg" xmlns:xlink="http://www.w3.org/1999/xlink" version="1.1" viewBox="0 0 193 57">
  <defs>
    <style>
      .cls-1 {
        mask: url(#mask);
      }

      .cls-2 {
        fill: #a9b527;
      }

      .cls-3 {
        fill: #fff;
      }
    </style>
    <mask id="mask" x="19.3" y="6" width="159.5" height="50.5" maskUnits="userSpaceOnUse">
      <g id="path-1-outside-1_759_155">
        <rect class="cls-3" x="19.3" y="6" width="159.5" height="50.5"/>
        <path d="M34.1,44.2c-2.3,0-4.5-.4-6.5-1.2-2-.8-3.7-2-5.1-3.8-.4-.6-.6-1.2-.5-1.7.1-.5.5-1,1.1-1.3.6-.4,1.1-.5,1.6-.3.5,0,1,.4,1.5,1,1,1,2.1,1.8,3.5,2.3,1.3.5,2.9.8,4.7.8s4-.4,5.2-1.3c1.3-.9,1.9-2.2,1.9-3.9s-.2-1.9-.7-2.6c-.4-.8-1.3-1.5-2.7-2.1-1.3-.6-3.4-1.2-6.1-1.7-6.2-1.3-9.3-4.5-9.3-9.5s.5-3.6,1.4-5c.9-1.4,2.2-2.6,3.9-3.4,1.7-.8,3.6-1.3,5.8-1.3s4.1.4,5.9,1.2c1.7.7,3.3,1.7,4.6,2.9.5.5.7,1,.6,1.6,0,.5-.4,1-.9,1.5-.6.4-1.1.6-1.6.6-.5,0-1-.4-1.5-.9-1-.8-2-1.4-3.1-1.9-1.1-.5-2.4-.7-3.9-.7s-3.4.4-4.7,1.3c-1.2.9-1.8,2.1-1.8,3.8s.2,1.7.6,2.5c.4.7,1.2,1.3,2.3,1.9,1.1.5,2.7,1,4.8,1.5,4,.8,6.8,2.1,8.6,3.8,1.8,1.7,2.6,3.8,2.6,6.5s-.5,3.8-1.5,5.2c-1,1.4-2.4,2.5-4.2,3.2-1.8.7-3.8,1.1-6.2,1.1ZM65.7,44.2c-2.2,0-3.8-.4-5-1.3-1.1-.9-1.7-2.5-1.7-4.9v-13.7h-2.4c-1.5,0-2.3-.6-2.3-1.9s.2-1.1.5-1.4c.4-.3.9-.5,1.8-.5h2.4v-6c0-1.5.7-2.3,2.2-2.3s2.1.8,2.1,2.3v6h4.4c1.5,0,2.3.6,2.3,1.9s-.8,1.9-2.3,1.9h-4.4v12.8c0,1.3.3,2.1.8,2.5.6.4,1.4.6,2.5.6h.3c.9,0,1.6,0,2.2.2.6.1.9.6.9,1.5s-.4,1.6-1.3,1.8c-.9.3-1.9.4-3,.4ZM89.4,44.2c-2.2,0-4.1-.5-5.8-1.4-1.7-.9-3-2.3-3.9-4.1-.9-1.8-1.4-4-1.4-6.6s.5-4.6,1.4-6.4c.9-1.8,2.2-3.2,3.8-4.2,1.6-1,3.5-1.5,5.6-1.5s3.9.5,5.4,1.5c1.5,1,2.6,2.3,3.4,3.8.8,1.6,1.2,3.2,1.2,4.9s-.2,1.6-.6,1.9c-.4.3-.9.4-1.7.4h-14.3c0,2.6.7,4.5,1.9,5.9,1.3,1.3,2.9,2,5,2s4.3-1,5.5-2.9c.5-.5,1-.9,1.4-1.1.4-.2.9-.1,1.4.2.5.4.8.8.9,1.3,0,.5-.1,1.1-.6,1.8-1.1,1.5-2.3,2.6-3.8,3.4-1.4.7-3.1,1.1-5,1.1ZM82.8,29.1h12.1c-.3-1.7-.9-3-1.9-4-1-1-2.3-1.5-3.9-1.5s-3,.5-4.1,1.4c-1.1.9-1.8,2.3-2.2,4.1ZM111.7,53.3c-1.4,0-2.2-.8-2.2-2.3v-28.2c0-1.5.6-2.3,1.9-2.3s1.9.3,2,1v2.3c.9-1.2,2-2.2,3.2-2.8s2.6-1,4.1-1,4,.5,5.6,1.5c1.6,1,2.9,2.4,3.8,4.2,1,1.8,1.4,3.9,1.4,6.4s-.5,4.6-1.4,6.4c-.9,1.8-2.2,3.2-3.8,4.2-1.6,1-3.5,1.4-5.6,1.4s-2.7-.3-3.9-.9c-1.2-.6-2.1-1.5-2.9-2.6v10.4c0,1.5-.7,2.3-2.2,2.3ZM120.5,40.2c2,0,3.6-.7,4.9-2.2,1.3-1.5,1.9-3.5,1.9-6s-.6-4.5-1.9-6c-1.3-1.4-2.9-2.2-4.9-2.2s-3.6.7-4.9,2.2c-1.3,1.4-1.9,3.4-1.9,6s.6,4.5,1.9,6c1.3,1.4,2.9,2.2,4.9,2.2ZM144.4,44.2c-.9,0-1.7-.3-2.3-.9-.6-.6-.9-1.4-.9-2.3s.3-1.7.9-2.3c.6-.6,1.4-1,2.3-1s1.6.3,2.2,1c.6.6,1,1.4,1,2.3s-.3,1.6-1,2.3c-.6.6-1.3.9-2.2.9ZM165.7,44.2c-1.9,0-3.6-.4-5-1.3-1.4-.9-2.5-2.1-3.4-3.7-.4-.7-.5-1.3-.3-1.8.2-.5.6-.9,1.3-1.1.6-.2,1.2-.2,1.6,0,.4.2.8.6,1.3,1.2.4.8,1,1.4,1.8,1.9.8.5,1.7.8,2.7.8,1.9,0,3.4-.5,4.5-1.4,1.1-1,1.6-2.5,1.6-4.6s-.6-3.4-1.8-4.6c-1.2-1.2-2.7-1.7-4.7-1.7s-2-.6-2-1.9.7-1.9,2-1.9,3.2-.5,4.1-1.6c1-1.1,1.4-2.4,1.4-4s-.5-3.1-1.6-3.9c-1.1-.8-2.3-1.2-3.7-1.2s-1.7.3-2.4.8c-.7.5-1.2,1.1-1.7,1.9-.4.5-.8.9-1.3,1.2-.4.2-.9.2-1.6,0-.6-.3-1-.6-1.2-1.2-.2-.5,0-1.1.4-1.7.9-1.6,2.1-2.8,3.4-3.6,1.4-.8,2.9-1.2,4.4-1.2,2.8,0,5.1.8,6.8,2.4,1.8,1.6,2.6,3.7,2.6,6.4s-.4,3.3-1.3,4.6-2.1,2.3-3.6,3c1.7.6,3.1,1.7,4.1,3.2,1.1,1.5,1.6,3.3,1.6,5.2,0,2.9-.9,5.3-2.6,7.1-1.7,1.8-4.3,2.7-7.6,2.7Z"/>
      </g>
    </mask>
  </defs>
  <!-- Generator: Adobe Illustrator 28.6.0, SVG Export Plug-In . SVG Version: 1.2.0 Build 709)  -->
  <g>
    <g id="_レイヤー_1" data-name="レイヤー_1">
      <path class="cls-3" d="M34.1,44.2c-2.3,0-4.5-.4-6.5-1.2-2-.8-3.7-2-5.1-3.8-.4-.6-.6-1.2-.5-1.7.1-.5.5-1,1.1-1.3.6-.4,1.1-.5,1.6-.3.5,0,1,.4,1.5,1,1,1,2.1,1.8,3.5,2.3,1.3.5,2.9.8,4.7.8s4-.4,5.2-1.3c1.3-.9,1.9-2.2,1.9-3.9s-.2-1.9-.7-2.6c-.4-.8-1.3-1.5-2.7-2.1-1.3-.6-3.4-1.2-6.1-1.7-6.2-1.3-9.3-4.5-9.3-9.5s.5-3.6,1.4-5c.9-1.4,2.2-2.6,3.9-3.4,1.7-.8,3.6-1.3,5.8-1.3s4.1.4,5.9,1.2c1.7.7,3.3,1.7,4.6,2.9.5.5.7,1,.6,1.6,0,.5-.4,1-.9,1.5-.6.4-1.1.6-1.6.6-.5,0-1-.4-1.5-.9-1-.8-2-1.4-3.1-1.9-1.1-.5-2.4-.7-3.9-.7s-3.4.4-4.7,1.3c-1.2.9-1.8,2.1-1.8,3.8s.2,1.7.6,2.5c.4.7,1.2,1.3,2.3,1.9,1.1.5,2.7,1,4.8,1.5,4,.8,6.8,2.1,8.6,3.8,1.8,1.7,2.6,3.8,2.6,6.5s-.5,3.8-1.5,5.2c-1,1.4-2.4,2.5-4.2,3.2-1.8.7-3.8,1.1-6.2,1.1ZM65.7,44.2c-2.2,0-3.8-.4-5-1.3-1.1-.9-1.7-2.5-1.7-4.9v-13.7h-2.4c-1.5,0-2.3-.6-2.3-1.9s.2-1.1.5-1.4c.4-.3.9-.5,1.8-.5h2.4v-6c0-1.5.7-2.3,2.2-2.3s2.1.8,2.1,2.3v6h4.4c1.5,0,2.3.6,2.3,1.9s-.8,1.9-2.3,1.9h-4.4v12.8c0,1.3.3,2.1.8,2.5.6.4,1.4.6,2.5.6h.3c.9,0,1.6,0,2.2.2.6.1.9.6.9,1.5s-.4,1.6-1.3,1.8c-.9.3-1.9.4-3,.4ZM89.4,44.2c-2.2,0-4.1-.5-5.8-1.4-1.7-.9-3-2.3-3.9-4.1-.9-1.8-1.4-4-1.4-6.6s.5-4.6,1.4-6.4c.9-1.8,2.2-3.2,3.8-4.2,1.6-1,3.5-1.5,5.6-1.5s3.9.5,5.4,1.5c1.5,1,2.6,2.3,3.4,3.8.8,1.6,1.2,3.2,1.2,4.9s-.2,1.6-.6,1.9c-.4.3-.9.4-1.7.4h-14.3c0,2.6.7,4.5,1.9,5.9,1.3,1.3,2.9,2,5,2s4.3-1,5.5-2.9c.5-.5,1-.9,1.4-1.1.4-.2.9-.1,1.4.2.5.4.8.8.9,1.3,0,.5-.1,1.1-.6,1.8-1.1,1.5-2.3,2.6-3.8,3.4-1.4.7-3.1,1.1-5,1.1ZM82.8,29.1h12.1c-.3-1.7-.9-3-1.9-4-1-1-2.3-1.5-3.9-1.5s-3,.5-4.1,1.4c-1.1.9-1.8,2.3-2.2,4.1ZM111.7,53.3c-1.4,0-2.2-.8-2.2-2.3v-28.2c0-1.5.6-2.3,1.9-2.3s1.9.3,2,1v2.3c.9-1.2,2-2.2,3.2-2.8s2.6-1,4.1-1,4,.5,5.6,1.5c1.6,1,2.9,2.4,3.8,4.2,1,1.8,1.4,3.9,1.4,6.4s-.5,4.6-1.4,6.4c-.9,1.8-2.2,3.2-3.8,4.2-1.6,1-3.5,1.4-5.6,1.4s-2.7-.3-3.9-.9c-1.2-.6-2.1-1.5-2.9-2.6v10.4c0,1.5-.7,2.3-2.2,2.3ZM120.5,40.2c2,0,3.6-.7,4.9-2.2,1.3-1.5,1.9-3.5,1.9-6s-.6-4.5-1.9-6c-1.3-1.4-2.9-2.2-4.9-2.2s-3.6.7-4.9,2.2c-1.3,1.4-1.9,3.4-1.9,6s.6,4.5,1.9,6c1.3,1.4,2.9,2.2,4.9,2.2ZM144.4,44.2c-.9,0-1.7-.3-2.3-.9-.6-.6-.9-1.4-.9-2.3s.3-1.7.9-2.3c.6-.6,1.4-1,2.3-1s1.6.3,2.2,1c.6.6,1,1.4,1,2.3s-.3,1.6-1,2.3c-.6.6-1.3.9-2.2.9ZM165.7,44.2c-1.9,0-3.6-.4-5-1.3-1.4-.9-2.5-2.1-3.4-3.7-.4-.7-.5-1.3-.3-1.8.2-.5.6-.9,1.3-1.1.6-.2,1.2-.2,1.6,0,.4.2.8.6,1.3,1.2.4.8,1,1.4,1.8,1.9.8.5,1.7.8,2.7.8,1.9,0,3.4-.5,4.5-1.4,1.1-1,1.6-2.5,1.6-4.6s-.6-3.4-1.8-4.6c-1.2-1.2-2.7-1.7-4.7-1.7s-2-.6-2-1.9.7-1.9,2-1.9,3.2-.5,4.1-1.6c1-1.1,1.4-2.4,1.4-4s-.5-3.1-1.6-3.9c-1.1-.8-2.3-1.2-3.7-1.2s-1.7.3-2.4.8c-.7.5-1.2,1.1-1.7,1.9-.4.5-.8.9-1.3,1.2-.4.2-.9.2-1.6,0-.6-.3-1-.6-1.2-1.2-.2-.5,0-1.1.4-1.7.9-1.6,2.1-2.8,3.4-3.6,1.4-.8,2.9-1.2,4.4-1.2,2.8,0,5.1.8,6.8,2.4,1.8,1.6,2.6,3.7,2.6,6.4s-.4,3.3-1.3,4.6-2.1,2.3-3.6,3c1.7.6,3.1,1.7,4.1,3.2,1.1,1.5,1.6,3.3,1.6,5.2,0,2.9-.9,5.3-2.6,7.1-1.7,1.8-4.3,2.7-7.6,2.7Z"/>
      <g class="cls-1">
        <path class="cls-2" d="M27.5,43.1l-.9,2.2h0s0,0,0,0l.9-2.2ZM22.4,39.3l-1.9,1.4h0c0,0,0,.1,0,.1l1.8-1.5ZM21.9,37.7l-2.3-.6h0c0,0,0,.1,0,.1l2.4.4ZM23,36.3l1.2,2.1h0s0,0,0,0l-1.3-2.1ZM24.6,36l-.6,2.3h0s0,0,0,0l.4-2.4ZM26.1,36.9l-1.8,1.6h0s0,0,0,0l1.7-1.7ZM29.6,39.2l-.9,2.2h0s0,0,0,0l.9-2.2ZM40.7,32.1l-2.1,1.2h0s0,0,0,0l2.1-1.3ZM38,30l1-2.2h0l-1,2.2ZM31.9,28.3l-.5,2.3h0s0,0,0,0l.5-2.4ZM24,13.8l-2-1.3h0l2,1.3ZM27.9,10.4l1,2.2h0s0,0,0,0l-1.1-2.2ZM39.6,10.3l-1,2.2h0s0,0,0,0l.9-2.2ZM44.1,13.2l1.8-1.6h0c0,0,0-.1,0-.1l-1.6,1.8ZM44.7,14.8l-2.4-.3h0s2.4.3,2.4.3ZM43.8,16.3l1.5,1.9h0s0,0,0,0l-1.5-1.9ZM42.2,16.9l-.3,2.4h0s0,0,0,0l.3-2.4ZM40.7,16l1.6-1.8h0s0,0,0,0l-1.5,1.8ZM37.5,14.1l-.9,2.2h0s0,0,0,0l.9-2.2ZM29,14.8l1.4,2h0s0,0,0,0l-1.4-2ZM27.7,21.1l-2.1,1.1h0c0,0,0,.1,0,.1l2.1-1.2ZM30,22.9l-1.1,2.2h0l1.1-2.2ZM34.7,24.4l-.5,2.4h0s0,0,0,0l.5-2.4ZM43.3,28.2l-1.7,1.7h0s0,0,0,0l1.7-1.7ZM44.4,39.9l-2-1.4h0s2,1.4,2,1.4ZM40.2,43.1l-.9-2.2h0s0,0,0,0l.9,2.2ZM34.1,41.8c-2.1,0-4-.3-5.7-1l-1.7,4.5c2.3.9,4.8,1.3,7.4,1.3v-4.8ZM28.4,40.9c-1.6-.6-3-1.6-4.2-3l-3.7,3.1c1.7,2,3.7,3.5,6.1,4.5l1.7-4.5ZM24.3,37.9c-.1-.1-.1-.2-.1-.2,0,0,0,0,0,.1,0,0,0,.1,0,.2l-4.7-.9c-.3,1.4.3,2.7,1,3.6l3.9-2.9ZM24.2,38.2s0,0,0,.1c0,0,0,0,0,0,0,0,0,0,0,0l-2.4-4.2c-1,.6-1.9,1.5-2.2,2.9l4.7,1.1ZM24.2,38.4c.1,0,.1,0,0,0,0,0,0,0-.1,0,0,0-.1,0-.2,0l1.2-4.6c-1.3-.4-2.5,0-3.5.6l2.5,4.1ZM24.1,38.3c0,0-.1,0,0,0,0,0,.1.1.3.3l3.5-3.3c-.7-.8-1.7-1.5-2.8-1.7l-.9,4.7ZM24.4,38.6c1.2,1.2,2.6,2.2,4.3,2.9l1.8-4.5c-1.1-.4-1.9-1-2.6-1.8l-3.5,3.3ZM28.7,41.5c1.7.6,3.5.9,5.5.9v-4.8c-1.5,0-2.8-.2-3.8-.6l-1.7,4.5ZM34.2,42.4c2.5,0,4.8-.5,6.6-1.8l-2.8-3.9c-.7.5-1.9.9-3.8.9v4.8ZM40.9,40.6c2-1.4,2.9-3.5,2.9-5.9h-4.8c0,1.1-.3,1.6-.9,2l2.8,3.9ZM43.7,34.7c0-1.4-.3-2.7-1-3.9l-4.1,2.5c.2.3.3.7.3,1.4h4.8ZM42.7,30.9c-.8-1.4-2.2-2.4-3.8-3l-2,4.4c1.2.5,1.5,1,1.6,1.1l4.2-2.4ZM39,27.8c-1.6-.7-3.8-1.3-6.6-1.9l-.9,4.7c2.7.5,4.5,1.1,5.6,1.6l2-4.4ZM32.4,25.9c-2.8-.6-4.6-1.6-5.8-2.7-1.1-1.1-1.6-2.5-1.6-4.4h-4.8c0,3,1,5.7,3,7.8,2,2,4.8,3.3,8.2,4l1-4.7ZM25,18.8c0-1.5.4-2.7,1-3.7l-4-2.6c-1.2,1.9-1.8,4-1.8,6.4h4.8ZM26,15.1c.7-1,1.6-1.9,2.9-2.5l-2.1-4.3c-2,1-3.7,2.4-4.9,4.2l4,2.6ZM28.9,12.5c1.3-.6,2.8-1,4.7-1v-4.8c-2.5,0-4.8.5-6.9,1.5l2.2,4.3ZM33.7,11.6c1.9,0,3.5.3,4.9.9l2-4.4c-2.1-.9-4.4-1.4-6.8-1.4v4.8ZM38.6,12.5c1.5.6,2.8,1.5,3.9,2.5l3.3-3.5c-1.5-1.4-3.3-2.5-5.3-3.4l-1.9,4.4ZM42.4,14.9c0,0,0,0,0,0,0,0,0,0,0-.2,0,0,0-.1,0-.2l4.8.6c.2-1.4-.4-2.6-1.3-3.5l-3.5,3.3ZM42.4,14.5s0,0,0-.1c0,0,0,0,0,0,0,0,0,0-.1.1l3.1,3.7c.9-.7,1.6-1.7,1.8-3.1l-4.8-.6ZM42.4,14.4c-.1.1-.2.1-.2.1,0,0,0,0,.1,0,0,0,.1,0,.2,0l-.6,4.8c1.4.2,2.5-.4,3.4-1.1l-3-3.8ZM42.5,14.5c.1,0,.2,0,.1,0,0,0-.2,0-.3-.3l-3.3,3.5c.7.7,1.7,1.3,2.9,1.5l.6-4.8ZM42.2,14.2c-1.1-1-2.4-1.7-3.8-2.3l-1.8,4.5c.9.4,1.7.8,2.5,1.5l3.1-3.7ZM38.5,11.9c-1.5-.6-3.1-.9-4.8-.9v4.8c1.2,0,2.2.2,2.9.5l1.9-4.4ZM33.6,11c-2.3,0-4.3.5-6.1,1.8l2.8,3.9c.8-.5,1.8-.9,3.3-.9v-4.8ZM27.6,12.8c-1.9,1.4-2.8,3.5-2.8,5.8h4.8c0-1,.3-1.5.8-1.9l-2.8-3.9ZM24.7,18.6c0,1.3.3,2.5.8,3.6l4.3-2.2c-.2-.4-.3-.8-.3-1.3h-4.8ZM25.7,22.3c.7,1.3,1.9,2.1,3.3,2.8l2.2-4.3c-.9-.4-1.2-.8-1.3-.9l-4.1,2.4ZM28.9,25.1c1.4.7,3.2,1.2,5.3,1.7l1-4.7c-2-.4-3.4-.9-4.2-1.3l-2.2,4.3ZM34.3,26.8c3.8.8,6.1,1.9,7.4,3.1l3.3-3.5c-2.2-2.1-5.6-3.5-9.7-4.4l-1,4.7ZM41.7,29.9c1.2,1.2,1.9,2.7,1.9,4.7h4.8c0-3.3-1.1-6.1-3.4-8.2l-3.3,3.5ZM43.5,34.7c0,1.6-.4,2.9-1.1,3.8l3.9,2.8c1.4-1.9,2-4.2,2-6.6h-4.8ZM42.4,38.5c-.7,1-1.7,1.8-3.1,2.4l1.8,4.4c2.2-.9,3.9-2.2,5.2-4.1l-3.9-2.8ZM39.3,40.9c-1.4.6-3.1.9-5.2.9v4.8c2.6,0,5-.4,7.1-1.3l-1.9-4.4ZM60.7,42.9l-1.5,1.9h0s0,0,0,0l1.4-1.9ZM59,24.3h2.4v-2.4h-2.4v2.4ZM54.9,21l1.6,1.8h0s0,0,0,0l-1.6-1.8ZM59,20.5v2.4h2.4v-2.4h-2.4ZM63.3,20.5h-2.4v2.4h2.4v-2.4ZM63.3,24.3v-2.4h-2.4v2.4h2.4ZM64.1,39.6l-1.5,1.9h0s0,0,0,0l1.4-1.9ZM69.1,40.5l-.6,2.3h0s0,0,0,0l.5-2.3ZM68.7,43.8l-.6-2.3h0s0,0,0,0l.7,2.3ZM65.7,41.7c-1.9,0-3-.4-3.5-.8l-2.9,3.9c1.7,1.3,4,1.7,6.4,1.7v-4.8ZM62.2,41c-.2-.2-.7-.8-.7-3h-4.8c0,2.6.6,5.2,2.6,6.8l2.9-3.8ZM61.4,38v-13.7h-4.8v13.7h4.8ZM59,21.9h-2.4v4.8h2.4v-4.8ZM56.6,21.9c-.2,0-.3,0-.3,0,0,0,0,0,.2.1.1.1.2.2.3.4,0,.1,0,.2,0,0h-4.8c0,1.1.4,2.4,1.4,3.3,1,.8,2.2,1,3.2,1v-4.8ZM56.8,22.4c0-.1,0-.1,0,0,0,0-.1.3-.3.4l-3.2-3.6c-1,.9-1.3,2.2-1.3,3.2h4.8ZM56.5,22.8c-.2.2-.3.2-.3.2,0,0,0,0,.1,0,0,0,.2,0,.3,0v-4.8c-1,0-2.4.2-3.4,1.1l3.2,3.6ZM56.6,22.9h2.4v-4.8h-2.4v4.8ZM61.4,20.5v-6h-4.8v6h4.8ZM61.4,14.5c0-.2,0-.3,0-.3,0,0,0,.1-.1.2,0,0-.1,0-.2.1,0,0,0,0-.1,0,0,0,0,0,.2,0v-4.8c-1.1,0-2.4.3-3.4,1.3-.9,1-1.2,2.3-1.2,3.4h4.8ZM61.2,14.7c.1,0,.2,0,.1,0,0,0,0,0-.1,0,0,0-.1,0-.2-.1-.1-.1-.1-.2-.1-.2,0,0,0,0,0,.3h4.8c0-1.1-.3-2.3-1.2-3.3-1-1-2.2-1.3-3.3-1.3v4.8ZM60.9,14.5v6h4.8v-6h-4.8ZM63.3,22.9h4.4v-4.8h-4.4v4.8ZM67.7,22.9c.2,0,.3,0,.3,0,0,0,0,0-.2-.1-.1-.1-.2-.2-.3-.4,0-.1,0-.2,0,0h4.8c0-1.1-.4-2.4-1.4-3.3-1-.8-2.2-1-3.2-1v4.8ZM67.6,22.4c0,0,0,0,0,0,0-.1.1-.3.3-.4.1,0,.2-.1.2-.1,0,0-.1,0-.3,0v4.8c1,0,2.2-.2,3.2-1,1.1-.9,1.4-2.1,1.4-3.3h-4.8ZM67.7,21.9h-4.4v4.8h4.4v-4.8ZM60.9,24.3v12.8h4.8v-12.8h-4.8ZM60.9,37.1c0,1.4.3,3.2,1.7,4.4l3.1-3.7c.2.1.2.2.1.1,0-.1,0-.4,0-.8h-4.8ZM62.7,41.6c1.2.8,2.6,1.1,4,1.1v-4.8c-.4,0-.7,0-.9,0-.2,0-.2,0-.2,0l-2.8,3.9ZM66.7,42.7h.3v-4.8h-.3v4.8ZM67,42.7c.7,0,1.2,0,1.5.2l1.3-4.6c-.9-.2-1.8-.3-2.8-.3v4.8ZM68.6,42.8c-.1,0-.3,0-.5-.2-.2-.1-.3-.3-.4-.4-.2-.3-.1-.4-.1-.2h4.8c0-.7-.1-1.5-.5-2.2-.5-.8-1.3-1.4-2.2-1.6l-1,4.7ZM67.6,42c0,.1,0,0,.2-.3.2-.2.4-.3.3-.3l1.2,4.7c.8-.2,1.7-.7,2.3-1.5.6-.8.8-1.8.8-2.6h-4.8ZM68,41.5c-.6.2-1.4.3-2.3.3v4.8c1.3,0,2.5-.1,3.7-.5l-1.4-4.6ZM83.6,42.8l1.2-2.1-1.2,2.1ZM79.7,38.7l-2.1,1.1h0s0,0,0,0l2.1-1.1ZM79.7,25.7l2.1,1.1h0s0,0,0,0l-2.1-1.1ZM83.5,21.5l-1.2-2.1h0s0,0,0,0l1.3,2ZM94.5,21.5l-1.4,2h0s0,0,0,0l1.3-2ZM97.9,25.4l-2.2,1.1h0s0,0,0,0l2.1-1.1ZM98.6,32.1l1.4,1.9h0s0,0,0,0l-1.5-1.8ZM82.5,32.5v-2.4h-2.5v2.5c0,0,2.5,0,2.5,0ZM84.5,38.4l-1.8,1.6h0s0,0,0,0l1.7-1.7ZM95,37.4l-1.8-1.6-.2.2v.2c-.1,0,1.9,1.3,1.9,1.3ZM96.4,36.4l.8,2.3h0s0,0,0,0l-.9-2.2ZM97.8,36.6l-1.4,2h0s0,0,0,0l1.3-2ZM98.7,37.9l-2.4.3h0c0,0,0,.1,0,.1l2.4-.4ZM98.1,39.7l-1.9-1.5h0c0,0,0,.1,0,.1l2,1.4ZM94.3,43.1l1.1,2.2h0s0,0,0,0l-1.1-2.2ZM82.8,29.1l-2.4-.5-.6,2.9h2.9v-2.4ZM94.9,29.1v2.4h2.8l-.4-2.8-2.4.4ZM84.9,24.9l1.6,1.8h0s0,0,0,0l-1.6-1.8ZM89.4,41.7c-1.8,0-3.3-.4-4.6-1.1l-2.3,4.2c2.1,1.2,4.4,1.7,6.9,1.7v-4.8ZM84.8,40.7c-1.2-.7-2.2-1.7-2.9-3.1l-4.3,2.2c1.1,2.2,2.8,3.9,4.9,5.1l2.3-4.2ZM81.9,37.6c-.7-1.4-1.1-3.2-1.1-5.5h-4.8c0,2.9.5,5.4,1.7,7.7l4.3-2.2ZM80.7,32.1c0-2.2.4-3.9,1.1-5.3l-4.3-2.2c-1.1,2.2-1.7,4.7-1.7,7.5h4.8ZM81.9,26.8c.7-1.5,1.7-2.5,2.9-3.3l-2.5-4.1c-2,1.2-3.6,3-4.7,5.2l4.3,2.2ZM84.8,23.5c1.2-.7,2.7-1.1,4.4-1.1v-4.8c-2.5,0-4.8.6-6.9,1.8l2.5,4.1ZM89.1,22.4c1.7,0,3,.4,4,1.1l2.7-3.9c-1.9-1.4-4.2-2-6.8-2v4.8ZM93.2,23.5c1.2.8,2,1.7,2.6,2.9l4.3-2.1c-1-2-2.4-3.6-4.2-4.8l-2.6,4ZM95.8,26.4c.6,1.3.9,2.5.9,3.8h4.8c0-2.1-.5-4.1-1.5-5.9l-4.3,2.2ZM96.7,30.2c0,.2,0,.3,0,.3,0,0,0,.1,0,.1,0,0,0,0,0-.1,0,0,.1-.2.3-.3l3.1,3.7c1.3-1,1.4-2.6,1.4-3.7h-4.8ZM97.1,30.2c.1,0,.2,0,.1,0,0,0-.2,0-.4,0v4.8c1,0,2.2-.2,3.1-.9l-2.9-3.8ZM96.9,30.1h-14.3v4.8h14.3v-4.8ZM80.1,32.6c0,2.9.8,5.5,2.5,7.4l3.6-3.2c-.7-.8-1.2-2.1-1.3-4.3h-4.8ZM82.7,40c1.8,1.9,4.1,2.7,6.7,2.7v-4.8c-1.5,0-2.5-.5-3.2-1.2l-3.5,3.3ZM89.4,42.8c3.2,0,5.8-1.4,7.6-4l-4.1-2.6c-.8,1.2-1.8,1.8-3.5,1.8v4.8ZM96.7,39.1c.2-.2.3-.3.4-.4,0,0,.1,0,0,0l-1.6-4.5c-1,.3-1.7,1-2.4,1.7l3.5,3.3ZM97.3,38.6c-.2,0-.4.1-.6,0-.2,0-.3,0-.2,0l2.7-4c-1-.7-2.3-1.1-3.8-.5l1.9,4.4ZM96.5,38.6c0,0,0,0,0,0,0,0-.1-.2-.1-.3l4.8-.6c-.2-1.4-1-2.4-2-3.1l-2.6,4ZM96.4,38.4c0,0,0-.2,0-.2,0,0,0-.1,0-.1,0,0,0,0,0,0,0,0,0,.1-.1.2l3.8,3c.7-.9,1.4-2.2,1.1-3.7l-4.7.8ZM96.2,38.3c-.9,1.2-1.8,2.1-2.9,2.6l2.2,4.3c1.9-.9,3.4-2.3,4.7-4.1l-3.9-2.8ZM93.3,40.9c-1.1.5-2.3.8-3.9.8v4.8c2.2,0,4.2-.4,6-1.3l-2.1-4.3ZM82.8,31.5h12.1v-4.8h-12.1v4.8ZM97.3,28.7c-.3-2.1-1.2-3.9-2.6-5.4l-3.4,3.4c.6.6,1.1,1.5,1.2,2.7l4.8-.7ZM94.7,23.3c-1.5-1.5-3.4-2.2-5.6-2.2v4.8c1,0,1.7.3,2.2.8l3.4-3.4ZM89.1,21.1c-2.2,0-4.1.6-5.7,2l3.2,3.6c.6-.5,1.4-.8,2.5-.8v-4.8ZM83.4,23.1c-1.6,1.4-2.5,3.3-3,5.5l4.7.9c.3-1.5.8-2.3,1.4-2.8l-3.1-3.7ZM113.4,21.6h2.4c0-.1,0-.1,0-.1h0s-2.4.1-2.4.1ZM113.5,23.8h-2.4c0,.1.3,7.3.3,7.3l4.1-6-2-1.4ZM116.6,21l1.2,2.1-1.2-2.1ZM126.3,21.5l-1.2,2.1h0s0,0,0,0l1.2-2.1ZM130.1,25.6l-2.1,1.1h0s0,0,0,0l2.1-1.1ZM130.1,38.5l-2.1-1.1h0s0,0,0,0l2.1,1.1ZM126.3,42.7l1.2,2.1h0s0,0,0,0l-1.2-2.1ZM116.8,43.2l-1.2,2.1h0s0,0,0,0l1.1-2.1ZM113.8,40.6l1.9-1.4-4.3-5.9v7.3h2.4ZM125.4,38l1.8,1.6h0s0,0,0,0l-1.8-1.6ZM125.4,26.1l-1.8,1.6,1.8-1.6ZM115.6,26.1l-1.8-1.6h0s0,0,0,0l1.8,1.6ZM115.6,38l-1.8,1.6h0s0,0,0,0l1.8-1.6ZM111.7,50.9c-.2,0-.2,0-.1,0,0,0,0,0,.1,0,0,0,.1,0,.2.1.1.1.1.2.1.2,0,0,0,0,0,0,0,0,0-.1,0-.2h-4.8c0,1.1.3,2.4,1.2,3.4,1,1,2.2,1.3,3.4,1.3v-4.8ZM111.9,51v-28.2h-4.8v28.2h4.8ZM111.9,22.8c0-.2,0-.3,0-.3,0,0,0,0-.1.2-.1.1-.2.2-.4.3,0,0-.1,0,0,0v-4.8c-1.1,0-2.4.3-3.3,1.4-.8,1-1.1,2.2-1.1,3.3h4.8ZM111.4,22.9c.2,0,.4,0,.4,0,0,0,0,0,0,0-.1,0-.3-.2-.5-.5-.2-.3-.3-.6-.3-.8l4.8-.2c0-1.3-.8-2.3-1.8-2.8-.8-.4-1.8-.5-2.6-.5v4.8ZM111,21.7v2.3c0,0,4.9-.2,4.9-.2v-2.3c0,0-4.9.2-4.9.2ZM115.5,25.2c.6-.9,1.4-1.6,2.3-2.1l-2.3-4.2c-1.6.9-2.9,2.1-3.9,3.6l4,2.7ZM117.7,23.1c.8-.5,1.8-.7,2.9-.7v-4.8c-1.9,0-3.6.4-5.3,1.3l2.3,4.2ZM120.7,22.4c1.7,0,3.2.4,4.4,1.1l2.5-4.1c-2.1-1.2-4.4-1.8-6.9-1.8v4.8ZM125.1,23.5c1.2.7,2.2,1.7,2.9,3.2l4.3-2.2c-1.1-2.2-2.7-4-4.8-5.2l-2.4,4.1ZM128,26.8c.7,1.4,1.2,3.1,1.2,5.3h4.8c0-2.8-.5-5.3-1.7-7.5l-4.2,2.3ZM129.2,32c0,2.2-.4,3.9-1.2,5.3l4.3,2.2c1.2-2.2,1.7-4.8,1.7-7.6h-4.8ZM128,37.4c-.7,1.5-1.7,2.5-3,3.3l2.5,4.1c2-1.2,3.6-3,4.7-5.2l-4.3-2.2ZM125.1,40.6c-1.2.7-2.7,1.1-4.4,1.1v4.8c2.5,0,4.8-.6,6.8-1.8l-2.4-4.1ZM120.7,41.7c-1.1,0-2-.2-2.8-.6l-2.2,4.3c1.5.8,3.2,1.2,5,1.2v-4.8ZM117.9,41.1c-.8-.5-1.6-1.1-2.2-1.9l-3.9,2.8c1,1.4,2.2,2.5,3.7,3.3l2.3-4.2ZM111.4,40.6v10.4h4.8v-10.4h-4.8ZM111.4,51c0,0,0,.2,0,.2,0,0,0,0,0,0,0,0,0,0,.1-.2,0,0,.1,0,.2-.1,0,0,0,0,.1,0,0,0,0,0-.1,0v4.8c1.1,0,2.4-.3,3.4-1.3.9-1,1.2-2.3,1.2-3.4h-4.8ZM120.5,42.6c2.6,0,4.9-1,6.7-3l-3.6-3.2c-.8.9-1.8,1.4-3.1,1.4v4.8ZM127.2,39.6c1.8-2,2.5-4.7,2.5-7.6h-4.8c0,2.1-.5,3.5-1.3,4.4l3.6,3.2ZM129.7,32c0-2.9-.7-5.6-2.5-7.6l-3.6,3.2c.8.9,1.3,2.2,1.3,4.4h4.8ZM127.2,24.5c-1.7-2-4-3-6.7-3v4.8c1.3,0,2.2.4,3.1,1.4l3.6-3.2ZM120.5,21.5c-2.6,0-4.9,1-6.7,3l3.6,3.2c.8-.9,1.8-1.4,3.1-1.4v-4.8ZM113.8,24.5c-1.7,2-2.5,4.6-2.5,7.5h4.8c0-2.1.5-3.5,1.3-4.4l-3.6-3.1ZM111.4,32c0,2.9.7,5.5,2.4,7.6l3.7-3.1c-.8-.9-1.3-2.3-1.3-4.5h-4.8ZM113.9,39.6c1.7,2,4,3,6.7,3v-4.8c-1.3,0-2.2-.4-3.1-1.4l-3.6,3.2ZM142.1,43.2l-1.7,1.7h0s0,0,0,0l1.7-1.7ZM142.1,38.7l-1.7-1.7,1.7,1.7ZM146.6,38.7l-1.7,1.7h0s0,0,0,0l1.7-1.7ZM146.6,43.2l-1.7-1.7,1.7,1.7ZM144.4,41.7c-.3,0-.5,0-.7-.3l-3.3,3.5c1.1,1,2.5,1.6,4,1.6v-4.8ZM143.9,41.6c-.2-.2-.3-.4-.3-.6h-4.8c0,1.5.6,2.8,1.6,3.9l3.5-3.3ZM143.6,41c0-.3,0-.4.2-.6l-3.4-3.4c-1.1,1.1-1.6,2.5-1.6,4h4.8ZM143.8,40.4c.2-.2.4-.3.6-.3v-4.8c-1.5,0-2.9.6-4,1.7l3.4,3.4ZM144.4,40.2c.2,0,.3,0,.5.2l3.5-3.3c-1.1-1.1-2.4-1.7-4-1.7v4.8ZM145,40.5c.2.1.2.3.2.5h4.8c0-1.5-.6-2.9-1.7-4l-3.3,3.5ZM145.2,41c0,.2,0,.3-.3.6l3.4,3.4c1.1-1.1,1.7-2.4,1.7-4h-4.8ZM144.9,41.5c-.2.2-.3.2-.5.2v4.8c1.5,0,2.8-.6,3.9-1.6l-3.4-3.4ZM160.7,42.9l-1.3,2h0s0,0,0,0l1.2-2.1ZM157.4,39.2l2.1-1.1h0s0,0,0,0l-2.1,1.2ZM157.1,37.4l2.2,1h0s0,0,0,0l-2.2-1ZM158.3,36.3l-.7-2.3h0s0,0,0,0l.8,2.3ZM159.9,36.4l-1.1,2.1,1.1-2.1ZM161.2,37.5l2.1-1.2h0c0-.1,0-.2,0-.2l-1.9,1.5ZM162.9,39.4l-1.4,2h0s0,0,0,0l1.3-2ZM170.1,38.8l1.6,1.8h0s0,0,0,0l-1.6-1.8ZM170,29.6l-1.7,1.7h0s0,0,0,0l1.7-1.7ZM169.5,22.5l-1.8-1.6h0s0,0,0,0l1.8,1.6ZM169.3,14.5l-1.4,1.9h0s0,0,0,0l1.4-2ZM163.2,14.1l-1.5-1.9h0l1.5,1.9ZM161.5,16l1.9,1.5h0c0-.1,0-.2,0-.2l-2.1-1.3ZM160.2,17.2l1,2.2h0s0,0,0,0l-1.1-2.2ZM158.7,17.1l-.9,2.2h0s0,0,0,0l.9-2.2ZM157.5,15.9l2.3-.7h0l-2.3.7ZM157.9,14.2l2,1.3h0s0,0,0,0l-2.1-1.2ZM161.3,10.6l-1.2-2.1h0s0,0,0,0l1.2,2.1ZM172.6,11.8l-1.6,1.8h0s0,0,0,0l1.6-1.8ZM170.3,25.9l-1-2.2-5.6,2.4,5.7,2,.8-2.3ZM174.4,29.1l-2,1.4,2-1.4ZM173.4,41.4l-1.7-1.7h0s0,0,0,0l1.7,1.7ZM165.7,41.7c-1.5,0-2.7-.3-3.8-1l-2.5,4.1c1.9,1.1,4,1.6,6.2,1.6v-4.8ZM162,40.8c-1-.7-1.9-1.6-2.5-2.8l-4.2,2.3c1,1.9,2.4,3.4,4.2,4.5l2.6-4.1ZM159.4,38c-.1-.2,0-.2,0-.1,0,0,0,.1,0,.2,0,.1,0,.2-.1.4l-4.4-2c-.7,1.5-.2,3,.4,4l4.1-2.4ZM159.3,38.4s0,0,0,0,0,0,0,0c0,0,0,0,0,0l-1.7-4.5c-1.1.4-2.1,1.2-2.6,2.4l4.4,1.9ZM159,38.6c.1,0,.2,0,.1,0,0,0,0,0-.1,0,0,0-.1,0-.2,0l2.3-4.2c-1.2-.6-2.4-.5-3.4-.2l1.4,4.6ZM158.8,38.5s0,0,.1.1c0,0,.2.2.3.4l3.8-2.9c-.5-.7-1.2-1.4-2-1.8l-2.3,4.2ZM159.1,38.7c.6,1.1,1.5,2,2.5,2.7l2.7-3.9c-.5-.3-.8-.7-1.1-1.2l-4.2,2.4ZM161.6,41.4c1.2.8,2.6,1.2,4,1.2v-4.8c-.6,0-1-.1-1.4-.4l-2.7,4ZM165.6,42.6c2.3,0,4.5-.6,6.1-2l-3.2-3.6c-.5.5-1.4.8-2.9.8v4.8ZM171.8,40.5c1.8-1.6,2.4-3.9,2.4-6.4h-4.8c0,1.7-.4,2.5-.9,2.8l3.2,3.6ZM174.2,34.2c0-2.4-.8-4.6-2.5-6.3l-3.4,3.4c.7.6,1.1,1.5,1.1,2.8h4.8ZM171.7,27.9c-1.7-1.7-3.9-2.4-6.4-2.4v4.8c1.5,0,2.3.4,3,1l3.4-3.4ZM165.3,25.4c-.3,0,0,0,.2.2.1.1.2.3.2.3,0,0,0,0,0,0h-4.8c0,1,.3,2.2,1.2,3.2.9.9,2.1,1.2,3.2,1.2v-4.8ZM165.8,25.9c0-.1,0-.1,0,0,0,0-.1.2-.2.4-.3.3-.5.2-.2.2v-4.8c-1,0-2.2.2-3.1,1.1-1,.9-1.2,2.1-1.2,3.1h4.8ZM165.3,26.5c2.3,0,4.4-.7,5.9-2.4l-3.6-3.2c-.3.4-1,.8-2.3.8v4.8ZM171.3,24.1c1.4-1.6,2.1-3.5,2.1-5.7h-4.8c0,1.1-.3,1.9-.8,2.4l3.6,3.2ZM173.3,18.4c0-2.3-.7-4.5-2.7-5.9l-2.8,3.9c.2.2.6.6.6,1.9h4.8ZM170.7,12.6c-1.5-1.1-3.2-1.6-5.1-1.6v4.8c.9,0,1.6.2,2.2.7l2.8-3.9ZM165.6,11c-1.4,0-2.7.4-3.9,1.3l2.9,3.8c.2-.2.5-.3.9-.3v-4.8ZM161.8,12.2c-.9.7-1.7,1.5-2.3,2.5l4.1,2.5c.3-.5.7-.9,1.1-1.2l-2.9-3.8ZM159.6,14.6c-.3.4-.4.5-.5.5l2.2,4.3c.9-.4,1.6-1.1,2.1-1.8l-3.8-2.9ZM159.2,15c.2,0,.4-.1.4,0,0,0,0,0-.1,0l-1.8,4.5c.9.4,2.2.6,3.5,0l-2-4.4ZM159.6,14.9c0,0,0,0,0,0,0,0,0,0,.1.1,0,0,0,.1,0,.2l-4.6,1.4c.4,1.3,1.4,2.2,2.5,2.7l1.9-4.4ZM159.8,15.2c0,0,0,.2,0,.2,0,0,0,.1,0,.2,0,0,0,0,0-.1l-4-2.6c-.6,1-1.1,2.3-.7,3.8l4.6-1.4ZM160,15.4c.8-1.3,1.6-2.2,2.6-2.7l-2.5-4.1c-1.7,1-3.2,2.5-4.3,4.4l4.1,2.4ZM162.5,12.7c1-.6,2.1-.9,3.2-.9v-4.8c-2,0-3.9.5-5.6,1.5l2.4,4.2ZM165.7,11.8c2.3,0,4,.7,5.2,1.8l3.3-3.5c-2.3-2.1-5.2-3-8.5-3v4.8ZM171,13.6c1.2,1,1.8,2.5,1.8,4.6h4.8c0-3.3-1.1-6.1-3.4-8.2l-3.2,3.6ZM172.8,18.3c0,1.3-.3,2.4-.9,3.3l4,2.7c1.2-1.8,1.8-3.8,1.8-5.9h-4.8ZM171.9,21.6c-.6,1-1.5,1.7-2.5,2.1l1.9,4.4c1.9-.8,3.4-2.1,4.6-3.9l-4-2.7ZM169.5,28.1c1.2.4,2.2,1.2,3,2.3l3.9-2.8c-1.3-1.9-3.1-3.3-5.3-4.1l-1.6,4.5ZM172.5,30.4c.8,1.1,1.2,2.3,1.2,3.9h4.8c0-2.4-.7-4.7-2-6.6l-3.9,2.8ZM173.6,34.3c0,2.4-.7,4.1-2,5.4l3.5,3.3c2.3-2.3,3.3-5.3,3.3-8.8h-4.8ZM171.6,39.8c-1.1,1.2-3,2-5.9,2v4.8c3.8,0,7.1-1,9.4-3.5l-3.5-3.3Z"/>
      </g>
    </g>
  </g>
</svg>