<?xml version="1.0" encoding="UTF-8"?>
<svg xmlns="http://www.w3.org/2000/svg" xmlns:xlink="http://www.w3.org/1999/xlink" version="1.1" viewBox="0 0 192 57">
  <defs>
    <style>
      .cls-1 {
        mask: url(#mask);
      }

      .cls-2 {
        fill: #a9b527;
      }

      .cls-3 {
        fill: #fff;
      }
    </style>
    <mask id="mask" x="16.1" y="6.2" width="154" height="49" maskUnits="userSpaceOnUse">
      <g id="path-1-outside-1_759_153">
        <rect class="cls-3" x="16.1" y="6.2" width="154" height="49"/>
        <path d="M30.5,43.3c-2.3,0-4.4-.4-6.3-1.1-1.9-.7-3.6-2-5-3.6-.4-.6-.6-1.1-.5-1.6.1-.5.5-1,1.1-1.3.6-.3,1.1-.5,1.5-.3.5,0,1,.4,1.5.9.9,1,2.1,1.7,3.4,2.2,1.3.5,2.8.7,4.5.7s3.9-.4,5.1-1.3c1.2-.9,1.8-2.1,1.8-3.8s-.2-1.9-.7-2.6c-.4-.7-1.3-1.4-2.6-2s-3.3-1.2-5.9-1.7c-6-1.3-9-4.4-9-9.2s.5-3.5,1.4-4.9c.9-1.4,2.2-2.5,3.8-3.3,1.6-.8,3.5-1.2,5.6-1.2s4,.4,5.7,1.1c1.7.7,3.2,1.7,4.4,2.8.5.5.7,1,.6,1.5,0,.5-.4,1-.9,1.4-.6.4-1.1.6-1.6.6-.5,0-1-.3-1.5-.8-.9-.8-1.9-1.4-3-1.8-1.1-.5-2.3-.7-3.8-.7s-3.3.4-4.5,1.3c-1.2.8-1.8,2.1-1.8,3.7s.2,1.7.6,2.4c.4.7,1.1,1.3,2.2,1.8,1.1.5,2.6,1,4.6,1.4,3.9.8,6.6,2,8.3,3.6,1.7,1.6,2.6,3.7,2.6,6.3s-.5,3.7-1.5,5.1c-1,1.4-2.3,2.4-4.1,3.1-1.7.7-3.7,1.1-6,1.1ZM61.2,43.2c-2.1,0-3.7-.4-4.8-1.2-1.1-.8-1.6-2.4-1.6-4.8v-13.3h-2.3c-1.5,0-2.2-.6-2.2-1.8s.2-1.1.5-1.4c.3-.3.9-.5,1.7-.5h2.3v-5.8c0-1.5.7-2.2,2.1-2.2s2.1.7,2.1,2.2v5.8h4.3c1.5,0,2.2.6,2.2,1.8s-.7,1.8-2.2,1.8h-4.3v12.4c0,1.2.3,2,.8,2.5.6.4,1.4.6,2.5.6h.3c.8,0,1.5,0,2.1.2.6.1.8.6.8,1.4s-.4,1.5-1.3,1.7c-.8.2-1.8.4-2.9.4ZM84.2,43.2c-2.1,0-4-.5-5.6-1.4-1.6-.9-2.9-2.2-3.8-4-.9-1.8-1.4-3.9-1.4-6.4s.5-4.5,1.4-6.2c.9-1.8,2.1-3.1,3.7-4.1,1.6-1,3.4-1.4,5.5-1.4s3.8.5,5.2,1.5c1.5,1,2.6,2.2,3.3,3.7.8,1.5,1.2,3.1,1.2,4.7s-.2,1.5-.6,1.8c-.4.3-.9.4-1.6.4h-13.9c0,2.5.7,4.4,1.9,5.7,1.2,1.3,2.8,1.9,4.8,1.9s4.2-.9,5.4-2.8c.5-.5,1-.9,1.4-1,.4-.2.9-.1,1.4.2.5.3.8.8.9,1.3,0,.5-.1,1.1-.6,1.7-1,1.5-2.3,2.6-3.7,3.3-1.4.7-3,1-4.8,1ZM77.8,28.6h11.8c-.2-1.6-.9-2.9-1.9-3.9-1-1-2.3-1.5-3.8-1.5s-3,.5-4,1.4c-1.1.9-1.8,2.2-2.1,4ZM105.8,52.1c-1.4,0-2.1-.7-2.1-2.2v-27.4c0-1.5.6-2.2,1.9-2.2s1.9.3,1.9,1v2.2c.9-1.2,1.9-2.1,3.1-2.8s2.5-1,4-1,3.9.5,5.5,1.4c1.6.9,2.8,2.3,3.7,4.1.9,1.7,1.4,3.8,1.4,6.2s-.5,4.5-1.4,6.3c-.9,1.8-2.1,3.1-3.7,4.1-1.6.9-3.4,1.4-5.5,1.4s-2.7-.3-3.8-.9c-1.1-.6-2.1-1.5-2.8-2.5v10.1c0,1.5-.7,2.2-2.1,2.2ZM114.4,39.4c1.9,0,3.5-.7,4.7-2.1,1.2-1.4,1.9-3.4,1.9-5.8s-.6-4.4-1.9-5.8c-1.2-1.4-2.8-2.1-4.7-2.1s-3.5.7-4.7,2.1c-1.2,1.4-1.8,3.3-1.8,5.8s.6,4.4,1.8,5.8c1.2,1.4,2.8,2.1,4.7,2.1ZM137.6,43.2c-.9,0-1.6-.3-2.2-.9-.6-.6-.9-1.4-.9-2.2s.3-1.6.9-2.2c.6-.6,1.4-.9,2.2-.9s1.6.3,2.1.9c.6.6.9,1.3.9,2.2s-.3,1.6-.9,2.2c-.6.6-1.3.9-2.1.9ZM151.8,42.7c-1.5,0-2.2-.4-2.2-1.3,0-2.3.7-4.5,2-6.6,1.3-2.1,3.3-4.4,5.8-6.8,1.1-1,2-2,2.9-3,.9-1,1.7-2,2.3-3,.6-1,.9-2,.9-2.9,0-1.8-.4-3.2-1.3-4.1-.9-.9-2.2-1.4-3.8-1.4s-2.1.3-2.9,1c-.8.7-1.3,1.6-1.5,2.8-.2.7-.4,1.2-.7,1.6-.3.4-.8.6-1.4.6s-1.1-.2-1.5-.6c-.3-.4-.5-1-.3-1.8.4-2.3,1.4-4.1,2.8-5.5,1.5-1.3,3.4-2,5.6-2s3.4.4,4.8,1.1c1.4.7,2.5,1.8,3.2,3.2.8,1.4,1.1,3.1,1.1,5.1,0,1.5-.4,2.8-1.1,4.1-.7,1.2-1.6,2.5-2.7,3.6-1.1,1.2-2.3,2.4-3.6,3.7-1.5,1.5-2.9,3-4.1,4.4-1.2,1.4-1.9,2.7-2.1,4h10.9c1.5,0,2.2.6,2.2,1.8s-.7,1.9-2.2,1.9h-12.9Z"/>
      </g>
    </mask>
  </defs>
  <!-- Generator: Adobe Illustrator 28.6.0, SVG Export Plug-In . SVG Version: 1.2.0 Build 709)  -->
  <g>
    <g id="_レイヤー_1" data-name="レイヤー_1">
      <path class="cls-3" d="M30.5,43.3c-2.3,0-4.4-.4-6.3-1.1-1.9-.7-3.6-2-5-3.6-.4-.6-.6-1.1-.5-1.6.1-.5.5-1,1.1-1.3.6-.3,1.1-.5,1.5-.3.5,0,1,.4,1.5.9.9,1,2.1,1.7,3.4,2.2,1.3.5,2.8.7,4.5.7s3.9-.4,5.1-1.3c1.2-.9,1.8-2.1,1.8-3.8s-.2-1.9-.7-2.6c-.4-.7-1.3-1.4-2.6-2s-3.3-1.2-5.9-1.7c-6-1.3-9-4.4-9-9.2s.5-3.5,1.4-4.9c.9-1.4,2.2-2.5,3.8-3.3,1.6-.8,3.5-1.2,5.6-1.2s4,.4,5.7,1.1c1.7.7,3.2,1.7,4.4,2.8.5.5.7,1,.6,1.5,0,.5-.4,1-.9,1.4-.6.4-1.1.6-1.6.6-.5,0-1-.3-1.5-.8-.9-.8-1.9-1.4-3-1.8-1.1-.5-2.3-.7-3.8-.7s-3.3.4-4.5,1.3c-1.2.8-1.8,2.1-1.8,3.7s.2,1.7.6,2.4c.4.7,1.1,1.3,2.2,1.8,1.1.5,2.6,1,4.6,1.4,3.9.8,6.6,2,8.3,3.6,1.7,1.6,2.6,3.7,2.6,6.3s-.5,3.7-1.5,5.1c-1,1.4-2.3,2.4-4.1,3.1-1.7.7-3.7,1.1-6,1.1ZM61.2,43.2c-2.1,0-3.7-.4-4.8-1.2-1.1-.8-1.6-2.4-1.6-4.8v-13.3h-2.3c-1.5,0-2.2-.6-2.2-1.8s.2-1.1.5-1.4c.3-.3.9-.5,1.7-.5h2.3v-5.8c0-1.5.7-2.2,2.1-2.2s2.1.7,2.1,2.2v5.8h4.3c1.5,0,2.2.6,2.2,1.8s-.7,1.8-2.2,1.8h-4.3v12.4c0,1.2.3,2,.8,2.5.6.4,1.4.6,2.5.6h.3c.8,0,1.5,0,2.1.2.6.1.8.6.8,1.4s-.4,1.5-1.3,1.7c-.8.2-1.8.4-2.9.4ZM84.2,43.2c-2.1,0-4-.5-5.6-1.4-1.6-.9-2.9-2.2-3.8-4-.9-1.8-1.4-3.9-1.4-6.4s.5-4.5,1.4-6.2c.9-1.8,2.1-3.1,3.7-4.1,1.6-1,3.4-1.4,5.5-1.4s3.8.5,5.2,1.5c1.5,1,2.6,2.2,3.3,3.7.8,1.5,1.2,3.1,1.2,4.7s-.2,1.5-.6,1.8c-.4.3-.9.4-1.6.4h-13.9c0,2.5.7,4.4,1.9,5.7,1.2,1.3,2.8,1.9,4.8,1.9s4.2-.9,5.4-2.8c.5-.5,1-.9,1.4-1,.4-.2.9-.1,1.4.2.5.3.8.8.9,1.3,0,.5-.1,1.1-.6,1.7-1,1.5-2.3,2.6-3.7,3.3-1.4.7-3,1-4.8,1ZM77.8,28.6h11.8c-.2-1.6-.9-2.9-1.9-3.9-1-1-2.3-1.5-3.8-1.5s-3,.5-4,1.4c-1.1.9-1.8,2.2-2.1,4ZM105.8,52.1c-1.4,0-2.1-.7-2.1-2.2v-27.4c0-1.5.6-2.2,1.9-2.2s1.9.3,1.9,1v2.2c.9-1.2,1.9-2.1,3.1-2.8s2.5-1,4-1,3.9.5,5.5,1.4c1.6.9,2.8,2.3,3.7,4.1.9,1.7,1.4,3.8,1.4,6.2s-.5,4.5-1.4,6.3c-.9,1.8-2.1,3.1-3.7,4.1-1.6.9-3.4,1.4-5.5,1.4s-2.7-.3-3.8-.9c-1.1-.6-2.1-1.5-2.8-2.5v10.1c0,1.5-.7,2.2-2.1,2.2ZM114.4,39.4c1.9,0,3.5-.7,4.7-2.1,1.2-1.4,1.9-3.4,1.9-5.8s-.6-4.4-1.9-5.8c-1.2-1.4-2.8-2.1-4.7-2.1s-3.5.7-4.7,2.1c-1.2,1.4-1.8,3.3-1.8,5.8s.6,4.4,1.8,5.8c1.2,1.4,2.8,2.1,4.7,2.1ZM137.6,43.2c-.9,0-1.6-.3-2.2-.9-.6-.6-.9-1.4-.9-2.2s.3-1.6.9-2.2c.6-.6,1.4-.9,2.2-.9s1.6.3,2.1.9c.6.6.9,1.3.9,2.2s-.3,1.6-.9,2.2c-.6.6-1.3.9-2.1.9ZM151.8,42.7c-1.5,0-2.2-.4-2.2-1.3,0-2.3.7-4.5,2-6.6,1.3-2.1,3.3-4.4,5.8-6.8,1.1-1,2-2,2.9-3,.9-1,1.7-2,2.3-3,.6-1,.9-2,.9-2.9,0-1.8-.4-3.2-1.3-4.1-.9-.9-2.2-1.4-3.8-1.4s-2.1.3-2.9,1c-.8.7-1.3,1.6-1.5,2.8-.2.7-.4,1.2-.7,1.6-.3.4-.8.6-1.4.6s-1.1-.2-1.5-.6c-.3-.4-.5-1-.3-1.8.4-2.3,1.4-4.1,2.8-5.5,1.5-1.3,3.4-2,5.6-2s3.4.4,4.8,1.1c1.4.7,2.5,1.8,3.2,3.2.8,1.4,1.1,3.1,1.1,5.1,0,1.5-.4,2.8-1.1,4.1-.7,1.2-1.6,2.5-2.7,3.6-1.1,1.2-2.3,2.4-3.6,3.7-1.5,1.5-2.9,3-4.1,4.4-1.2,1.4-1.9,2.7-2.1,4h10.9c1.5,0,2.2.6,2.2,1.8s-.7,1.9-2.2,1.9h-12.9Z"/>
      <g class="cls-1">
        <path class="cls-2" d="M24.2,42.2l-.8,2.2h0s0,0,0,0l.8-2.2ZM19.2,38.6l-1.9,1.4h0c0,0,0,.1,0,.1l1.8-1.5ZM18.7,36.9l-2.3-.5h0c0,0,0,.1,0,.1l2.3.4ZM19.8,35.6l1.2,2h0s0,0,0,0l-1.2-2ZM21.3,35.3l-.6,2.3h0s0,0,0,0l.4-2.3ZM22.8,36.2l-1.7,1.6h0s0,0,0,0l1.7-1.6ZM26.1,38.5l-.9,2.2h0s0,0,0,0l.8-2.2ZM36.9,31.5l-2,1.2h0s0,0,0,0l2-1.2ZM34.3,29.5l1-2.1h0l-1,2.1ZM28.4,27.8l-.5,2.3h0s0,0,0,0l.5-2.3ZM20.7,13.7l-2-1.3h0l2,1.3ZM24.5,10.5l1,2.1h0s0,0,0,0l-1-2.1ZM35.9,10.4l-.9,2.1h0s0,0,0,0l.9-2.1ZM40.3,13.2l1.7-1.6h0c0,0,0-.1,0-.1l-1.6,1.7ZM40.9,14.8l-2.3-.3h0s2.3.3,2.3.3ZM40,16.2l1.4,1.8h0s0,0,0,0l-1.5-1.8ZM38.4,16.8l-.3,2.3h0s0,0,0,0l.3-2.3ZM36.9,15.9l1.6-1.7h0s0,0,0,0l-1.5,1.8ZM33.9,14.1l-.9,2.1h0s0,0,0,0l.9-2.2ZM25.6,14.7l1.4,1.9h0s0,0,0,0l-1.4-1.9ZM24.4,20.8l-2.1,1.1h0c0,0,0,.1,0,.1l2-1.2ZM26.6,22.6l-1,2.1h0l1-2.1ZM31.2,24.1l-.5,2.3h0s0,0,0,0l.5-2.3ZM39.5,27.7l-1.6,1.7h0s0,0,0,0l1.6-1.7ZM40.6,39.1l-1.9-1.4h0s1.9,1.4,1.9,1.4ZM36.5,42.2l-.9-2.2h0s0,0,0,0l.9,2.2ZM30.5,41c-2,0-3.8-.3-5.5-1l-1.7,4.4c2.2.9,4.6,1.3,7.2,1.3v-4.7ZM25,40c-1.5-.6-2.9-1.6-4-3l-3.6,3c1.6,2,3.6,3.4,5.9,4.3l1.7-4.4ZM21.1,37.2c-.1-.1-.1-.2-.1-.2,0,0,0,0,0,.1,0,0,0,.1,0,.2l-4.6-.9c-.3,1.4.3,2.6.9,3.4l3.8-2.8ZM21,37.5s0,0,0,.1c0,0,0,0,0,0,0,0,0,0,0,0l-2.3-4c-1,.6-1.9,1.5-2.2,2.8l4.5,1.1ZM21,37.6c.1,0,.1,0,0,0,0,0,0,0-.1,0,0,0-.1,0-.2,0l1.2-4.5c-1.3-.3-2.5,0-3.4.6l2.4,4ZM20.9,37.6c0,0-.1,0,0,0,0,0,.1,0,.3.3l3.4-3.2c-.7-.7-1.6-1.4-2.8-1.6l-.9,4.6ZM21.1,37.8c1.2,1.2,2.6,2.1,4.2,2.8l1.8-4.3c-1-.4-1.9-1-2.6-1.7l-3.4,3.2ZM25.3,40.6c1.6.6,3.4.9,5.4.9v-4.7c-1.5,0-2.7-.2-3.7-.6l-1.7,4.4ZM30.7,41.5c2.5,0,4.7-.5,6.4-1.7l-2.7-3.8c-.7.5-1.8.9-3.7.9v4.7ZM37.1,39.8c1.9-1.4,2.8-3.4,2.8-5.7h-4.7c0,1-.3,1.6-.8,1.9l2.7,3.8ZM39.9,34.1c0-1.3-.3-2.6-1-3.8l-4,2.4c.2.3.3.7.3,1.4h4.7ZM38.9,30.3c-.8-1.4-2.2-2.3-3.7-3l-1.9,4.3c1.1.5,1.5.9,1.6,1.1l4-2.4ZM35.3,27.4c-1.6-.7-3.7-1.3-6.4-1.8l-.9,4.6c2.6.5,4.4,1,5.4,1.5l1.9-4.3ZM28.9,25.5c-2.7-.6-4.5-1.5-5.6-2.6-1-1-1.6-2.4-1.6-4.3h-4.7c0,2.9.9,5.5,2.9,7.5,1.9,2,4.7,3.2,7.9,3.9l1-4.6ZM21.7,18.6c0-1.5.4-2.7,1-3.6l-3.9-2.5c-1.2,1.8-1.7,3.9-1.7,6.2h4.7ZM22.7,15c.7-1,1.6-1.8,2.8-2.4l-2-4.2c-2,.9-3.6,2.3-4.7,4.1l3.9,2.5ZM25.6,12.6c1.2-.6,2.8-1,4.6-1v-4.7c-2.4,0-4.7.5-6.7,1.5l2.1,4.2ZM30.2,11.6c1.8,0,3.4.3,4.7.9l1.9-4.3c-2-.9-4.2-1.3-6.6-1.3v4.7ZM34.9,12.5c1.4.6,2.7,1.4,3.8,2.4l3.2-3.4c-1.5-1.4-3.2-2.5-5.1-3.3l-1.8,4.3ZM38.6,14.8c0,0,0,0,0,0,0,0,0,0,0-.2,0,0,0-.1,0-.2l4.6.5c.2-1.4-.4-2.6-1.2-3.4l-3.4,3.2ZM38.6,14.5s0,0,0-.1c0,0,0,0,0,0,0,0,0,0-.1.1l3,3.6c.9-.7,1.6-1.7,1.7-3l-4.6-.5ZM38.6,14.4c-.1.1-.2.1-.2.1,0,0,0,0,.1,0,0,0,.1,0,.2,0l-.6,4.6c1.3.2,2.5-.4,3.3-1l-2.9-3.7ZM38.7,14.5c.1,0,.2,0,.1,0,0,0-.2,0-.3-.2l-3.2,3.4c.7.7,1.6,1.3,2.8,1.5l.6-4.6ZM38.4,14.1c-1.1-.9-2.3-1.7-3.7-2.2l-1.7,4.3c.9.3,1.7.8,2.4,1.4l3-3.6ZM34.8,12c-1.4-.6-3-.9-4.7-.9v4.7c1.2,0,2.1.2,2.9.5l1.8-4.3ZM30.1,11.1c-2.2,0-4.2.5-5.9,1.7l2.7,3.8c.7-.5,1.7-.9,3.2-.9v-4.7ZM24.2,12.8c-1.9,1.3-2.8,3.3-2.8,5.6h4.7c0-1,.3-1.5.8-1.8l-2.7-3.8ZM21.5,18.4c0,1.2.3,2.4.8,3.5l4.1-2.2c-.2-.4-.3-.8-.3-1.3h-4.7ZM22.4,22c.7,1.2,1.9,2.1,3.2,2.7l2.1-4.2c-.8-.4-1.1-.8-1.2-.9l-4,2.4ZM25.5,24.7c1.3.7,3.1,1.2,5.2,1.6l1-4.6c-2-.4-3.3-.9-4.1-1.3l-2.1,4.2ZM30.7,26.4c3.7.8,6,1.9,7.2,3l3.2-3.4c-2.1-2.1-5.4-3.4-9.4-4.2l-1,4.6ZM37.9,29.4c1.2,1.1,1.8,2.6,1.8,4.6h4.7c0-3.2-1.1-5.9-3.3-8l-3.2,3.4ZM39.7,34c0,1.6-.4,2.8-1.1,3.7l3.8,2.7c1.3-1.9,1.9-4,1.9-6.4h-4.7ZM38.7,37.8c-.7,1-1.7,1.7-3,2.3l1.8,4.3c2.1-.9,3.8-2.2,5.1-3.9l-3.8-2.7ZM35.6,40.1c-1.4.6-3,.9-5.1.9v4.7c2.5,0,4.8-.4,6.9-1.3l-1.8-4.3ZM56.4,42l-1.4,1.8h0s0,0,0,0l1.4-1.9ZM54.8,23.9h2.3v-2.3h-2.3v2.3ZM50.7,20.8l1.6,1.7h0s0,0,0,0l-1.6-1.7ZM54.8,20.3v2.3h2.3v-2.3h-2.3ZM58.9,20.3h-2.3v2.3h2.3v-2.3ZM58.9,23.9v-2.3h-2.3v2.3h2.3ZM59.7,38.8l-1.5,1.8h0s0,0,0,0l1.4-1.9ZM64.6,39.7l-.6,2.2h0s0,0,0,0l.5-2.3ZM64.1,42.8l-.6-2.3h0s0,0,0,0l.7,2.2ZM61.2,40.9c-1.9,0-2.9-.4-3.4-.8l-2.8,3.7c1.7,1.2,3.8,1.7,6.2,1.7v-4.7ZM57.8,40.2c-.2-.2-.7-.8-.7-2.9h-4.7c0,2.6.6,5.1,2.5,6.6l2.9-3.7ZM57.1,37.2v-13.3h-4.7v13.3h4.7ZM54.8,21.6h-2.3v4.7h2.3v-4.7ZM52.4,21.6c-.2,0-.3,0-.3,0,0,0,0,0,.2.1.1.1.2.2.3.4,0,.1,0,.1,0,0h-4.7c0,1.1.4,2.3,1.4,3.2,1,.8,2.1,1,3.1,1v-4.7ZM52.6,22.1c0-.1,0-.1,0,0,0,0-.1.3-.3.4l-3.1-3.5c-1,.9-1.2,2.1-1.2,3.1h4.7ZM52.3,22.5c-.2.2-.3.2-.3.2,0,0,0,0,.1,0,0,0,.2,0,.3,0v-4.7c-1,0-2.3.2-3.3,1.1l3.1,3.5ZM52.4,22.6h2.3v-4.7h-2.3v4.7ZM57.1,20.3v-5.8h-4.7v5.8h4.7ZM57.1,14.5c0-.2,0-.3,0-.3,0,0,0,.1-.1.2,0,0-.1,0-.2.1,0,0,0,0-.1,0,0,0,0,0,.2,0v-4.7c-1.1,0-2.3.3-3.3,1.3-.9,1-1.2,2.2-1.2,3.3h4.7ZM56.9,14.6c.1,0,.2,0,.1,0,0,0,0,0-.1,0,0,0-.1,0-.2-.1-.1-.1-.1-.2-.1-.2,0,0,0,0,0,.3h4.7c0-1.1-.2-2.3-1.1-3.2-.9-1-2.2-1.3-3.2-1.3v4.7ZM56.6,14.5v5.8h4.7v-5.8h-4.7ZM58.9,22.6h4.3v-4.7h-4.3v4.7ZM63.2,22.6c.2,0,.3,0,.3,0,0,0,0,0-.2-.1-.1-.1-.2-.2-.3-.4,0-.1,0-.1,0,0h4.7c0-1.1-.4-2.3-1.4-3.2-1-.8-2.1-1-3.1-1v4.7ZM63.1,22.1c0,0,0,0,0,0,0-.1.1-.3.3-.4.1,0,.2-.1.2-.1,0,0-.1,0-.3,0v4.7c1,0,2.2-.2,3.1-1,1-.9,1.4-2.1,1.4-3.2h-4.7ZM63.2,21.6h-4.3v4.7h4.3v-4.7ZM56.6,23.9v12.4h4.7v-12.4h-4.7ZM56.6,36.4c0,1.4.3,3.2,1.6,4.3l3-3.6c.2.1.2.2.1.1,0-.1,0-.4,0-.8h-4.7ZM58.3,40.7c1.1.8,2.5,1,3.8,1v-4.7c-.4,0-.7,0-.9,0-.2,0-.2,0-.2,0l-2.7,3.8ZM62.2,41.8h.3v-4.7h-.3v4.7ZM62.5,41.8c.7,0,1.2,0,1.5.1l1.2-4.5c-.8-.2-1.8-.3-2.7-.3v4.7ZM64.1,42c-.1,0-.3,0-.5-.2-.2-.1-.3-.3-.4-.4-.1-.3-.1-.4-.1-.2h4.7c0-.6,0-1.4-.5-2.2-.5-.8-1.2-1.4-2.1-1.6l-1,4.6ZM63.1,41.1c0,.1,0,0,.1-.3.2-.2.4-.3.3-.3l1.1,4.5c.8-.2,1.7-.6,2.3-1.5.6-.8.8-1.7.8-2.5h-4.7ZM63.4,40.6c-.6.2-1.3.3-2.2.3v4.7c1.3,0,2.5-.1,3.6-.5l-1.3-4.5ZM78.6,41.9l1.1-2-1.1,2ZM74.8,37.9l-2.1,1.1h0s0,0,0,0l2.1-1.1ZM74.8,25.3l2.1,1.1h0s0,0,0,0l-2.1-1.1ZM78.5,21.2l-1.2-2h0s0,0,0,0l1.2,2ZM89.2,21.2l-1.3,1.9h0s0,0,0,0l1.3-1.9ZM92.5,25l-2.1,1h0s0,0,0,0l2.1-1.1ZM93.1,31.5l1.4,1.9h0s0,0,0,0l-1.5-1.8ZM77.6,31.9v-2.3h-2.4v2.4c0,0,2.4,0,2.4,0ZM79.4,37.6l-1.7,1.6h0s0,0,0,0l1.7-1.6ZM89.6,36.7l-1.7-1.6v.2c-.1,0-.3.2-.3.2l2,1.3ZM91,35.7l.8,2.2h0s0,0,0,0l-.9-2.1ZM92.4,35.9l-1.3,1.9h0s0,0,0,0l1.3-2ZM93.3,37.2l-2.3.3h0c0,0,0,.1,0,.1l2.3-.4ZM92.7,38.9l-1.8-1.5h0c0,0,0,.1,0,.1l1.9,1.3ZM89,42.2l1,2.1h0s0,0,0,0l-1-2.1ZM77.8,28.6l-2.3-.4-.5,2.8h2.8v-2.3ZM89.6,28.6v2.3h2.7l-.4-2.7-2.3.4ZM79.9,24.6l1.5,1.8h0s0,0,0,0l-1.5-1.7ZM84.2,40.9c-1.8,0-3.2-.4-4.5-1.1l-2.3,4.1c2,1.1,4.3,1.6,6.7,1.6v-4.7ZM79.7,39.8c-1.2-.7-2.1-1.6-2.8-3l-4.1,2.1c1.1,2.1,2.7,3.8,4.7,4.9l2.3-4.1ZM76.9,36.8c-.7-1.4-1.1-3.1-1.1-5.3h-4.7c0,2.8.5,5.3,1.6,7.5l4.2-2.1ZM75.8,31.5c0-2.1.4-3.8,1.1-5.1l-4.1-2.1c-1.1,2.1-1.6,4.6-1.6,7.3h4.7ZM76.9,26.4c.7-1.4,1.7-2.5,2.8-3.2l-2.5-4c-1.9,1.2-3.5,2.9-4.5,5l4.2,2.1ZM79.7,23.2c1.2-.7,2.6-1.1,4.2-1.1v-4.7c-2.4,0-4.7.6-6.7,1.8l2.4,4ZM84,22.1c1.7,0,2.9.4,3.9,1.1l2.7-3.8c-1.9-1.3-4.1-1.9-6.6-1.9v4.7ZM87.9,23.2c1.1.7,1.9,1.7,2.5,2.8l4.2-2.1c-.9-1.9-2.3-3.5-4.1-4.7l-2.6,3.9ZM90.4,26c.6,1.2.9,2.4.9,3.7h4.7c0-2-.5-3.9-1.4-5.8l-4.2,2.1ZM91.3,29.7c0,.1,0,.3,0,.3,0,0,0,.1,0,.1,0,0,0,0,0-.1,0,0,.1-.2.3-.3l3,3.6c1.2-1,1.4-2.6,1.4-3.6h-4.7ZM91.7,29.6c.1,0,.2,0,.1,0,0,0-.2,0-.4,0v4.7c1,0,2.1-.2,3-.9l-2.8-3.7ZM91.5,29.6h-13.9v4.7h13.9v-4.7ZM75.2,32c0,2.8.8,5.3,2.5,7.2l3.5-3.1c-.7-.7-1.2-2-1.3-4.2h-4.7ZM77.7,39.2c1.7,1.8,4,2.6,6.5,2.6v-4.7c-1.4,0-2.4-.4-3.1-1.2l-3.4,3.2ZM84.2,41.9c3.1,0,5.7-1.3,7.3-3.9l-3.9-2.5c-.8,1.2-1.8,1.8-3.4,1.8v4.7ZM91.3,38.3c.2-.2.3-.3.4-.4,0,0,.1,0,0,0l-1.6-4.4c-.9.3-1.7,1-2.3,1.6l3.4,3.2ZM91.9,37.8c-.2,0-.4.1-.6,0-.2,0-.3,0-.2,0l2.6-3.8c-1-.7-2.3-1-3.6-.5l1.8,4.3ZM91.1,37.9c0,0,0,0,0,0,0,0-.1-.2-.1-.3l4.6-.5c-.2-1.3-.9-2.3-1.9-3l-2.5,3.9ZM91,37.6c0,0,0-.2,0-.2,0,0,0-.1,0-.1,0,0,0,0,0,0,0,0,0,0-.1.2l3.6,2.9c.7-.9,1.3-2.1,1.1-3.6l-4.6.8ZM90.8,37.6c-.8,1.2-1.8,2-2.8,2.5l2.1,4.2c1.8-.9,3.3-2.3,4.6-4l-3.8-2.7ZM88,40.1c-1,.5-2.3.8-3.8.8v4.7c2.1,0,4.1-.4,5.8-1.3l-2-4.2ZM77.8,30.9h11.8v-4.7h-11.8v4.7ZM91.9,28.2c-.3-2-1.1-3.8-2.5-5.2l-3.3,3.3c.6.6,1,1.4,1.2,2.6l4.6-.7ZM89.3,23c-1.5-1.5-3.3-2.2-5.4-2.2v4.7c1,0,1.6.3,2.1.8l3.3-3.3ZM83.9,20.8c-2.1,0-4,.6-5.6,2l3.1,3.5c.6-.5,1.3-.8,2.5-.8v-4.7ZM78.4,22.8c-1.6,1.3-2.5,3.2-2.9,5.3l4.6.9c.3-1.4.8-2.2,1.3-2.7l-3-3.6ZM107.5,21.3h2.3c0,0,0-.1,0-.1h0s-2.3.1-2.3.1ZM107.6,23.5h-2.3c0,0,.3,7.1.3,7.1l4-5.8-1.9-1.3ZM110.6,20.7l1.1,2-1.1-2ZM120,21.2l-1.2,2h0s0,0,0,0l1.2-2ZM123.7,25.3l-2.1,1.1h0s0,0,0,0l2.1-1.1ZM123.7,37.7l-2.1-1.1h0s0,0,0,0l2.1,1.1ZM120,41.8l1.2,2h0s0,0,0,0l-1.2-2ZM110.8,42.3l-1.1,2h0s0,0,0,0l1.1-2.1ZM107.9,39.8l1.9-1.4-4.2-5.7v7.1h2.3ZM119.1,37.3l1.7,1.5h0s0,0,0,0l-1.8-1.5ZM119.1,25.7l-1.7,1.5,1.7-1.5ZM109.7,25.7l-1.7-1.5h0s0,0,0,0l1.8,1.5ZM109.7,37.3l-1.8,1.5h0s0,0,0,0l1.7-1.5ZM105.8,49.8c-.1,0-.2,0-.1,0,0,0,0,0,.1,0,0,0,.1,0,.1.1,0,.1.1.2.1.2,0,0,0,0,0,0,0,0,0-.1,0-.2h-4.7c0,1.1.2,2.3,1.2,3.3.9,1,2.2,1.3,3.3,1.3v-4.7ZM106.1,49.9v-27.4h-4.7v27.4h4.7ZM106.1,22.5c0-.2,0-.3,0-.3,0,0,0,0-.1.2-.1.1-.2.2-.3.2,0,0-.1,0,0,0v-4.7c-1.1,0-2.3.3-3.2,1.4-.8,1-1,2.1-1,3.2h4.7ZM105.6,22.6c.2,0,.3,0,.4,0,0,0,0,0,0,0-.1,0-.3-.2-.5-.5-.2-.3-.3-.6-.3-.8l4.7-.2c0-1.3-.8-2.2-1.8-2.7-.8-.4-1.7-.5-2.5-.5v4.7ZM105.2,21.4v2.2c0,0,4.8-.2,4.8-.2v-2.2c0,0-4.8.2-4.8.2ZM109.5,24.8c.6-.9,1.3-1.6,2.2-2l-2.3-4.1c-1.5.8-2.8,2-3.8,3.5l3.9,2.6ZM111.7,22.8c.8-.4,1.7-.7,2.8-.7v-4.7c-1.8,0-3.5.4-5.1,1.3l2.3,4.1ZM114.5,22.1c1.7,0,3.1.4,4.2,1.1l2.4-4c-2-1.2-4.2-1.8-6.7-1.8v4.7ZM118.8,23.2c1.2.7,2.1,1.7,2.8,3.1l4.2-2.1c-1.1-2.1-2.6-3.8-4.6-5l-2.4,4ZM121.7,26.4c.7,1.3,1.1,3,1.1,5.1h4.7c0-2.7-.5-5.2-1.7-7.3l-4.1,2.2ZM122.8,31.5c0,2.1-.4,3.8-1.1,5.2l4.1,2.2c1.1-2.2,1.7-4.6,1.7-7.3h-4.7ZM121.7,36.7c-.7,1.4-1.7,2.4-2.9,3.2l2.4,4c2-1.2,3.5-2.9,4.6-5l-4.2-2.1ZM118.8,39.8c-1.2.7-2.6,1.1-4.3,1.1v4.7c2.4,0,4.7-.6,6.6-1.7l-2.4-4ZM114.5,40.9c-1.1,0-1.9-.2-2.7-.6l-2.2,4.1c1.5.8,3.1,1.2,4.9,1.2v-4.7ZM111.9,40.3c-.8-.5-1.5-1.1-2.1-1.9l-3.8,2.8c1,1.3,2.2,2.4,3.6,3.2l2.3-4.1ZM105.6,39.8v10.1h4.7v-10.1h-4.7ZM105.6,49.9c0,0,0,.2,0,.2,0,0,0,0,0,0,0,0,0,0,.1-.2,0,0,0,0,.1-.1,0,0,0,0,.1,0,0,0,0,0-.1,0v4.7c1.1,0,2.3-.3,3.3-1.3.9-1,1.2-2.2,1.2-3.3h-4.7ZM114.4,41.7c2.6,0,4.8-1,6.5-2.9l-3.5-3.1c-.8.9-1.7,1.3-3,1.3v4.7ZM120.9,38.8c1.7-2,2.4-4.5,2.4-7.4h-4.7c0,2.1-.5,3.4-1.3,4.3l3.5,3.1ZM123.3,31.5c0-2.8-.7-5.4-2.5-7.3l-3.5,3.1c.8.9,1.3,2.2,1.3,4.2h4.7ZM120.9,24.1c-1.7-1.9-3.9-2.9-6.5-2.9v4.7c1.2,0,2.2.4,3,1.3l3.5-3.1ZM114.4,21.2c-2.6,0-4.8,1-6.5,2.9l3.5,3.1c.8-.9,1.7-1.3,3-1.3v-4.7ZM107.9,24.1c-1.7,1.9-2.4,4.5-2.4,7.3h4.7c0-2.1.5-3.4,1.3-4.3l-3.5-3.1ZM105.5,31.5c0,2.8.7,5.4,2.4,7.3l3.6-3c-.8-.9-1.3-2.2-1.3-4.3h-4.7ZM108,38.8c1.7,1.9,3.9,2.9,6.5,2.9v-4.7c-1.2,0-2.2-.4-3-1.3l-3.5,3.1ZM135.4,42.3l-1.7,1.6h0s0,0,0,0l1.6-1.7ZM135.4,37.9l-1.6-1.6,1.6,1.6ZM139.8,37.9l-1.7,1.6h0s0,0,0,0l1.6-1.7ZM139.8,42.3l-1.6-1.6,1.6,1.6ZM137.6,40.9c-.3,0-.5,0-.6-.2l-3.2,3.4c1.1,1,2.4,1.5,3.8,1.5v-4.7ZM137.1,40.7c-.2-.2-.2-.4-.2-.6h-4.7c0,1.5.5,2.8,1.5,3.8l3.4-3.2ZM136.8,40.1c0-.3,0-.4.2-.5l-3.3-3.3c-1,1-1.6,2.4-1.6,3.8h4.7ZM137,39.6c.2-.2.3-.2.6-.2v-4.7c-1.5,0-2.8.6-3.9,1.6l3.3,3.3ZM137.6,39.3c.2,0,.3,0,.5.2l3.4-3.2c-1-1.1-2.3-1.7-3.8-1.7v4.7ZM138.2,39.6c.2.1.2.3.2.5h4.7c0-1.5-.6-2.8-1.7-3.9l-3.2,3.4ZM138.4,40.1c0,.2,0,.3-.2.5l3.3,3.3c1-1,1.6-2.4,1.6-3.8h-4.7ZM138.1,40.7c-.2.2-.3.2-.5.2v4.7c1.5,0,2.8-.5,3.8-1.6l-3.3-3.3ZM151.6,34.8l-2-1.2h0s0,0,0,0l2,1.2ZM157.4,28l1.6,1.7h0s0,0,0,0l-1.6-1.7ZM160.3,25l-1.7-1.6h0s1.7,1.6,1.7,1.6ZM162.6,21.9l-2-1.2,2,1.2ZM163.5,19h-2.3c0,0,0,0,0,0h2.3ZM162.3,14.9l-1.6,1.6,1.6-1.6ZM155.5,14.6l1.5,1.8h0s0,0,0,0l-1.5-1.8ZM154,17.5l2.3.6h0c0,0,0-.2,0-.2l-2.3-.5ZM153.2,19l1.8,1.5h0s-1.8-1.5-1.8-1.5ZM150.3,19l-1.8,1.4h0c0,0,0,.1,0,.1l1.7-1.6ZM150,17.2l-2.3-.4h0s0,0,0,0l2.3.4ZM152.8,11.8l-1.5-1.8h0s0,0,0,0l1.6,1.7ZM163.2,10.9l-1.1,2h0s0,0,0,0l1.1-2.1ZM166.4,14.1l-2.1,1.1h0s0,0,0,0l2-1.1ZM167.5,19.1h-2.3c0,0,0,0,0,0h0s2.3,0,2.3,0ZM166.4,23.2l2,1.1h0s0,0,0,0l-2.1-1.1ZM160.1,30.6l-1.6-1.7h0s0,0,0,0l1.7,1.6ZM156,35.1l-1.8-1.5h0s1.8,1.5,1.8,1.5ZM153.9,39l-2.3-.4-.5,2.7h2.8v-2.3ZM151.8,40.4c-.3,0-.4,0-.5,0-.1,0,0,0,0,0,.1,0,.3.2.4.4.1.2.2.5.2.6h-4.7c0,1.3.6,2.4,1.7,3,.9.5,2,.6,2.9.6v-4.7ZM151.9,41.4c0-1.8.5-3.6,1.6-5.4l-4-2.5c-1.5,2.5-2.3,5.1-2.3,7.9h4.7ZM153.5,36c1.2-1.9,3-4,5.4-6.3l-3.2-3.4c-2.6,2.5-4.7,4.9-6.2,7.2l3.9,2.5ZM159,29.7c1.1-1.1,2.1-2.1,3-3.1l-3.5-3.1c-.9,1-1.8,1.9-2.8,2.9l3.2,3.3ZM162,26.5c1-1.1,1.9-2.3,2.6-3.4l-4-2.4c-.5.8-1.2,1.7-2,2.7l3.5,3.1ZM164.6,23.1c.7-1.3,1.2-2.6,1.3-4l-4.7-.2c0,.5-.2,1-.6,1.8l4,2.4ZM165.8,19.1c0-2.2-.4-4.3-1.9-5.8l-3.3,3.3c.3.3.6.9.6,2.4l4.7.2ZM163.9,13.3c-1.5-1.5-3.4-2-5.5-2v4.7c1.2,0,1.8.3,2.2.7l3.3-3.3ZM158.4,11.3c-1.7,0-3.2.5-4.4,1.6l3.1,3.5c.3-.3.7-.4,1.4-.4v-4.7ZM154,12.8c-1.3,1.1-2,2.5-2.3,4.2l4.6.9c.2-.9.5-1.3.8-1.5l-3-3.6ZM151.7,16.8c-.1.5-.3.7-.3.7l3.6,3c.6-.7,1-1.6,1.2-2.5l-4.5-1.2ZM151.5,17.6c0,0,.1-.1.2-.2,0,0,.1,0,.2,0,0,0,.1,0,0,0v4.7c1.1,0,2.3-.3,3.2-1.4l-3.6-3ZM151.8,17.3c0,0,0,0,0,0,0,0,0,0,.1,0,0,0,0,0,0,0l-3.4,3.2c.9.9,2,1.4,3.2,1.4v-4.7ZM152.1,17.6s0,0,0,.1c0,0,0,0,0,.1,0,0,0,0,0-.2l-4.6-.8c-.2,1.1,0,2.5.8,3.6l3.7-2.9ZM152.3,17.6c.3-1.9,1.1-3.2,2.1-4.1l-3.1-3.5c-1.9,1.7-3.1,4.1-3.6,6.8l4.6.8ZM154.4,13.5c1.1-.9,2.4-1.4,4.1-1.4v-4.7c-2.7,0-5.1.8-7.1,2.6l3.1,3.5ZM158.4,12.1c1.5,0,2.7.3,3.6.8l2.2-4.1c-1.8-1-3.7-1.4-5.9-1.4v4.7ZM162.1,13c1,.5,1.7,1.2,2.2,2.2l4.1-2.2c-1-1.8-2.4-3.2-4.2-4.2l-2.1,4.2ZM164.4,15.2c.5,1,.8,2.2.8,3.9h4.7c0-2.2-.3-4.3-1.4-6.1l-4.1,2.3ZM165.1,19.1c0,1.1-.3,2.1-.8,3.1l4.1,2.2c.9-1.6,1.3-3.3,1.3-5.2h-4.7ZM164.4,22.1c-.6,1.1-1.4,2.1-2.3,3.2l3.4,3.2c1.2-1.3,2.2-2.7,3-4.1l-4.1-2.2ZM162,25.3c-1.1,1.1-2.2,2.4-3.6,3.6l3.3,3.3c1.4-1.3,2.6-2.6,3.7-3.8l-3.4-3.2ZM158.4,29c-1.5,1.6-2.9,3.1-4.2,4.5l3.5,3.1c1.2-1.4,2.5-2.8,4-4.3l-3.3-3.3ZM154.2,33.5c-1.4,1.6-2.4,3.3-2.7,5.1l4.6.8c.1-.7.6-1.6,1.6-2.8l-3.5-3.1ZM153.9,41.4h10.9v-4.7h-10.9v4.7ZM164.8,41.4c.2,0,.3,0,.4,0,0,0,0,0-.2-.1-.1-.1-.2-.2-.3-.4,0-.1,0-.2,0,0h4.7c0-1.1-.4-2.3-1.4-3.2-1-.8-2.1-1-3.2-1v4.7ZM164.7,40.8c0,0,0,0,0,0,0-.1.1-.2.3-.3.1,0,.2-.1.2-.1,0,0-.1,0-.4,0v4.7c1,0,2.2-.2,3.2-1,1-.9,1.4-2.1,1.4-3.2h-4.7ZM164.8,40.4h-12.9v4.7h12.9v-4.7Z"/>
      </g>
    </g>
  </g>
</svg>