<?xml version="1.0" encoding="UTF-8"?>
<svg xmlns="http://www.w3.org/2000/svg" xmlns:xlink="http://www.w3.org/1999/xlink" version="1.1" viewBox="0 0 197 57">
  <defs>
    <style>
      .cls-1 {
        mask: url(#mask);
      }

      .cls-2 {
        fill: #a9b527;
      }

      .cls-3 {
        fill: #fff;
      }
    </style>
    <mask id="mask" x="11.9" y="5.5" width="167.5" height="52" maskUnits="userSpaceOnUse">
      <g id="path-1-outside-1_759_157">
        <rect class="cls-3" x="11.9" y="5.5" width="167.5" height="52"/>
        <path d="M27.7,44.9c-2.4,0-4.7-.4-6.7-1.2-2-.8-3.8-2.1-5.3-3.9-.5-.6-.6-1.2-.5-1.7.1-.6.5-1,1.1-1.4.6-.4,1.1-.5,1.6-.3.5,0,1.1.4,1.6,1,1,1,2.2,1.8,3.6,2.4,1.4.5,3,.8,4.8.8s4.1-.5,5.4-1.4c1.3-.9,1.9-2.3,1.9-4.1s-.2-2-.7-2.7c-.5-.8-1.4-1.5-2.8-2.1s-3.5-1.2-6.3-1.8c-6.4-1.4-9.6-4.6-9.6-9.8s.5-3.7,1.4-5.2c1-1.5,2.3-2.6,4-3.5,1.7-.9,3.7-1.3,6-1.3s4.3.4,6,1.2c1.8.8,3.3,1.8,4.7,3,.5.5.7,1.1.6,1.6,0,.6-.4,1.1-.9,1.5-.6.5-1.2.7-1.7.6-.5,0-1-.4-1.6-.9-1-.8-2.1-1.5-3.2-1.9-1.2-.5-2.5-.7-4-.7s-3.5.5-4.8,1.4c-1.3.9-1.9,2.2-1.9,4s.2,1.8.6,2.5c.4.7,1.2,1.4,2.3,1.9,1.1.6,2.8,1.1,4.9,1.5,4.1.9,7,2.1,8.8,3.9,1.8,1.7,2.7,3.9,2.7,6.7s-.5,3.9-1.6,5.4c-1,1.5-2.5,2.6-4.3,3.3-1.8.8-3.9,1.1-6.3,1.1ZM60.3,44.8c-2.2,0-3.9-.4-5.1-1.3-1.2-.9-1.7-2.6-1.7-5v-14.1h-2.5c-1.6,0-2.3-.6-2.3-1.9s.2-1.1.5-1.4c.4-.3,1-.5,1.8-.5h2.5v-6.2c0-1.6.7-2.3,2.2-2.3s2.2.8,2.2,2.3v6.2h4.6c1.6,0,2.3.6,2.3,1.9s-.8,1.9-2.3,1.9h-4.6v13.2c0,1.3.3,2.2.8,2.6.6.4,1.5.6,2.6.6h.3c.9,0,1.6,0,2.2.2.6.1.9.6.9,1.5s-.5,1.6-1.4,1.8c-.9.3-1.9.4-3.1.4ZM84.7,44.8c-2.2,0-4.2-.5-5.9-1.4-1.7-1-3.1-2.4-4-4.2-1-1.9-1.4-4.1-1.4-6.8s.5-4.7,1.4-6.6c1-1.9,2.3-3.3,3.9-4.4,1.7-1,3.6-1.5,5.8-1.5s4,.5,5.5,1.6c1.6,1,2.7,2.3,3.5,4,.8,1.6,1.2,3.3,1.2,5s-.2,1.6-.6,1.9c-.4.3-1,.4-1.7.4h-14.8c0,2.6.7,4.7,2,6,1.3,1.4,3,2,5.1,2s4.4-1,5.7-3c.5-.6,1-.9,1.5-1.1.5-.2,1-.1,1.5.2.6.4.9.8.9,1.4,0,.6-.1,1.2-.6,1.8-1.1,1.6-2.4,2.7-3.9,3.5-1.5.7-3.2,1.1-5.1,1.1ZM77.9,29.3h12.5c-.3-1.7-.9-3.1-2-4.2-1.1-1.1-2.4-1.6-4-1.6s-3.1.5-4.3,1.5c-1.1,1-1.9,2.4-2.2,4.3ZM107.6,54.3c-1.5,0-2.2-.8-2.2-2.4v-29.1c0-1.6.7-2.3,2-2.3s2,.3,2,1v2.3c1-1.3,2-2.2,3.3-2.9,1.3-.7,2.7-1,4.2-1s4.1.5,5.8,1.5c1.7,1,3,2.4,4,4.3,1,1.8,1.5,4,1.5,6.6s-.5,4.8-1.5,6.6c-1,1.9-2.3,3.3-4,4.4-1.7,1-3.6,1.5-5.8,1.5s-2.8-.3-4-.9c-1.2-.7-2.2-1.6-3-2.7v10.7c0,1.6-.7,2.4-2.2,2.4ZM116.7,40.7c2,0,3.7-.7,5-2.2,1.3-1.5,2-3.6,2-6.2s-.7-4.7-2-6.1c-1.3-1.5-3-2.2-5-2.2s-3.7.7-5,2.2c-1.3,1.5-1.9,3.5-1.9,6.1s.6,4.7,1.9,6.2c1.3,1.5,3,2.2,5,2.2ZM141.3,44.8c-.9,0-1.7-.3-2.4-.9-.6-.7-.9-1.4-.9-2.3s.3-1.7.9-2.3c.7-.7,1.5-1,2.4-1s1.7.3,2.3,1c.7.6,1,1.4,1,2.3s-.3,1.7-1,2.3c-.6.6-1.4.9-2.3.9ZM169.2,44.3c-1.3,0-2-.8-2-2.4v-5.7h-11.6c-1.6,0-2.4-.6-2.4-1.7s0-1.1.2-1.5c.1-.5.3-.9.6-1.4l12.4-20.5c.6-1.1,1.5-1.6,2.8-1.6s2,.8,2,2.4v20.6h2.7c1.6,0,2.3.6,2.3,1.9s-.6,1.9-1.8,1.9h-3.2v5.7c0,1.6-.7,2.4-2,2.4ZM157.6,32.4h9.6v-16l-9.6,16Z"/>
      </g>
    </mask>
  </defs>
  <!-- Generator: Adobe Illustrator 28.6.0, SVG Export Plug-In . SVG Version: 1.2.0 Build 709)  -->
  <g>
    <g id="_レイヤー_1" data-name="レイヤー_1">
      <path class="cls-3" d="M27.7,44.9c-2.4,0-4.7-.4-6.7-1.2-2-.8-3.8-2.1-5.3-3.9-.5-.6-.6-1.2-.5-1.7.1-.6.5-1,1.1-1.4.6-.4,1.1-.5,1.6-.3.5,0,1.1.4,1.6,1,1,1,2.2,1.8,3.6,2.4,1.4.5,3,.8,4.8.8s4.1-.5,5.4-1.4c1.3-.9,1.9-2.3,1.9-4.1s-.2-2-.7-2.7c-.5-.8-1.4-1.5-2.8-2.1s-3.5-1.2-6.3-1.8c-6.4-1.4-9.6-4.6-9.6-9.8s.5-3.7,1.4-5.2c1-1.5,2.3-2.6,4-3.5,1.7-.9,3.7-1.3,6-1.3s4.3.4,6,1.2c1.8.8,3.3,1.8,4.7,3,.5.5.7,1.1.6,1.6,0,.6-.4,1.1-.9,1.5-.6.5-1.2.7-1.7.6-.5,0-1-.4-1.6-.9-1-.8-2.1-1.5-3.2-1.9-1.2-.5-2.5-.7-4-.7s-3.5.5-4.8,1.4c-1.3.9-1.9,2.2-1.9,4s.2,1.8.6,2.5c.4.7,1.2,1.4,2.3,1.9,1.1.6,2.8,1.1,4.9,1.5,4.1.9,7,2.1,8.8,3.9,1.8,1.7,2.7,3.9,2.7,6.7s-.5,3.9-1.6,5.4c-1,1.5-2.5,2.6-4.3,3.3-1.8.8-3.9,1.1-6.3,1.1ZM60.3,44.8c-2.2,0-3.9-.4-5.1-1.3-1.2-.9-1.7-2.6-1.7-5v-14.1h-2.5c-1.6,0-2.3-.6-2.3-1.9s.2-1.1.5-1.4c.4-.3,1-.5,1.8-.5h2.5v-6.2c0-1.6.7-2.3,2.2-2.3s2.2.8,2.2,2.3v6.2h4.6c1.6,0,2.3.6,2.3,1.9s-.8,1.9-2.3,1.9h-4.6v13.2c0,1.3.3,2.2.8,2.6.6.4,1.5.6,2.6.6h.3c.9,0,1.6,0,2.2.2.6.1.9.6.9,1.5s-.5,1.6-1.4,1.8c-.9.3-1.9.4-3.1.4ZM84.7,44.8c-2.2,0-4.2-.5-5.9-1.4-1.7-1-3.1-2.4-4-4.2-1-1.9-1.4-4.1-1.4-6.8s.5-4.7,1.4-6.6c1-1.9,2.3-3.3,3.9-4.4,1.7-1,3.6-1.5,5.8-1.5s4,.5,5.5,1.6c1.6,1,2.7,2.3,3.5,4,.8,1.6,1.2,3.3,1.2,5s-.2,1.6-.6,1.9c-.4.3-1,.4-1.7.4h-14.8c0,2.6.7,4.7,2,6,1.3,1.4,3,2,5.1,2s4.4-1,5.7-3c.5-.6,1-.9,1.5-1.1.5-.2,1-.1,1.5.2.6.4.9.8.9,1.4,0,.6-.1,1.2-.6,1.8-1.1,1.6-2.4,2.7-3.9,3.5-1.5.7-3.2,1.1-5.1,1.1ZM77.9,29.3h12.5c-.3-1.7-.9-3.1-2-4.2-1.1-1.1-2.4-1.6-4-1.6s-3.1.5-4.3,1.5c-1.1,1-1.9,2.4-2.2,4.3ZM107.6,54.3c-1.5,0-2.2-.8-2.2-2.4v-29.1c0-1.6.7-2.3,2-2.3s2,.3,2,1v2.3c1-1.3,2-2.2,3.3-2.9,1.3-.7,2.7-1,4.2-1s4.1.5,5.8,1.5c1.7,1,3,2.4,4,4.3,1,1.8,1.5,4,1.5,6.6s-.5,4.8-1.5,6.6c-1,1.9-2.3,3.3-4,4.4-1.7,1-3.6,1.5-5.8,1.5s-2.8-.3-4-.9c-1.2-.7-2.2-1.6-3-2.7v10.7c0,1.6-.7,2.4-2.2,2.4ZM116.7,40.7c2,0,3.7-.7,5-2.2,1.3-1.5,2-3.6,2-6.2s-.7-4.7-2-6.1c-1.3-1.5-3-2.2-5-2.2s-3.7.7-5,2.2c-1.3,1.5-1.9,3.5-1.9,6.1s.6,4.7,1.9,6.2c1.3,1.5,3,2.2,5,2.2ZM141.3,44.8c-.9,0-1.7-.3-2.4-.9-.6-.7-.9-1.4-.9-2.3s.3-1.7.9-2.3c.7-.7,1.5-1,2.4-1s1.7.3,2.3,1c.7.6,1,1.4,1,2.3s-.3,1.7-1,2.3c-.6.6-1.4.9-2.3.9ZM169.2,44.3c-1.3,0-2-.8-2-2.4v-5.7h-11.6c-1.6,0-2.4-.6-2.4-1.7s0-1.1.2-1.5c.1-.5.3-.9.6-1.4l12.4-20.5c.6-1.1,1.5-1.6,2.8-1.6s2,.8,2,2.4v20.6h2.7c1.6,0,2.3.6,2.3,1.9s-.6,1.9-1.8,1.9h-3.2v5.7c0,1.6-.7,2.4-2,2.4ZM157.6,32.4h9.6v-16l-9.6,16Z"/>
      <g class="cls-1">
        <path class="cls-2" d="M21,43.7l-.9,2.3h0s0,0,0,0l.9-2.3ZM15.7,39.8l-2,1.5h0c0,0,0,.1,0,.1l1.9-1.6ZM15.2,38.1l-2.4-.6h0c0,0,0,.1,0,.1l2.4.5ZM16.3,36.7l1.2,2.1h0s0,0,0,0l-1.3-2.1ZM17.9,36.4l-.6,2.4h0s0,0,0,0l.5-2.4ZM19.5,37.4l-1.8,1.7h0s0,0,0,0l1.8-1.7ZM23.1,39.8l-.9,2.3h0s0,0,0,0l.9-2.3ZM34.5,32.4l-2.1,1.2h0s0,0,0,0l2.1-1.3ZM31.8,30.2l1-2.3h0l-1,2.3ZM25.5,28.5l-.5,2.4h0s0,0,0,0l.5-2.4ZM17.3,13.5l-2.1-1.3h0l2.1,1.3ZM21.4,10l1.1,2.2h0s0,0,0,0l-1.1-2.2ZM33.4,9.9l-1,2.3h0s0,0,0,0l1-2.3ZM38.1,13l1.8-1.7h0c0,0,0-.1,0-.1l-1.7,1.8ZM38.7,14.6l-2.5-.3h0s2.5.3,2.5.3ZM37.8,16.1l1.5,2h0s0,0,0,0l-1.6-1.9ZM36.1,16.7l-.3,2.5h0s0,0,0,0l.3-2.5ZM34.5,15.8l1.7-1.8h0c0,0,0,0,0,0l-1.6,1.9ZM31.3,13.9l-1,2.3h0s0,0,0,0l.9-2.3ZM22.5,14.6l1.4,2h0s0,0,0,0l-1.4-2ZM21.2,21l-2.2,1.1h0c0,0,0,.1,0,.1l2.1-1.3ZM23.5,23l-1.1,2.2h0l1.1-2.2ZM28.4,24.5l-.5,2.4h0s0,0,0,0l.5-2.4ZM37.2,28.4l-1.7,1.8h0s0,0,0,0l1.7-1.8ZM38.4,40.4l-2-1.4h0s2,1.4,2,1.4ZM34.1,43.8l-.9-2.3h0s0,0,0,0l1,2.3ZM27.7,42.4c-2.1,0-4.1-.3-5.9-1l-1.8,4.6c2.4.9,4.9,1.4,7.6,1.4v-5ZM21.9,41.4c-1.6-.6-3.1-1.7-4.3-3.1l-3.8,3.2c1.7,2.1,3.8,3.6,6.3,4.6l1.8-4.6ZM17.7,38.4c-.1-.2-.1-.2-.1-.2,0,0,0,0,0,.1,0,0,0,.1,0,.2l-4.9-.9c-.3,1.5.3,2.7,1,3.7l4-2.9ZM17.6,38.7s0,0,0,.1c0,0,0,0,0,0,0,0,0,0,0,0l-2.5-4.3c-1.1.6-2,1.6-2.3,3l4.8,1.1ZM17.6,38.8c.1,0,.1,0,0,0,0,0,0,0-.2,0,0,0-.1,0-.2,0l1.3-4.8c-1.4-.4-2.6,0-3.6.6l2.6,4.2ZM17.5,38.8c0,0-.1,0,0,0,0,0,.2.1.3.3l3.6-3.4c-.7-.8-1.7-1.5-2.9-1.7l-.9,4.9ZM17.7,39.1c1.2,1.3,2.7,2.3,4.4,2.9l1.9-4.6c-1.1-.4-2-1-2.7-1.8l-3.6,3.4ZM22.2,42.1c1.7.7,3.6,1,5.7,1v-5c-1.6,0-2.9-.2-3.9-.6l-1.8,4.6ZM27.9,43c2.6,0,5-.5,6.8-1.9l-2.9-4c-.7.5-1.9.9-4,.9v5ZM34.7,41.2c2-1.5,3-3.6,3-6.1h-5c0,1.1-.3,1.7-.9,2l2.9,4ZM37.7,35.1c0-1.4-.3-2.8-1.1-4l-4.2,2.6c.2.3.3.7.3,1.4h5ZM36.7,31.1c-.8-1.4-2.3-2.4-3.9-3.1l-2,4.5c1.2.5,1.6,1,1.7,1.1l4.3-2.5ZM32.8,28c-1.6-.7-4-1.4-6.8-2l-1,4.9c2.8.6,4.6,1.1,5.8,1.6l2-4.5ZM26,26c-2.9-.6-4.8-1.6-5.9-2.8-1.1-1.1-1.7-2.5-1.7-4.5h-5c0,3.1,1,5.9,3.1,8,2,2.1,4.9,3.4,8.4,4.2l1.1-4.8ZM18.4,18.7c0-1.6.4-2.8,1-3.9l-4.2-2.7c-1.2,1.9-1.8,4.1-1.8,6.5h5ZM19.4,14.9c.7-1.1,1.7-1.9,3-2.6l-2.1-4.5c-2.1,1-3.8,2.5-5,4.4l4.2,2.7ZM22.5,12.3c1.3-.7,2.9-1,4.9-1v-5c-2.6,0-5,.5-7.1,1.5l2.2,4.4ZM27.3,11.2c1.9,0,3.6.3,5,1l2-4.5c-2.1-1-4.5-1.4-7-1.4v5ZM32.4,12.2c1.5.7,2.9,1.5,4,2.6l3.4-3.6c-1.6-1.5-3.4-2.6-5.4-3.5l-1.9,4.6ZM36.3,14.7c0,0,0,0,0,0,0,0,0,0,0-.2,0,0,0-.1,0-.2l4.9.6c.2-1.5-.5-2.7-1.3-3.6l-3.6,3.4ZM36.3,14.3s0,0,0-.1c0,0,0,0,0,0,0,0,0,0-.1.1l3.1,3.8c.9-.7,1.7-1.8,1.8-3.2l-4.9-.6ZM36.3,14.2c-.1.1-.2.1-.2.1,0,0,0,0,.1,0,0,0,.1,0,.2,0l-.6,4.9c1.4.2,2.6-.4,3.5-1.1l-3-3.9ZM36.4,14.3c.1,0,.2,0,.1,0,0,0-.2-.1-.3-.3l-3.4,3.6c.7.7,1.7,1.4,3,1.5l.7-4.9ZM36.1,13.9c-1.2-1-2.5-1.8-3.9-2.3l-1.8,4.6c.9.4,1.8.9,2.6,1.5l3.2-3.8ZM32.3,11.6c-1.5-.7-3.2-.9-5-.9v5c1.3,0,2.2.2,3,.5l2-4.6ZM27.3,10.7c-2.3,0-4.5.6-6.2,1.9l2.9,4c.8-.6,1.9-.9,3.4-.9v-5ZM21.1,12.5c-2,1.4-2.9,3.6-2.9,6h5c0-1.1.3-1.6.8-1.9l-2.9-4ZM18.1,18.5c0,1.3.3,2.5.9,3.7l4.4-2.3c-.2-.4-.3-.8-.3-1.4h-5ZM19.1,22.3c.8,1.3,2,2.2,3.4,2.9l2.2-4.4c-.9-.4-1.2-.8-1.3-1l-4.3,2.5ZM22.4,25.2c1.4.7,3.3,1.3,5.5,1.7l1-4.8c-2.1-.4-3.5-.9-4.3-1.3l-2.2,4.4ZM27.9,26.9c3.9.8,6.3,2,7.6,3.2l3.4-3.6c-2.3-2.2-5.8-3.6-10-4.5l-1,4.8ZM35.5,30.2c1.3,1.2,1.9,2.8,1.9,4.9h5c0-3.3-1.1-6.3-3.5-8.5l-3.4,3.6ZM37.5,35c0,1.7-.4,3-1.1,4l4,2.9c1.4-2,2-4.3,2-6.8h-5ZM36.4,39c-.7,1-1.8,1.8-3.2,2.5l1.9,4.6c2.2-.9,4.1-2.3,5.4-4.2l-4-2.9ZM33.1,41.5c-1.5.6-3.2.9-5.4.9v5c2.7,0,5.1-.4,7.3-1.3l-1.9-4.6ZM55.2,43.5l-1.5,2h0s0,0,0,0l1.5-2ZM53.4,24.4h2.5v-2.5h-2.5v2.5ZM49.1,21l1.7,1.8h0s0,0,0,0l-1.7-1.8ZM53.4,20.5v2.5h2.5v-2.5h-2.5ZM57.8,20.5h-2.5v2.5h2.5v-2.5ZM57.8,24.4v-2.5h-2.5v2.5h2.5ZM58.7,40.1l-1.6,1.9h0s0,0,0,0l1.4-2ZM63.8,41l-.7,2.4h0s0,0,0,0l.5-2.4ZM63.3,44.4l-.6-2.4h0s0,0,0,0l.7,2.4ZM60.3,42.3c-2,0-3.1-.4-3.6-.8l-3,4c1.8,1.3,4.1,1.8,6.6,1.8v-5ZM56.7,41.6c-.2-.2-.8-.9-.8-3.1h-5c0,2.7.6,5.4,2.7,7l3-3.9ZM55.9,38.5v-14.1h-5v14.1h5ZM53.4,21.9h-2.5v5h2.5v-5ZM51,21.9c-.2,0-.3,0-.4,0,0,0,0,0,.2.1.1.1.2.3.3.4,0,.1,0,.2,0,0h-5c0,1.2.4,2.4,1.5,3.4,1,.8,2.3,1.1,3.3,1.1v-5ZM51.1,22.4c0-.1,0-.1,0,0,0,.1-.1.3-.3.5l-3.3-3.7c-1.1,1-1.3,2.3-1.3,3.3h5ZM50.8,22.8c-.2.2-.3.2-.3.2,0,0,0,0,.1,0,0,0,.2,0,.3,0v-5c-1.1,0-2.4.2-3.5,1.1l3.3,3.7ZM51,23h2.5v-5h-2.5v5ZM55.9,20.5v-6.2h-5v6.2h5ZM55.9,14.3c0-.2,0-.3,0-.3,0,0,0,.1-.2.2,0,0-.1,0-.2.1,0,0,0,0-.1,0,0,0,0,0,.2,0v-5c-1.2,0-2.5.3-3.5,1.3-1,1-1.2,2.3-1.2,3.5h5ZM55.7,14.5c.1,0,.2,0,.1,0,0,0,0,0-.1,0,0,0-.1,0-.2-.1-.1-.1-.1-.2-.1-.2,0,0,0,0,0,.3h5c0-1.1-.3-2.4-1.2-3.4-1-1.1-2.3-1.4-3.4-1.4v5ZM55.4,14.3v6.2h5v-6.2h-5ZM57.8,23h4.6v-5h-4.6v5ZM62.4,23c.2,0,.3,0,.4,0,0,0,0,0-.2-.1-.1-.1-.2-.3-.3-.4,0-.1,0-.2,0,0h5c0-1.2-.4-2.4-1.5-3.4-1-.8-2.3-1.1-3.3-1.1v5ZM62.3,22.4c0,0,0,0,0,0,0-.1.1-.3.3-.4.1-.1.2-.1.2-.1,0,0-.1,0-.4,0v5c1.1,0,2.3-.2,3.3-1.1,1.1-.9,1.5-2.2,1.5-3.4h-5ZM62.4,21.9h-4.6v5h4.6v-5ZM55.4,24.4v13.2h5v-13.2h-5ZM55.4,37.5c0,1.5.3,3.3,1.7,4.5l3.1-3.8c.2.1.2.3.2.2,0-.1,0-.4,0-.9h-5ZM57.2,42.2c1.2.9,2.7,1.1,4.1,1.1v-5c-.4,0-.7,0-.9,0-.2,0-.3,0-.2,0l-2.9,4ZM61.3,43.3h.3v-5h-.3v5ZM61.6,43.3c.8,0,1.3,0,1.6.2l1.3-4.8c-.9-.2-1.9-.3-2.9-.3v5ZM63.3,43.5c-.1,0-.3-.1-.5-.2-.2-.1-.3-.3-.4-.5-.2-.3-.1-.4-.1-.2h5c0-.7-.1-1.5-.6-2.3-.5-.9-1.3-1.4-2.3-1.7l-1.1,4.8ZM62.3,42.6c0,.1,0,0,.2-.3.2-.2.4-.3.3-.3l1.2,4.8c.9-.2,1.8-.7,2.4-1.5.6-.8.8-1.8.8-2.7h-5ZM62.6,42c-.6.2-1.4.3-2.4.3v5c1.3,0,2.6-.2,3.8-.5l-1.4-4.7ZM78.7,43.4l1.2-2.2-1.2,2.2ZM74.7,39.2l-2.2,1.1h0s0,0,0,0l2.2-1.1ZM74.7,25.8l2.2,1.1h0s0,0,0,0l-2.2-1.1ZM78.6,21.4l-1.3-2.1h0s0,0,0,0l1.3,2.1ZM90,21.5l-1.4,2h0s0,0,0,0l1.4-2.1ZM93.5,25.4l-2.2,1.1h0s0,0,0,0l2.2-1.1ZM94.1,32.4l1.5,2h0s0,0,0,0l-1.6-1.9ZM77.6,32.8v-2.5h-2.5v2.5c0,0,2.5,0,2.5,0ZM79.6,38.9l-1.8,1.7h0s0,0,0,0l1.8-1.7ZM90.4,37.9l-1.8-1.7-.2.2v.2c-.1,0,2,1.3,2,1.3ZM91.9,36.8l.8,2.3h0s0,0,0,0l-1-2.3ZM93.4,37l-1.4,2h0s0,0,0,0l1.3-2.1ZM94.3,38.4l-2.5.3h0c0,0,0,.1,0,.1l2.4-.4ZM93.7,40.2l-1.9-1.5h0c0,0,0,.1,0,.1l2,1.4ZM89.8,43.7l1.1,2.2h0s0,0,0,0l-1.1-2.2ZM77.9,29.3l-2.4-.5-.6,2.9h3v-2.5ZM90.4,29.3v2.5h2.9l-.4-2.9-2.4.4ZM80.1,25l1.6,1.9h0s0,0,0,0l-1.6-1.9ZM84.7,42.3c-1.9,0-3.4-.4-4.7-1.1l-2.4,4.3c2.1,1.2,4.5,1.7,7.1,1.7v-5ZM79.9,41.2c-1.3-.7-2.3-1.7-3-3.2l-4.4,2.3c1.2,2.3,2.8,4,5,5.2l2.4-4.3ZM76.9,38c-.7-1.5-1.2-3.3-1.2-5.7h-5c0,2.9.5,5.6,1.7,7.9l4.4-2.2ZM75.8,32.4c0-2.2.4-4,1.2-5.4l-4.4-2.3c-1.2,2.3-1.7,4.9-1.7,7.7h5ZM76.9,26.9c.8-1.5,1.8-2.6,3-3.4l-2.6-4.2c-2.1,1.3-3.7,3.1-4.8,5.3l4.4,2.2ZM79.9,23.5c1.3-.8,2.7-1.2,4.5-1.2v-5c-2.6,0-5,.6-7.1,1.9l2.6,4.2ZM84.4,22.4c1.8,0,3.1.4,4.1,1.1l2.8-4.1c-2-1.4-4.4-2-7-2v5ZM88.6,23.5c1.2.8,2.1,1.8,2.7,3l4.4-2.2c-1-2-2.5-3.7-4.4-4.9l-2.7,4.1ZM91.3,26.6c.7,1.3,1,2.6,1,3.9h5c0-2.1-.5-4.2-1.5-6.1l-4.4,2.2ZM92.2,30.4c0,.2,0,.3,0,.4,0,0,0,.1,0,.1,0,0,0,0,0-.1,0,0,.1-.2.3-.3l3.2,3.8c1.3-1.1,1.5-2.7,1.5-3.8h-5ZM92.6,30.4c.1,0,.2,0,.1,0,0,0-.2,0-.4,0v5c1,0,2.2-.2,3.2-.9l-3-4ZM92.4,30.3h-14.8v5h14.8v-5ZM75.2,32.9c0,3,.8,5.7,2.6,7.6l3.7-3.3c-.7-.8-1.3-2.2-1.3-4.4h-4.9ZM77.8,40.6c1.8,1.9,4.2,2.8,6.9,2.8v-5c-1.5,0-2.5-.5-3.3-1.3l-3.6,3.4ZM84.7,43.4c3.3,0,6-1.4,7.8-4.2l-4.2-2.7c-.8,1.3-1.9,1.9-3.6,1.9v5ZM92.2,39.6c.2-.2.3-.3.4-.4.1,0,.1,0,0,0l-1.7-4.7c-1,.4-1.8,1-2.5,1.7l3.6,3.4ZM92.9,39.1c-.2,0-.4.1-.7,0-.2,0-.3,0-.2,0l2.8-4.1c-1-.7-2.4-1.1-3.9-.5l2,4.6ZM92,39.1c0,0,0,0,0,0,0-.1-.1-.2-.1-.3l4.9-.6c-.2-1.4-1-2.5-2.1-3.2l-2.7,4.2ZM91.9,38.8c0,0,0-.2,0-.2,0,0,0-.1,0-.1,0,0,0,0,0,0,0,0,0,.1-.1.2l3.9,3.1c.8-.9,1.4-2.3,1.1-3.8l-4.9.9ZM91.7,38.8c-.9,1.3-1.9,2.1-3,2.7l2.2,4.4c1.9-1,3.5-2.4,4.8-4.3l-4.1-2.8ZM88.7,41.5c-1.1.5-2.4.8-4,.8v5c2.2,0,4.3-.4,6.2-1.3l-2.2-4.4ZM77.9,31.7h12.5v-5h-12.5v5ZM92.8,28.9c-.3-2.1-1.2-4-2.7-5.5l-3.5,3.5c.6.6,1.1,1.5,1.3,2.8l4.9-.8ZM90.1,23.3c-1.6-1.6-3.5-2.3-5.8-2.3v5c1,0,1.7.3,2.3.9l3.5-3.5ZM84.4,21c-2.2,0-4.3.7-5.9,2.1l3.3,3.7c.6-.5,1.4-.9,2.6-.9v-5ZM78.5,23.1c-1.7,1.4-2.6,3.4-3.1,5.7l4.9.9c.3-1.5.8-2.3,1.4-2.8l-3.2-3.8ZM109.4,21.5h2.5c0-.1,0-.1,0-.1h0s-2.5.1-2.5.1ZM109.5,23.9h-2.5c0,.1.3,7.5.3,7.5l4.2-6.1-2-1.4ZM112.7,20.9l1.2,2.2-1.2-2.2ZM122.7,21.4l-1.3,2.1h0s0,0,0,0l1.3-2.1ZM126.6,25.7l-2.2,1.1h0s0,0,0,0l2.2-1.2ZM126.6,39l-2.2-1.2h0s0,0,0,0l2.2,1.1ZM122.7,43.3l1.3,2.1h0s0,0,0,0l-1.3-2.1ZM112.9,43.9l-1.2,2.2h0s0,0,0,0l1.2-2.2ZM109.8,41.2l2-1.5-4.5-6.1v7.5h2.5ZM121.7,38.5l1.8,1.6h0s0,0,0,0l-1.9-1.6ZM121.7,26.2l-1.8,1.6,1.8-1.6ZM111.7,26.2l-1.8-1.6h0s0,0,0,0l1.9,1.6ZM111.7,38.5l-1.9,1.6h0s0,0,0,0l1.8-1.6ZM107.6,51.8c-.2,0-.2,0-.1,0,0,0,0,0,.1,0,0,0,.1,0,.2.1.1.1.1.2.1.2,0,0,0,0,0,0,0,0,0-.1,0-.2h-5c0,1.1.3,2.4,1.2,3.5,1,1.1,2.3,1.4,3.5,1.4v-5ZM107.9,51.9v-29.1h-5v29.1h5ZM107.9,22.8c0-.2,0-.3,0-.3,0,0,0,0-.1.2-.1.1-.2.2-.4.3,0,0-.1,0,0,0v-5c-1.2,0-2.4.4-3.4,1.5-.9,1-1.1,2.3-1.1,3.3h5ZM107.4,23c.2,0,.4,0,.4,0,0,0,0,0,0,0-.1,0-.3-.2-.5-.5-.2-.3-.3-.6-.3-.8l4.9-.2c0-1.3-.8-2.3-1.9-2.9-.9-.4-1.8-.5-2.6-.5v5ZM106.9,21.6v2.3c0,0,5-.2,5-.2v-2.3c0,0-5,.2-5,.2ZM111.5,25.3c.7-1,1.4-1.7,2.3-2.2l-2.4-4.3c-1.6.9-3,2.1-4,3.7l4.1,2.8ZM113.9,23.1c.9-.5,1.8-.7,3-.7v-5c-1.9,0-3.8.4-5.4,1.3l2.4,4.3ZM116.9,22.4c1.8,0,3.3.4,4.5,1.2l2.6-4.2c-2.1-1.3-4.5-1.9-7.1-1.9v5ZM121.4,23.6c1.2.7,2.2,1.8,3,3.3l4.4-2.2c-1.2-2.3-2.8-4.1-4.9-5.3l-2.5,4.3ZM124.4,26.9c.8,1.4,1.2,3.2,1.2,5.4h5c0-2.9-.6-5.5-1.8-7.8l-4.4,2.3ZM125.6,32.3c0,2.2-.4,4-1.2,5.5l4.4,2.3c1.2-2.3,1.8-4.9,1.8-7.8h-5ZM124.4,37.8c-.8,1.5-1.8,2.6-3,3.4l2.6,4.2c2.1-1.3,3.7-3.1,4.9-5.3l-4.4-2.2ZM121.4,41.2c-1.3.7-2.7,1.1-4.5,1.1v5c2.6,0,4.9-.6,7-1.8l-2.5-4.3ZM116.9,42.3c-1.1,0-2.1-.2-2.9-.7l-2.3,4.4c1.6.8,3.3,1.2,5.2,1.2v-5ZM114.1,41.7c-.9-.5-1.6-1.1-2.2-2l-4,2.9c1,1.4,2.3,2.5,3.8,3.4l2.4-4.3ZM107.4,41.2v10.7h5v-10.7h-5ZM107.4,51.9c0,.1,0,.2,0,.2,0,0,0,0,0,0,0,0,0-.1.1-.2,0,0,.1,0,.2-.1,0,0,0,0,.1,0,0,0,0,0-.1,0v5c1.2,0,2.5-.3,3.5-1.4,1-1,1.2-2.3,1.2-3.5h-5ZM116.7,43.2c2.7,0,5.1-1,6.8-3.1l-3.7-3.3c-.8.9-1.8,1.4-3.2,1.4v5ZM123.6,40.1c1.8-2.1,2.6-4.8,2.6-7.8h-5c0,2.2-.5,3.6-1.4,4.6l3.7,3.2ZM126.2,32.3c0-3-.8-5.7-2.6-7.8l-3.7,3.3c.8.9,1.4,2.3,1.4,4.5h5ZM123.6,24.5c-1.8-2-4.1-3.1-6.8-3.1v5c1.3,0,2.3.4,3.2,1.4l3.7-3.3ZM116.7,21.5c-2.7,0-5.1,1-6.8,3.1l3.7,3.3c.8-.9,1.8-1.4,3.2-1.4v-5ZM109.9,24.6c-1.8,2.1-2.5,4.8-2.5,7.8h5c0-2.2.5-3.6,1.3-4.5l-3.7-3.2ZM107.3,32.3c0,3,.7,5.7,2.5,7.8l3.8-3.2c-.8-.9-1.3-2.4-1.3-4.6h-5ZM109.9,40.2c1.8,2,4.1,3.1,6.8,3.1v-5c-1.3,0-2.3-.4-3.2-1.4l-3.7,3.3ZM139,43.9l-1.8,1.7h0s0,0,0,0l1.7-1.8ZM139,39.2l-1.7-1.8,1.7,1.8ZM143.6,39.2l-1.8,1.7h0s0,0,0,0l1.7-1.8ZM143.6,43.9l-1.7-1.8,1.7,1.8ZM141.3,42.3c-.3,0-.5,0-.7-.3l-3.4,3.6c1.1,1.1,2.5,1.6,4.1,1.6v-5ZM140.8,42.2c-.2-.2-.3-.4-.3-.6h-5c0,1.5.6,2.9,1.6,4l3.6-3.4ZM140.5,41.5c0-.3,0-.4.2-.6l-3.5-3.5c-1.1,1.1-1.7,2.5-1.7,4.1h5ZM140.7,41c.2-.2.4-.3.6-.3v-5c-1.6,0-3,.6-4.1,1.7l3.5,3.5ZM141.3,40.7c.2,0,.3,0,.5.2l3.6-3.4c-1.1-1.1-2.5-1.8-4.1-1.8v5ZM141.9,41c.2.2.2.3.2.5h5c0-1.6-.6-3-1.8-4.1l-3.4,3.6ZM142.1,41.5c0,.2,0,.4-.3.6l3.5,3.5c1.1-1.1,1.7-2.5,1.7-4.1h-5ZM141.9,42.1c-.2.2-.3.2-.5.2v5c1.5,0,2.9-.6,4-1.7l-3.5-3.5ZM167.2,36.2h2.5v-2.5h-2.5v2.5ZM153.4,33l2.4.7h0s0,0,0,0l-2.4-.7ZM154,31.5l-2.1-1.3h0c0,0,0,.1,0,.1l2.2,1.2ZM166.3,11l2.1,1.3h0s0,0,0,0l-2.2-1.2ZM171.1,32.4h-2.5v2.5h2.5v-2.5ZM171.1,36.2v-2.5h-2.5v2.5h2.5ZM157.6,32.4l-2.1-1.3-2.3,3.7h4.4v-2.5ZM167.2,32.4v2.5h2.5v-2.5h-2.5ZM167.2,16.4h2.5V7.5l-4.6,7.7,2.1,1.3ZM169.2,41.8c0,0,0,0,0,0,.1,0,.3.1.4.3,0,.1.1.2.1.2,0,0,0-.1,0-.4h-5c0,1.1.2,2.3,1.1,3.4.9,1.1,2.2,1.5,3.4,1.5v-5ZM169.7,41.9v-5.7h-5v5.7h5ZM167.2,33.7h-11.6v5h11.6v-5ZM155.6,33.7c-.3,0-.4,0-.5,0,0,0,0,0,.1,0,.1,0,.3.2.4.4,0,.2,0,.3,0,.3h-5c0,1.2.5,2.5,1.6,3.3,1,.7,2.2.9,3.2.9v-5ZM155.7,34.5c0-.4,0-.7,0-.8l-4.7-1.5c-.2.7-.3,1.5-.3,2.3h5ZM155.8,33.6c0-.3.2-.6.4-1l-4.4-2.3c-.3.6-.6,1.3-.8,1.9l4.8,1.4ZM156.1,32.8l12.4-20.5-4.2-2.6-12.4,20.5,4.2,2.6ZM168.5,12.2c.1-.2.2-.2.2-.3,0,0,.1,0,.4,0v-5c-2.1,0-3.9,1-4.9,2.8l4.3,2.4ZM169.1,11.9c.1,0,0,0,0,0,0,0-.1,0-.2,0,0,0-.1-.1-.2-.2-.1-.1-.1-.2-.1-.2,0,0,0,.1,0,.4h5c0-1.1-.2-2.4-1.1-3.4-.9-1.1-2.2-1.5-3.4-1.5v5ZM168.7,11.8v20.6h5V11.8h-5ZM171.1,34.8h2.7v-5h-2.7v5ZM173.9,34.8c.2,0,.3,0,.4,0,0,0,0,0-.2-.1-.1-.1-.2-.3-.3-.4,0-.1,0-.2,0-.1h5c0-1.2-.4-2.4-1.5-3.3-1-.8-2.3-1-3.3-1v5ZM173.7,34.3c0,.3,0,0,.2-.3.1-.2.3-.2.4-.3,0,0,.1,0,0,0v5c1,0,2.2-.3,3.2-1.3.9-1,1.1-2.2,1.1-3.2h-5ZM174.4,33.7h-3.2v5h3.2v-5ZM168.7,36.2v5.7h5v-5.7h-5ZM168.7,41.9c0,.2,0,.3,0,.4,0,0,0,0,.1-.2.1-.1.2-.2.4-.3.1,0,.1,0,0,0v5c1.2,0,2.5-.4,3.4-1.5.9-1,1.1-2.3,1.1-3.4h-5ZM157.6,34.8h9.6v-5h-9.6v5ZM169.7,32.4v-16h-5v16h5ZM165.1,15.1l-9.6,16,4.2,2.5,9.6-16-4.2-2.5Z"/>
      </g>
    </g>
  </g>
</svg>